<svg id="OBJECTS" xmlns="http://www.w3.org/2000/svg" viewBox="0 0 124.86 208.35">
  <defs>
    <style>
      .cls-1 {
        fill: none;
        stroke: #939;
        stroke-width: 0.75px;
      }

      .cls-1, .cls-3 {
        stroke-miterlimit: 10;
      }

      .cls-2, .cls-3 {
        fill: #7f3f98;
      }

      .cls-3 {
        stroke: #231f20;
        stroke-width: 0.25px;
      }

      .cls-4 {
        fill: #e6e7e8;
      }

      .cls-5 {
        fill: #939;
      }

      .cls-6 {
        fill: #090410;
      }

      .cls-7 {
        fill: #0b0512;
      }

      .cls-8 {
        fill: #08030d;
      }

      .cls-9 {
        fill: #0d0713;
      }

      .cls-10 {
        fill: #0e0716;
      }

      .cls-11 {
        fill: #13091e;
      }

      .cls-12 {
        fill: #0d0616;
      }

      .cls-13 {
        fill: #947b8d;
      }

      .cls-14 {
        fill: #07030b;
      }

      .cls-15 {
        fill: #110919;
      }

      .cls-16 {
        fill: #120a1c;
      }

      .cls-17 {
        fill: #8d7587;
      }

      .cls-18 {
        fill: #07030d;
      }

      .cls-19 {
        fill: #947b8e;
      }

      .cls-20 {
        fill: #90778a;
      }

      .cls-21 {
        fill: #8f7689;
      }

      .cls-22 {
        fill: #8a7385;
      }

      .cls-23 {
        fill: #937a8d;
      }

      .cls-24 {
        fill: #0d0615;
      }

      .cls-25 {
        fill: #50424f;
      }

      .cls-26 {
        fill: #7e6979;
      }

      .cls-27 {
        fill: #877081;
      }

      .cls-28 {
        fill: #91798b;
      }

      .cls-29 {
        fill: #170e21;
      }

      .cls-30 {
        fill: #0a0512;
      }

      .cls-31 {
        fill: #937b8d;
      }

      .cls-32 {
        fill: #443945;
      }

      .cls-33 {
        fill: #887083;
      }

      .cls-34 {
        fill: #877082;
      }

      .cls-35 {
        fill: #1a151d;
      }

      .cls-36 {
        fill: #61515f;
      }

      .cls-37 {
        fill: #796475;
      }

      .cls-38 {
        fill: #110b16;
      }

      .cls-39 {
        fill: #473b47;
      }

      .cls-40 {
        fill: #816c7d;
      }

      .cls-41 {
        fill: #524350;
      }

      .cls-42 {
        fill: #3e333e;
      }

      .cls-43 {
        fill: #7a6575;
      }

      .cls-44 {
        fill: #252129;
      }

      .cls-45 {
        fill: #5d4d5b;
      }

      .cls-46 {
        fill: #190f22;
      }

      .cls-47 {
        fill: #7d6779;
      }

      .cls-48 {
        fill: #1a151e;
      }

      .cls-49 {
        fill: #5a4b58;
      }

      .cls-50 {
        fill: #493e4a;
      }

      .cls-51 {
        fill: #786375;
      }

      .cls-52 {
        fill: #1a1320;
      }

      .cls-53 {
        fill: #766373;
      }

      .cls-54 {
        fill: #8b7386;
      }

      .cls-55 {
        fill: #91788b;
      }

      .cls-56 {
        fill: #251b2c;
      }

      .cls-57 {
        fill: #806d7d;
      }

      .cls-58 {
        fill: #3c2e43;
      }

      .cls-59 {
        fill: #867082;
      }

      .cls-60 {
        fill: #61505f;
      }

      .cls-61 {
        fill: #876f81;
      }

      .cls-62 {
        fill: #08040d;
      }

      .cls-63 {
        fill: #524452;
      }

      .cls-64 {
        fill: #352a36;
      }

      .cls-65 {
        fill: #281f30;
      }

      .cls-66 {
        fill: #847f84;
      }

      .cls-67 {
        fill: #655464;
      }

      .cls-68 {
        fill: #786476;
      }

      .cls-69 {
        fill: #4e404d;
      }

      .cls-70 {
        fill: #665563;
      }

      .cls-71 {
        fill: #7a6777;
      }

      .cls-72 {
        fill: #423541;
      }

      .cls-73 {
        fill: #867283;
      }

      .cls-74 {
        fill: #90798b;
      }

      .cls-75 {
        fill: #19131b;
      }

      .cls-76 {
        fill: #675565;
      }

      .cls-77 {
        fill: #100719;
      }

      .cls-78 {
        fill: #1b1122;
      }

      .cls-79 {
        fill: #4c4450;
      }

      .cls-80 {
        fill: #876f82;
      }

      .cls-81 {
        fill: #7e687b;
      }

      .cls-82 {
        fill: #564758;
      }

      .cls-83 {
        fill: #27212c;
      }

      .cls-84 {
        fill: #33283b;
      }

      .cls-85 {
        fill: #3e323f;
      }

      .cls-86 {
        fill: #756271;
      }

      .cls-87 {
        fill: #2c2434;
      }

      .cls-88 {
        fill: #695567;
      }

      .cls-89 {
        fill: #443c48;
      }

      .cls-90 {
        fill: #312733;
      }

      .cls-91 {
        fill: #6e5a6c;
      }

      .cls-92 {
        fill: #302838;
      }

      .cls-93 {
        fill: #352a3a;
      }

      .cls-94 {
        fill: #020104;
      }

      .cls-95 {
        fill: #241a2b;
      }

      .cls-96 {
        fill: #423a48;
      }

      .cls-97 {
        fill: #2e2237;
      }

      .cls-98 {
        fill: #261c30;
      }

      .cls-99 {
        fill: #2a262e;
      }

      .cls-100 {
        fill: #554b58;
      }

      .cls-101 {
        fill: #2c2732;
      }

      .cls-102 {
        fill: #93798c;
      }

      .cls-103 {
        fill: #80697c;
      }

      .cls-104 {
        fill: #7e687a;
      }

      .cls-105 {
        fill: #8a7184;
      }

      .cls-106 {
        fill: #776175;
      }

      .cls-107 {
        fill: #514153;
      }

      .cls-108 {
        fill: #766073;
      }

      .cls-109 {
        fill: #665365;
      }

      .cls-110 {
        fill: #3a2f3a;
      }

      .cls-111 {
        fill: #352b36;
      }

      .cls-112 {
        fill: #312732;
      }

      .cls-113 {
        fill: #1e1720;
      }

      .cls-114 {
        fill: #3d313e;
      }

      .cls-115 {
        fill: #231c25;
      }

      .cls-116 {
        fill: #281f2a;
      }

      .cls-117 {
        fill: #251d27;
      }

      .cls-118 {
        fill: #574856;
      }

      .cls-119 {
        fill: #483a48;
      }

      .cls-120 {
        fill: #483a47;
      }

      .cls-121 {
        fill: #554553;
      }

      .cls-122 {
        fill: #645261;
      }

      .cls-123 {
        fill: #725d6f;
      }

      .cls-124 {
        fill: #614f5f;
      }

      .cls-125 {
        fill: #715c6d;
      }

      .cls-126 {
        fill: #fff;
      }
    </style>
  </defs>
  <g>
    <g id="button">
      <line class="cls-1" x1="31.48" y1="7.08" x2="31.38" y2="139.19"/>
      <circle class="cls-2" cx="30.66" cy="138.33" r="27.58"/>
      <circle class="cls-2" cx="30.37" cy="174.38" r="7.52"/>
      <polygon class="cls-3" points="37.89 169.01 51.68 165.04 60.27 171.39 60.27 181.17 57.89 171.79 51.15 166.87 38.59 170.6 37.89 169.01"/>
      <polygon class="cls-3" points="22.86 166.87 9.11 164.52 0.13 170.2 0.13 178.4 1.45 180.51 0.92 177.7 1.58 171.52 9.11 166.87 21.94 169.14 22.86 166.87"/>
      <polygon class="cls-3" points="20.61 172.51 10.7 173.64 1.18 185.93 4.62 198.22 3.3 186.72 11.49 175.75 21.28 174.38 20.61 172.51"/>
      <polygon class="cls-3" points="20.22 176.94 11.49 183.82 9.78 198.22 17.18 208.27 12.02 197.56 13.34 186.06 21.28 178.93 20.22 176.94"/>
      <polygon class="cls-3" points="40.71 176.94 49.7 184.08 50.23 198.22 44.01 206.29 48.24 197.04 47.58 185.37 39.26 179.06 40.71 176.94"/>
      <polygon class="cls-3" points="40.31 174.38 51.55 176.94 57.1 188.97 56.31 195.71 58.55 187.65 53.4 175.49 40.31 172.05 40.31 174.38"/>
      <path class="cls-4" d="M399.44,383.07s-2.4,3,1.31,5.35c0,0-.82-3.06,0-4.89Z" transform="translate(-375.29 -201.65)"/>
      <path class="cls-4" d="M411.48,383.29s2.39,3-1.31,5.35c0,0,.82-3.06,0-4.89Z" transform="translate(-375.29 -201.65)"/>
      <polygon class="cls-4" points="25.11 176.94 27.95 173.84 28.35 179.85 25.11 176.94"/>
      <polygon class="cls-4" points="31.85 174.38 31.85 180.12 35.42 177.25 31.85 174.38"/>
    </g>
    <g id="branch1">
      <path class="cls-5" d="M486.29,278.48a16.5,16.5,0,0,0-.19-2.9c-.14-1.69-.31-3.37-.3-5.06a2.58,2.58,0,0,1,.22-.44c.59-.84,1.14-.83,2,.08.26-.45.53-1,1.1-.31a19,19,0,0,1,.13,2,40.24,40.24,0,0,0,2.45,13.3c1,3.18,2.26,6.28,3.51,9.38a21.08,21.08,0,0,0,3,4.59,16.73,16.73,0,0,0,1.95,2.26v16.51c-.27-.13-.35-.41-.5-.64q-2.22-3.35-4.4-6.72a.89.89,0,0,0-.94-.49c-1.26.14-2.52.24-3.79.36-.25.08-.5.14-.65-.14a.32.32,0,0,0-.47-.18.44.44,0,0,1-.62-.25.62.62,0,0,1,.18-.75,4.22,4.22,0,0,1,1.2-.86c-1.35-.92-1.38-1-.85-1.68a23.57,23.57,0,0,1,3-.54c0-.29-.21-.49-.34-.72-1-1.75-2-3.48-2.93-5.23a3.47,3.47,0,0,0-1-1.16,16.28,16.28,0,0,1-2.91-2.46.53.53,0,0,1,1-.33.81.81,0,0,0,.17.28c.19.18.44.34.65.11s0-.48-.2-.6c-1-.53-1.29-1.57-1.91-2.38a.9.9,0,0,1-.06-.72c.06-.39.18-.78-.44-.84-.29,0-.24-.29-.09-.43a1.11,1.11,0,0,0,.22-1.16,8.46,8.46,0,0,0-.66-2,3.93,3.93,0,0,1-.33-1c-.18-.47.17-.48.47-.53s.63.16,1,.19c-.39-.24-.65-.52-1-.73-.6-.37-.6-.71-.06-1.15l.2-.14c1-.64.95-.79-.07-1.32-.67-.35-.75-.88-.19-1.46s.73-.9.43-1.55c-.12-.25-.4-.6,0-.77a.81.81,0,0,1,1.14.33c.23.41.28.88.49,1.32C485.8,280.5,486.43,279.53,486.29,278.48Z" transform="translate(-375.29 -201.65)"/>
      <path class="cls-5" d="M417.79,219.18a27.38,27.38,0,0,1,3.41,2c4.67,3.11,9.86,5.11,15,7.17,3,1.19,6,2.31,8.92,3.58a68,68,0,0,1,15,9.24l1.47,1.15c-.28-1-.78-1.75-1.05-2.58a3.64,3.64,0,0,1,0-.66c.22-.45-.41-.39-.43-.69a14.33,14.33,0,0,0-1.09-2.35,2,2,0,0,1-.1-.21,6.19,6.19,0,0,0-.84-1.56,6.12,6.12,0,0,1-.79-1.35,2.38,2.38,0,0,0-.67-.94,13.43,13.43,0,0,1-2.44-2.67,7.37,7.37,0,0,1-.59-.79c-.13-.18-.27-.36-.52-.17a3.74,3.74,0,0,1-.84-1c.06-.37-.18-.61-.39-.87-1.07-1.36-2.28-2.6-3.41-3.91-1-1.71-2.27-3.26-3.21-5a27.83,27.83,0,0,0-2.42-4.33c-.09-.22-.12-.45-.2-.67a3.26,3.26,0,0,0-.64-1.29,2.49,2.49,0,0,1-.18-.45,1.5,1.5,0,0,1,.05.37c-.05.11-.11.2-.26.15-1.31-3.1-2.35-6.32-3.68-9.42,0-.06,0-.15.07-.24.39,0,.44.42.58.65,1.64,2.69,2.94,5.54,4.36,8.34a41.6,41.6,0,0,0,6.71,10c.67.7,1.38,1.37,2.11,2a25.84,25.84,0,0,1,5.28,6.49c2.8,4.85,5.65,9.66,8.48,14.49a1.6,1.6,0,0,1,.1.23c0,.11-.13.25-.21.22-.68-.25-.94.33-1.44.75,1,0,2,0,2.92.09.3,0,.36-.3.45-.52.37-.86.37-.86,1.14-.44A1.49,1.49,0,0,1,469,245c-.88-.4-.89-.41-1.31.56a2,2,0,0,1-.83.79c-.4.28-.69.06-1-.24s-.66.11-.91-.22c0,0-.11-.09-.06,0,.32.7-.68.51-.71,1.05,0,.18-.41-.08-.61-.22s-.25-.15-.35,0a.22.22,0,0,0,.12.34,5.43,5.43,0,0,1,1,.67c.36.22.62,0,.9-.23s.31-.28.52-.18.13.34.11.53c-.06.91-.94,1.35-2.09,1.05-.33-.1-.39-.43-.59-.65a2.56,2.56,0,0,0-.86-.81,39.74,39.74,0,0,0-10.26-8.9,63.06,63.06,0,0,0-8.28-4.5c-2-.82-4.05-1.59-6-2.59-1.75-.89-3.49-1.82-5.18-2.82a.44.44,0,0,1,.31-.17,6.25,6.25,0,0,1,2.47,1.06,10.2,10.2,0,0,0,1.43.74,20.94,20.94,0,0,0-3.74-1.84,10.53,10.53,0,0,0-3-1.27c-.38-.08-.89.09-1-.53,0-.1-.08-.21-.19-.22s-.08.16-.15.22a14.77,14.77,0,0,1-2.7-1.19c-.78-.35-1.52-.78-2.27-1.18-.05-.17.1-.17.2-.22-.79,0-1.07-.84-1.76-1a1,1,0,0,1-.52-.4c-.05-.11-.06-.24-.25-.28.22.08.21.25.24.4a.33.33,0,0,1-.11.19,45.22,45.22,0,0,1-10.48-8.46c-.11-.12-.26-.22-.23-.42.56-.09.87.33,1.26.6a19.13,19.13,0,0,0,2.31,2.19c.37.13.46.71,1,.6.11,0,.23,0,.31.06a6.91,6.91,0,0,0,1.7,1.25C417.43,219.06,417.34,219.38,417.79,219.18Z" transform="translate(-375.29 -201.65)"/>
      <path class="cls-5" d="M446,271.85a6.55,6.55,0,0,1,1.32.84,25.35,25.35,0,0,0,7.72,3.18,43.1,43.1,0,0,1,9.68,3.95c-.07.34.12.51.39.64a.91.91,0,0,1,.44,1.25.69.69,0,0,1-1,.49c-.25-.08-.48.09-.72.14-1.82-.87-3.59-1.82-5.45-2.61a39.06,39.06,0,0,0-9.56-2.56c-2.38-.35-4.77-.61-7.15-.87a35.68,35.68,0,0,1-6.17-1c-.46-.65-1.25-.39-1.84-.66h0a12.35,12.35,0,0,0-1.94-1,8.78,8.78,0,0,0-2.57-1.26,7.07,7.07,0,0,0-2.05-1.55,2.19,2.19,0,0,0-.95-.16,3.35,3.35,0,0,1-1.2-.84c-.05-.53-.61-.54-.87-.85-.16-.1-.33-.15-.48-.26a2.23,2.23,0,0,0-.81-.51,1.35,1.35,0,0,1-.47-.12c-1.8-1.38-3.67-2.69-5.34-4.25-.11-.72,0-.79.72-.7l5,3.27a57.52,57.52,0,0,0,10.77,5.84,24.19,24.19,0,0,0,6.62,1.44c1.71.15,3.43.13,5.12.45a3.79,3.79,0,0,0,.7,0l-1.22-1a1.52,1.52,0,0,0,.86-1.23C445.5,271.77,445.78,271.72,446,271.85Z" transform="translate(-375.29 -201.65)"/>
      <path class="cls-5" d="M489.31,306.53c-.27.8-.21.92.59,1.18a.75.75,0,0,1,.35.19c.12.13.42.13.32.41a.38.38,0,0,1-.41.22c-.56,0-.72.53-1.13.73s-.18.45,0,.64.33,0,.47-.12.19-.21.42-.17c.18.24-.07.92.62.78a31.94,31.94,0,0,0-4.33,1.66,19.4,19.4,0,0,1-5.82,1.33c-2.1.19-4.2.32-6.31.35a15,15,0,0,0-3.51.56,5.81,5.81,0,0,1-.58.09c-.23.05-.21-.09-.13-.21a1.45,1.45,0,0,1,.58-.42,2.22,2.22,0,0,1,.72-.21c-.22-.36.14-.83-.23-1.17a.74.74,0,0,1-.13-.21c-.61-1.15-.6-1.16.69-1.46A7.29,7.29,0,0,0,474,311a35.41,35.41,0,0,0,11.62-3.16,4.19,4.19,0,0,1,1.22-.5c.2.07.41.16.45-.18A5.5,5.5,0,0,1,489.31,306.53Z" transform="translate(-375.29 -201.65)"/>
      <path class="cls-5" d="M486.29,278.48a1.58,1.58,0,0,1,0,1.56c-.31.57,0,1.18,0,1.77-.71,0-.72,0-.7-.68a2.35,2.35,0,0,0-.38-1c-.14-.31-.6-.06-.89-.15-.11.21,0,.29.09.41a1.39,1.39,0,0,1-.44,2c-.2.17-.4.31-.3.6s.19.55.55.5.49.25.69.41a.57.57,0,0,1-.08,1c-.13.09-.34.09-.45.19s-.69.25-.7.64.39.39.66.49.34.66.79.67c.12,0,.08.13,0,.19s-.27.36-.48.19a1.18,1.18,0,0,0-.85-.24.33.33,0,0,0-.36.35,43.51,43.51,0,0,1-1.73-4.58c-.79-2.24-1.6-4.48-2.27-6.77a2.58,2.58,0,0,1,.52-2.21c-.33.16-.59.45-.86.18s-.12-.63.12-.89a.91.91,0,0,0,.19-1c-.21-.61-.43-.69-1-.36-.17.1-.32.24-.53.12s-.13-.29-.14-.44c0-.57,1-1.39,1.51-1.29a.62.62,0,0,1,.49.49c.25.92.43,1,1.51.73-.93-.28-1.21-1.1-1.74-1.69a.19.19,0,0,1-.07-.15c.09-.47.68-.57.8-1.07,0-.12.51-.08.68.22,1.79,3.14,3.57,6.3,5.14,9.56C486.15,278.33,486.16,278.46,486.29,278.48Z" transform="translate(-375.29 -201.65)"/>
      <path class="cls-5" d="M463.79,248.87c0-.11.16-.21.25-.14.34.25.58.39.79-.17s.42.15.73,0c.18-.31,0-.75.25-1.1-.28,0-.35.13-.46.23-.68.59-.79.6-1.43,0-.21-.19-.39-.39-.71-.36s-.44,0-.38-.3.06-.58.31-.74.36,0,.48.21.22.38.48.42c.25-.21-.34-.47.06-.68.23-.13.48.24.71-.12-.11-.25-.55,0-.63-.34a.45.45,0,0,1,.46-.19c.37.29.7.46,1.14.1.12-.09.14.1.19.24.14.46.44.56.75.21s.74-.32.75-.87a.77.77,0,0,1,.66-.81c.57-.11.5.4.78.54q1.36,3.41,2.74,6.81c-.56.14-.7-.35-1-.58a.92.92,0,0,1,.12,1.25c-.31.37-.85.36-1.28.67a1.39,1.39,0,0,1,1.45,1.06.36.36,0,0,1-.58.39c-.6-.42-.88,0-1.31.45.64-.29,1.21,0,1.78-.24.39-.14.84.32.73.82a1.13,1.13,0,0,0,.29,1.05c.21.25.31.57,0,.82s-.19.54.12.71c.69.39.54.61-.11.85-.21.08-.37.33-.63.35s-.35-.16-.47-.31a4.54,4.54,0,0,0-.82-1,4,4,0,0,1-.53-.86c-.13-.27-.26-.54-.4-.8-.66-.87-1.16-1.84-1.9-2.65-.48-.35-.64-1-1-1.38a11.32,11.32,0,0,0-2.24-3.08A.43.43,0,0,1,463.79,248.87Z" transform="translate(-375.29 -201.65)"/>
      <path class="cls-5" d="M459.46,286.51a19.88,19.88,0,0,1-3.66-.63,22.27,22.27,0,0,0-7.32-.56c-.38,0-.77,0-1.16.05a11.68,11.68,0,0,0-2,.15,15.74,15.74,0,0,0-5.55,1.42,2.32,2.32,0,0,0-1.35.21l-.81.06c-.31.08-.59-.08-.89-.1-.53-.27-.75-.65-.47-1.22,3.54-.6,6.94-1.88,10.49-2.39a32.75,32.75,0,0,1,7.79-.35c2,.18,4.08.39,6.12.56a4.27,4.27,0,0,1,1.61.31c-.29.42-.41,1-1.23,1,.43.24.65.51.48.9a.4.4,0,0,1-.57.19c-.42-.17-.91-.29-1-.87,0-.28.19-.53,0-.86-.66.3-.66.86-.55,1.42A1,1,0,0,1,459.46,286.51Z" transform="translate(-375.29 -201.65)"/>
      <path class="cls-5" d="M489.14,269.85c-.33-.08-.85-.56-.71.34,0,.16-.12.26-.25.3s-.4-.11-.57-.26,0-.84-.69-.59a1.68,1.68,0,0,0-.79.63,2,2,0,0,1-.33.25,26.89,26.89,0,0,1-.72-3.46,31,31,0,0,0-1.33-4.73,1.13,1.13,0,0,1-.11-.48c-.09-.12-.12-.31.05-.32s.4,0,.44-.34.11-.48.36-.5.29.34.4.53.22.57.5.43.72-.24.59-.75,0-.91-.21-1.31c-.33-.61-.29-.95.5-.83.05-.28-.15-.41-.18-.59s.07-.58.37-.48c.56.21.64-.07.75-.51s.53-.42.88-.48a.57.57,0,0,1,.62.35c.08.37-.09.76.1,1.13a4.6,4.6,0,0,1,.11.73C489,262.56,489.19,266.2,489.14,269.85Z" transform="translate(-375.29 -201.65)"/>
      <path class="cls-5" d="M488.63,257a1,1,0,0,0-.65-.16,3.71,3.71,0,0,0-.65-.12c-.7-.14-.77-.35-.33-.92,0-.06.27,0,.11-.17a.72.72,0,0,0-.39-.25c.08.54-.08.88-.68.73-.28-.06-.39.09-.54.27s-.27.45-.59.25a5.61,5.61,0,0,1,0-.71c.85-.58.85-1.53,1-2.39,0-.3.22-1-.63-.65-.21.1-.36-.08-.36-.31s0-.55-.24-.74a7.46,7.46,0,0,1-.27-2.2c-.17-2.25-.52-4.49-.58-6.74a.75.75,0,0,1,0-.57c.46-.05.53.3.58.62s.14.68.17,1a29.71,29.71,0,0,0,.36,3c0,.48.22,1-.07,1.42a1.64,1.64,0,0,0,.1-1.32c-.07-.93-.36-1.83-.35-2.77,0-.72-.24-1.42-.26-2.14a5.08,5.08,0,0,0-.16-.85,22.5,22.5,0,0,0-.56-2.43c0-.32-.27-.6-.21-.94a.45.45,0,0,1,.14-.19,1.35,1.35,0,0,0,.76-.89c.08-.25.13-.56.51-.5.39,1.69.8,3.38,1.17,5.08.81,3.74,1.62,7.49,2.27,11.26a9.62,9.62,0,0,1,.26,2.13c.19.44-.07.93.15,1.37.05,0,.06.08,0,.13A.73.73,0,0,1,488.63,257Z" transform="translate(-375.29 -201.65)"/>
      <path class="cls-5" d="M484.46,290.35c.53.57.5.79-.22,1.41.88-.08.89-.06.76.82-.07.41-.2.83.26,1.18s.22.85.8.9c.11,0,.09.24.08.37,0,.35.1.51.47.51s.55.42.74.69-.06.42-.24.55a.93.93,0,0,1-1.23-.52c0-.15.11-.33-.14-.38a.36.36,0,0,0-.43.17l-.19.37c-1.53-1.29-2.93-2.71-4.56-3.88L478,290.69a2.76,2.76,0,0,0-1-.53c-.39-.25-.73-.55-.57-1.07s.68-.57,1.44-.45a1.21,1.21,0,0,1,.68-2,31,31,0,0,1,5.26,3.2Z" transform="translate(-375.29 -201.65)"/>
      <path class="cls-5" d="M485,256.68c.19-.08.27-.26.37-.43s.35-.64.79-.27a.29.29,0,0,0,.38,0c.14-.14,0-.24-.07-.35s-.24-.36,0-.5a.37.37,0,0,1,.56.15,1.05,1.05,0,0,0,.72.51c-.06.22-.19.29-.38.2s-.4.1-.45.3.19.26.36.27a.94.94,0,0,1,.73.34c-.27.16-.76,0-.62.7.1.49-.4.67-.85.35-.1-.07-.14-.17-.25-.06a.22.22,0,0,0,0,.3c.14.24.42.36.51.64-.28.42-.62.35-1.05.09.74.76.2,1.77.72,2.6-.48,0-.83.16-.85.7-.82-.54-.84-.56-1-1.38-.37.12-.17.47-.27.69s-.11.77-.53.18c-.08-.11-.08.12-.12.19a28,28,0,0,1-1.38-4.66,46.15,46.15,0,0,0-3-8.2,1,1,0,0,1-.08-.31,1,1,0,0,1,.12-.71c.07-.18.15-.4,0-.54-.63-.51-.74-1.34-1.24-1.92-.24-.23-.19-.54-.22-.83a1.18,1.18,0,0,1,1.16-.17l.09.31c-.27.49,0,.8.4,1a40,40,0,0,0,2.73,5.72,24.76,24.76,0,0,1,2.49,5.94c.11.17.18.16.23,0S484.79,256.92,485,256.68Z" transform="translate(-375.29 -201.65)"/>
      <path class="cls-5" d="M471.47,310.7c-.15.46-.61.26-1,.43a2,2,0,0,0,.51,1.05c.77.39,0,1,.29,1.41.1.15-.13.09-.21.12l-.63.16c-.31.07-.65-.07-.93.14a10.43,10.43,0,0,0-1.47.22c-.31.1-.67,0-.94.26a4.26,4.26,0,0,1-.83.34,1.7,1.7,0,0,0-1.08.48c-.49.36-1,.67-1.53,1a3.11,3.11,0,0,1-.51.36,2,2,0,0,0,.6-.4,4.06,4.06,0,0,1,1.13-.59,8.72,8.72,0,0,0,1.49-.59c.31-.15.59-.37.9-.51l.78-.32a3.1,3.1,0,0,1,1.54-.11.25.25,0,0,1,0,.36,24.78,24.78,0,0,0-7.13,3.22c-.29.06-.62-.16-.87.13-.7.24-1.23.94-2.09.74,0-.42-.71-.78-.08-1.25a46.69,46.69,0,0,1,5.57-3.74c.59-.29,1.2-.56,1.81-.81.23-.1.28-.2.12-.39s-.71-.4-1-.72-.74-.71-.44-1.28.76-.24,1.16-.22A23.33,23.33,0,0,1,471.47,310.7Z" transform="translate(-375.29 -201.65)"/>
      <path class="cls-6" d="M475.14,257.51a41.94,41.94,0,0,1,3.53,6,2.45,2.45,0,0,1,.35.83c-.58.09-1.07.13-.63,1a2.2,2.2,0,0,1,.32,1.33,2.39,2.39,0,0,1-2.1,1.92,4.15,4.15,0,0,1-.48-1.05,2.45,2.45,0,0,0-.59-1.83,3,3,0,0,0-.34-.81,4.64,4.64,0,0,0-.81-1.19,3.4,3.4,0,0,1-.38-.85c.28-.74.29-.74,1.19-.2-.09-.41-.77-.33-.67-.86a1.24,1.24,0,0,0-.17-1.1c-.35-.43.07-.66.34-.95-.64.4-1,.11-1.32-.39a4,4,0,0,0-.68-.94c-.54-.48-.29-1.08-.29-1.63,0-.32.33-.43.63-.4a.49.49,0,0,1,.49.47,1,1,0,0,1,0,.25c0,.31-.12.64.22.81s.56-.09.77-.32S474.87,257.14,475.14,257.51Z" transform="translate(-375.29 -201.65)"/>
      <path class="cls-5" d="M465.61,225.16c.25,1,.25,2.08.42,3.11.29,1.77.81,3.49,1.15,5.25a37.91,37.91,0,0,1,.56,5.09c.05.92.22,1.81.22,2.73-.37.38-.68,1.08-1.25.15-.17-.27-.5,0-.76.06a1.94,1.94,0,0,1-.12-1c0-1.8-.17-3.59-.21-5.39,0-.34.2-.72-.13-1,0-.45-.24-.86-.17-1.32a3,3,0,0,0-.11-1.32c-.23-.41.23-1.06-.44-1.32a3.24,3.24,0,0,1-.28-1.18c.42-.83-.1-1.57-.2-2.35h0a29.59,29.59,0,0,0,.11-3.88c0-.29,0-.56.28-.7.62,0,.87.26.86.92A9.66,9.66,0,0,0,465.61,225.16Z" transform="translate(-375.29 -201.65)"/>
      <path class="cls-5" d="M459.46,317.35c0,.26-.39.54.13.71.22.08-.33.33,0,.48.06.43-.35.41-.55.59a1.67,1.67,0,0,0-.35.24,2,2,0,0,1-.81.48,6.71,6.71,0,0,0-.58.48c-.35.23-.54.62-.85.9,0,.13,0,.28-.15.36-1.59,1-2.65,2.57-4.05,3.79a23.54,23.54,0,0,1-3.24,2.36c-.08.05-.11.16-.25.17s-.28.18-.41,0,.08-.23.16-.31c2.21-2.15,4-4.76,6.68-6.64-.93-.14-1.66.22-2.41.13-.2.05-.46.24-.48-.19,0-.07,0-.08-.14-.05a6.29,6.29,0,0,1-1.3.12h-.64c-.32,0-.64,0-1,0s-.82-.23-.32-.75c.19-.26.45-.1.68-.11.32.18.56-.08.83-.16,1.46-.25,2.93-.46,4.38-.77A18.83,18.83,0,0,0,459.46,317.35Z" transform="translate(-375.29 -201.65)"/>
      <path class="cls-7" d="M475.14,257.51c-.32-.2-.45,0-.54.27a.7.7,0,0,1-.94.43.75.75,0,0,1-.39-1c.07-.16.26-.41,0-.59a.58.58,0,0,0-.48,0,.32.32,0,0,0-.19.15c0,.06-.07.2-.05.22.47.34-.45.9.24,1.27a2.38,2.38,0,0,1,.8,1.13c.11.22.3.51.62.47s.28-.31.33-.58a2.79,2.79,0,0,1,.6.8.33.33,0,0,1-.4.13c-.39-.06-.5,0-.24.39s.71.71.22,1.23c0,0-.09.54.31.38s.44,0,.35.36c0,.12.11.29.19.47a.86.86,0,0,1-.86-.36c-.42-.48-.46-.07-.55.22a.16.16,0,0,1-.19.07c-.42-.19-.51-.64-.77-1s-.62-.83-1-1.18a3.91,3.91,0,0,1-.88-1.41c.38-.16.56-.69,1.24-.48-.31-.44-.69-.46-.93-.72s-.32-.54,0-.68c.53-.2.36-.4.1-.67s-.28-.35-.42-.52-.2-.23-.13-.28c.6-.36,0-.71.14-1.28-.78.75-1.62.13-2.3.57-.13.09-.3-.06-.3-.2s.06-.37.26-.36.45,0,.44-.3c0-.63.3-.45.62-.25.11.07.2.2.32.26s.41.14.52-.05-.09-.27-.24-.36-.28-.2-.31-.79c-.29,0-.49.24-.76.26s-.35,0-.41-.18.09-.22.17-.33c.25-.35.69-.23,1-.44s.62-.58.36-1.06a1.35,1.35,0,0,1-.27-1,3,3,0,0,0,1.26,1.36,35.27,35.27,0,0,0,3,4.84C474.86,256.93,475.12,257.16,475.14,257.51Z" transform="translate(-375.29 -201.65)"/>
      <path class="cls-5" d="M478.52,286.68c-.56.18-.55.78-.84,1.16-.12.16,0,.39.21.47.48.2.32.47.11.78-.29,0-.33-.49-.65-.37s-.62.08-.8.36.1.49.22.72l.2.36a36.84,36.84,0,0,1-4.5-1.32c-.65-.31-.77-.58-.43-1.13s.41-1.09.91-1.46c.23-.17.26-.47.26-.89a4.45,4.45,0,0,1-.84,1.46c-.21.28-.52.38-.78.1a3.19,3.19,0,0,1-.64-1.4c-.11-.47.55-.38.88-.53-.12-.36-.56-.74,0-1s.66.32.91.59c.2-.16-.58-.58.18-.54A58.39,58.39,0,0,1,478.52,286.68Z" transform="translate(-375.29 -201.65)"/>
      <path class="cls-5" d="M441.62,271.05a8.61,8.61,0,0,1-2-1.84c.35-.29.19-.59,0-.88-1-1.59-2-3.18-3.11-4.73a22.25,22.25,0,0,1-1.19-2c-.42-.49-.49-1.21-1.05-1.62-.65-1.36-1.31-2.71-2-4.09.45-.19.61.21.81.46,1.43,1.77,2.74,3.62,4,5.49a47.91,47.91,0,0,1,2.91,4.54,13.78,13.78,0,0,0,4.5,4.58,1.79,1.79,0,0,1,.54.37c.2.65-.26.81-.71,1-.38,0-.59-.33-.92-.4a.52.52,0,0,1-.18-.15C442.85,271.32,442.41,270.77,441.62,271.05Z" transform="translate(-375.29 -201.65)"/>
      <path class="cls-8" d="M472.92,284c-.1,0-.25,0-.16.18s.36.14.44.35c-.49.52-.49.52-.75-.05-.05-.1-.09-.2-.15-.3a.29.29,0,0,0-.49-.08c-.2.16-.16.33,0,.48s.51.19.4.45-.41.3-.72.19-.36.08-.51.29c.28.25.68.45.5,1-.06.17.16.36.35.41s.35-.07.44-.27c.23-.49.63-.87.81-1.38.07-.17.2-.29.39-.19s.09.24,0,.41a3.34,3.34,0,0,1-.87,1.42,8.48,8.48,0,0,0-.57,1.09.63.63,0,0,0,.38.84,30,30,0,0,1-4.17-1.17,1.13,1.13,0,0,1-.31-.26c-.79-.74-.67-1.58.31-2.18.18-.09.15-.19,0-.28s-.57-.37-.86-.55-.16-.49.21-.52.6-.22.61-.69c0-.63.48-.93,1.08-1A30.23,30.23,0,0,1,472.92,284Z" transform="translate(-375.29 -201.65)"/>
      <path class="cls-7" d="M468.3,285.23c-.51.3-.35,1-.75,1.35-.14.14,0,.36.17.38.43.06.41.45.58.71a22.7,22.7,0,0,0-6.14-.86,7.51,7.51,0,0,1-2.7-.3c-.24-.2,0-.59-.33-.77-.22-.11,0-.27.09-.39s.27-.21,0-.3-.29-.17-.07-.3a.93.93,0,0,0,.47-.54c.09-.27.35-.21.56-.11s.2.26.13.48c-.3.91-.28.91.57,1.32.19.1.38.21.49,0s.09-.59-.24-.56-.43-.23-.51-.47c.2-.23.36,0,.54,0s.71-.23.64-.37c-.39-.73.33-.3.45-.47a48.69,48.69,0,0,1,5.35,1.07Z" transform="translate(-375.29 -201.65)"/>
      <path class="cls-5" d="M484.79,236.34c-.26.12-.26.35-.33.6-.13.48-.3,1-1,.89a.94.94,0,0,1-.28-.83,14.24,14.24,0,0,0-.21-2.53c-.1-.55-.05-1.11-.11-1.66a4.26,4.26,0,0,0,0-1.07c-.08-.67.1-1.33.06-2,0-.21,0-.41,0-.61a8.43,8.43,0,0,1,.31-2.91c.11-.31.28-.74-.06-1.07A20.62,20.62,0,0,1,485,219.8c.09-.2.19-.4.29-.6a.33.33,0,0,1,.4-.2c.23.07.18.27.16.42a4.38,4.38,0,0,1-.19.71,28.6,28.6,0,0,0-1.5,6.41,26.89,26.89,0,0,0,.43,8.25A7.27,7.27,0,0,1,484.79,236.34Z" transform="translate(-375.29 -201.65)"/>
      <path class="cls-5" d="M476.61,268.58c0-.16,0-.38.27-.34.56.11.85-.22,1.09-.62s.56-.38.49-.9c0-.25.07-.51-.16-.74a.35.35,0,0,1-.11-.38c.28-.53-.1-.6-.51-.63.75-.94.75-.94,1.34-.63a30.08,30.08,0,0,1,1.94,4.34c-.15-.1-.31-.05-.47-.08s-.32-.05-.2.26-.07.44-.48.42c-.09,0-.16,0-.21.06s-.06.19,0,.22c.41.15.46.57.69.86s.67,1,1.44.64c-.76.86-1.38.93-2,.35-.18-.17-.34-.32-.21-.63.19-.5-.49-.51-.5-.49-.3.54-1.16.44-1.3,1.15a1.7,1.7,0,0,1-.34-.85c-.23-.65,0-1.51-.79-1.91A.07.07,0,0,1,476.61,268.58Z" transform="translate(-375.29 -201.65)"/>
      <path class="cls-7" d="M469.35,282.17c-.34.09-.39.52-.76.59-.15,0-.23.25-.16.49.18.56,0,.81-.61.79-.28,0-.53-.05-.37.36l-3.65-2.06c.25-.37.5-.68,1-.27.25.21.39,0,.5-.2.35-.7.24-1-.5-1.33-.56-.25-.57-.27-.08-.72A42.19,42.19,0,0,1,469.35,282.17Z" transform="translate(-375.29 -201.65)"/>
      <path class="cls-9" d="M462.8,312c-1.46,0-2.93.11-4.38,0a37.1,37.1,0,0,1-5.46-.62,1,1,0,0,0-1.18-.2,10.67,10.67,0,0,1-5.62-2.32c-.39-.34-.86-.69-.86-1.31.21-.06.29.05.39.15a8.79,8.79,0,0,0,5.26,2.5,29.56,29.56,0,0,0,4.21.4c.7,0,1.42.06,2.14.13.49.12,1,.13,1.28.71.13.31.41.18.65.11a1.62,1.62,0,0,1,1.5,0c.26.18.51,0,.77-.12C462.19,311.15,462.72,311.4,462.8,312Z" transform="translate(-375.29 -201.65)"/>
      <path class="cls-5" d="M462.8,312c0-.21-.14-.49-.3-.41-.33.15-.6-.3-.91,0a.77.77,0,0,1-1.21,0c-.22-.2-.68-.07-.9.07-.58.35-.94.3-1.24-.32-.11-.23-.25-.52-.64-.34-.19.09-.29-.09-.3-.28l.3,0a4.06,4.06,0,0,1,2.23.17,1.17,1.17,0,0,0,1.47-.49,12,12,0,0,1,2.67-.28,8.8,8.8,0,0,1,2.71.1c-.16,0-.33,0-.49,0s-.52-.1-.48.23-.31.49.1.84,1,.55,1.15,1.13C465.59,312.1,464.18,312.24,462.8,312Z" transform="translate(-375.29 -201.65)"/>
      <path class="cls-10" d="M436.29,285.89a1.25,1.25,0,0,0,.5,1.1.75.75,0,0,1-.75.27,55.07,55.07,0,0,1-6.27-.66,8.33,8.33,0,0,0-1.22-.17,3.42,3.42,0,0,0-1.27-.25,18.19,18.19,0,0,1-3.23-.89,11.33,11.33,0,0,1-2.25-.72c.09-.36.33-.26.54-.23a36.08,36.08,0,0,1,3.55.74,38.61,38.61,0,0,0,5.13.83c1.19.1,2.38.08,3.56.12C435.16,286.05,435.7,285.72,436.29,285.89Z" transform="translate(-375.29 -201.65)"/>
      <path class="cls-11" d="M465.61,225.16a3.74,3.74,0,0,1-.15-1.93.94.94,0,0,0-.81-1.07,2.76,2.76,0,0,1-.35-1.88,2,2,0,0,0,0-.81c-.14-.7.32-1.32.24-2,0-.29.08-.61-.25-.81.11-1.14.21-2.28.31-3.42A1.65,1.65,0,0,1,465,212a.78.78,0,0,1,.38.8c0,.9.1,1.8.08,2.71a47.75,47.75,0,0,0,.07,5.48C465.71,222.38,465.6,223.78,465.61,225.16Z" transform="translate(-375.29 -201.65)"/>
      <path class="cls-5" d="M478.94,244.51c-.35.26-.77.13-1.16.17a24.24,24.24,0,0,1-1.11-4.44c-.31-1.51-.47-3.05-.67-4.58a1,1,0,0,1,.08-.81c.29,0,.34.21.41.43.42,1.37.69,2.77,1,4.16C478,241.14,478.47,242.82,478.94,244.51Z" transform="translate(-375.29 -201.65)"/>
      <path class="cls-12" d="M466,241.55c.08-.58.53-.35.85-.37s.28.22.22.45.09.19.2.19.34-.07.33-.27c0-.41.19-.31.41-.21l.54,2.6c-.42.56-.45-.26-.8-.19.17.44-.23.74-.29,1.15a.44.44,0,0,1-.58.32c-.63-.35-1.32,0-1.95-.26-.16-.06-.23.09-.35.14-.33.15-.56-.09-.79-.27a.2.2,0,0,1-.06-.15c0-.12.11-.28.16-.25.7.38.37-1.33,1.2-.59.23.2.4.09.6,0a5.42,5.42,0,0,1,.61.83c.2-.67-.22-1.22-.13-1.8-.15-.33.25-.73-.14-1Z" transform="translate(-375.29 -201.65)"/>
      <path class="cls-13" d="M443,213.16a6.33,6.33,0,0,1,1.43,2.15,29.94,29.94,0,0,0,3.64,6,4.1,4.1,0,0,1,.59,1.16.27.27,0,0,1-.2.38,5.87,5.87,0,0,1-1.57-1.92c-.3-.58-.9-1-1.22-1.62-.08-.17-.26-.31,0-.48a3.27,3.27,0,0,0-.64-.7l-.05,0,0-.06c-.11-.6-.56-1-.72-1.62a4.63,4.63,0,0,0-.59-.94,1.72,1.72,0,0,0-.35-.67c-.16-.35-.18-.77-.54-1-.08,0-.13-.09-.11-.19S442.76,213.26,443,213.16Z" transform="translate(-375.29 -201.65)"/>
      <path class="cls-13" d="M435.46,261.51c1,1.68,2.16,3.3,3.24,4.94a20.08,20.08,0,0,1,1.34,2.17c.3.6.31.6-.39.59-.14-.2-.32-.35-.46-.56-1.43-2.18-2.57-4.52-3.89-6.77l-.22-.35A.26.26,0,0,1,435.46,261.51Z" transform="translate(-375.29 -201.65)"/>
      <path class="cls-14" d="M477.92,271.88a2.86,2.86,0,0,0,1-.82,2.4,2.4,0,0,1,.78,1c.13.47.19.85-.28,1.16a.47.47,0,0,0-.12.73c.3,0,.47-.29.72-.4s.2-.23.34-.09,0,.29-.13.39a1.56,1.56,0,0,0-.43.69c-.07.23-.28.36-.05.65s-.33.48-.24.81C478.88,274.67,478.43,273.26,477.92,271.88Z" transform="translate(-375.29 -201.65)"/>
      <path class="cls-15" d="M449,320.18c-.2.39-.1.58.35.53,0,.15-.05.23-.16.3s-.39.12-.58.19a6.52,6.52,0,0,1-1.31.22,1.7,1.7,0,0,0-.77.17.79.79,0,0,1-.34,0,2.33,2.33,0,0,0-1.51.27h0c-.28.09-.62-.26-.85.14a1.57,1.57,0,0,1-1,.16.46.46,0,0,1,0-.64,24.12,24.12,0,0,1,3.82-1C447.38,320.4,448.17,320.31,449,320.18Z" transform="translate(-375.29 -201.65)"/>
      <path class="cls-16" d="M417.66,263.16c-.48,0-.77.17-.72.7q-2-1.59-3.92-3.19c-.15-.13-.43-.26-.29-.5s.47,0,.63.07A36.94,36.94,0,0,1,417.66,263.16Z" transform="translate(-375.29 -201.65)"/>
      <path class="cls-17" d="M464.47,219.33c.08.14.21.29.15.45-.35.8.05,1.59,0,2.38,0,.1-.17.21-.15.29.31,1.13,0,2.29.14,3.42.05.36-.21.55-.35.8a2.27,2.27,0,0,1-.31-1.39q0-2.37,0-4.74a8.42,8.42,0,0,1,.18-1.21A.2.2,0,0,1,464.47,219.33Z" transform="translate(-375.29 -201.65)"/>
      <path class="cls-18" d="M484.64,251.84c.87,0,.31.61.42.92.47.12.32-.44.63-.56a1.85,1.85,0,0,1,.3,1.86.82.82,0,0,0-.07.71.48.48,0,0,1-.39.74c-.25,0-.17.61-.58.34-.06.07-.1.06-.12,0C484.9,254.49,484.6,253.18,484.64,251.84Z" transform="translate(-375.29 -201.65)"/>
      <path class="cls-19" d="M412.1,214.84l-1.2-.72a23.39,23.39,0,0,1-2.9-3.23,6.41,6.41,0,0,1-1.09-1.54.26.26,0,0,1,.21-.09c.58.23.76.86,1.2,1.23a.08.08,0,0,1,.12,0c.19.26.33.57.68.66.91,1.31,2.2,2.27,3.2,3.49A.26.26,0,0,1,412.1,214.84Z" transform="translate(-375.29 -201.65)"/>
      <path class="cls-20" d="M448.42,222.89l.2-.38a27,27,0,0,1,2.49,2.74,8.07,8.07,0,0,0,1,1.15,2.17,2.17,0,0,1,.44.7c.09.23-.13.25-.3.23-.47-.09-.56-.58-.84-.86a26.1,26.1,0,0,1-2.93-3.28A.42.42,0,0,1,448.42,222.89Z" transform="translate(-375.29 -201.65)"/>
      <path class="cls-21" d="M454.31,229.13c.57.25.66.89,1.07,1.29a5.66,5.66,0,0,0,1.07,1,4.16,4.16,0,0,1,1.36,1.91,4.75,4.75,0,0,0,.48.85c.07.16,0,.2-.17.24a.64.64,0,0,1-.56-.42,12.27,12.27,0,0,0-1.34-1.87,2.08,2.08,0,0,0-.74-.79,19.89,19.89,0,0,1-1.51-2A.47.47,0,0,1,454.31,229.13Z" transform="translate(-375.29 -201.65)"/>
      <path class="cls-22" d="M439.82,286.88c.2-.44.71-.53,1-.62a18.13,18.13,0,0,1,4.3-1,1.36,1.36,0,0,1,.32.08c-.19.65-.8.28-1.16.48s-.38.35-.65.35c-1.35,0-2.55.73-3.89.81C439.72,286.94,439.74,286.9,439.82,286.88Z" transform="translate(-375.29 -201.65)"/>
      <path class="cls-23" d="M429.61,286.39c.92.1,1.85.17,2.76.32s2,.24,3,.31a1,1,0,0,1,.69.2q.09,0,.09.06s0,.07,0,.07a32,32,0,0,1-6.48-.52c-.07,0-.13-.09-.2-.14S429.5,286.46,429.61,286.39Z" transform="translate(-375.29 -201.65)"/>
      <path class="cls-24" d="M444.25,272.2a1,1,0,0,0,.88-.86,2.06,2.06,0,0,1,.85.51c-.27,0-.5.08-.46.43.07.6,0,.71-.62.75a.32.32,0,0,0-.27.14,14.81,14.81,0,0,1-2.87-2c.77-.29,1.23.2,1.7.67h0C443.74,271.92,443.93,272.2,444.25,272.2Z" transform="translate(-375.29 -201.65)"/>
      <path class="cls-25" d="M483.16,225.16c.31-.2.62-.17.45.24s0,1.13-.41,1.64c-.2.25-.05.8-.06,1.21s0,.61,0,.91-.23.56-.62.34A12.78,12.78,0,0,1,483.16,225.16Z" transform="translate(-375.29 -201.65)"/>
      <path class="cls-26" d="M467.32,253.64c.05,0,.12,0,.15.06.61.88,1.21,1.76,1.81,2.65-.27.24-.5.09-.71-.09s-.32-.38-.58-.42a17,17,0,0,1-1.46-2.12C466.75,253.27,467.05,253.59,467.32,253.64Z" transform="translate(-375.29 -201.65)"/>
      <path class="cls-27" d="M463.79,248.87a10.86,10.86,0,0,1,2.43,3.16c0,.1.07.21.11.31-.39.15-.55-.33-.89-.33a4.87,4.87,0,0,0-.76-1.22c-.58-.7-1-1.5-1.56-2.27-.08-.2,0-.31.2-.4Z" transform="translate(-375.29 -201.65)"/>
      <path class="cls-28" d="M429.12,272.33a2.68,2.68,0,0,1,1,.18,19.22,19.22,0,0,0,3.58,1.84c.2.06,0,.22,0,.33a1.78,1.78,0,0,1-1-.33,22.18,22.18,0,0,1-3.51-1.85.13.13,0,0,1,0-.11S429.11,272.33,429.12,272.33Z" transform="translate(-375.29 -201.65)"/>
      <path class="cls-29" d="M456.28,232c.82.61,1.13,1.63,1.82,2.35.54.36.63,1,1,1.48h0c.05.3.39.65-.16.84-.86-1.55-1.89-3-2.85-4.49C456,232,456.13,232,456.28,232Z" transform="translate(-375.29 -201.65)"/>
      <path class="cls-30" d="M478,245.51c.31.17.65.28.66.75a1,1,0,0,0,.46.76c.7.37.5.8.2,1.29-.07.12-.12.25-.18.37A14.29,14.29,0,0,1,478,245.51Z" transform="translate(-375.29 -201.65)"/>
      <path class="cls-31" d="M430.1,227.19a1.47,1.47,0,0,1,1.26.16c.56.37,1.3.44,1.75,1,.05.15,0,.22-.15.28l-.34,0A6.91,6.91,0,0,1,430.1,227.19Z" transform="translate(-375.29 -201.65)"/>
      <path class="cls-9" d="M461.3,310.37c0,.24.49.08.42.38s-.33.14-.48.22c-.44.2-.92,0-1.34.22-.06,0-.21,0-.23,0-.54-.82-1.38-.33-2.07-.48a.3.3,0,0,1,.28-.13A26.14,26.14,0,0,0,461.3,310.37Z" transform="translate(-375.29 -201.65)"/>
      <path class="cls-32" d="M483.16,234.5a6.59,6.59,0,0,1,.25,2.29c-.09.37.17.69.06,1h0a.21.21,0,0,1-.33,0,13.53,13.53,0,0,1-.34-3C482.68,234.52,482.76,234.36,483.16,234.5Z" transform="translate(-375.29 -201.65)"/>
      <path class="cls-22" d="M429.12,272.33v.17a3.25,3.25,0,0,1-1.4-.76c-.35-.26-.74-.45-1.1-.68,0-.4.16-.5.51-.38A6.26,6.26,0,0,1,429,272C429.13,272.11,429.11,272.23,429.12,272.33Z" transform="translate(-375.29 -201.65)"/>
      <path class="cls-33" d="M464.47,219.33h-.31a11,11,0,0,1,.16-2.69c.27-.17.51-.19.46.21-.07.64.15,1.31-.26,1.91C464.42,218.89,464.48,219.14,464.47,219.33Z" transform="translate(-375.29 -201.65)"/>
      <path class="cls-34" d="M459,236.67c.32-.23.08-.57.16-.84.8.64.74,1.68,1.18,2.49,0,.31-.13.28-.32.19Z" transform="translate(-375.29 -201.65)"/>
      <path class="cls-19" d="M412.1,214.84a.34.34,0,0,1,.22-.2c.74.75,1.6,1.38,2.29,2.18.05.15,0,.21-.16.17A7,7,0,0,1,412.1,214.84Z" transform="translate(-375.29 -201.65)"/>
      <path class="cls-35" d="M461.63,317.69c.31-.43.59-.12.87,0a12.45,12.45,0,0,1-3,1.73c-.18-.46.12-.6.45-.78A4.74,4.74,0,0,0,461.63,317.69Z" transform="translate(-375.29 -201.65)"/>
      <path class="cls-36" d="M471.3,259.35a6.85,6.85,0,0,1,1,1.32c-.11.23-.26.35-.51.18a6,6,0,0,1-1.19-1.47c-.17-.41.07-.42.36-.38S471.11,259.31,471.3,259.35Z" transform="translate(-375.29 -201.65)"/>
      <path class="cls-37" d="M465.44,252c.45-.29.57.3.89.33.57.25.53,1,1,1.3-.24.27-.56-.27-.79.08A17,17,0,0,1,465.44,252Z" transform="translate(-375.29 -201.65)"/>
      <path class="cls-38" d="M475,265.52l-1.86-2.8c-.09-.15,0-.21.13-.25s.34.18.49.3c.48.31.61.85.87,1.31a4.52,4.52,0,0,1,.62,1.09.43.43,0,0,1-.05.35A.13.13,0,0,1,475,265.52Z" transform="translate(-375.29 -201.65)"/>
      <path class="cls-39" d="M483.16,234.5a.34.34,0,0,0-.37.37,15.22,15.22,0,0,1-.27-2.86.6.6,0,0,1,.47.68C483.29,233.27,483.07,233.9,483.16,234.5Z" transform="translate(-375.29 -201.65)"/>
      <path class="cls-40" d="M464.29,226.67c.52.36.49,1,.56,1.49a8.22,8.22,0,0,1,0,1.11c-.28.11-.19-.25-.36-.25-.26-.58-.11-1.24-.36-1.83C464.05,227,464.23,226.84,464.29,226.67Z" transform="translate(-375.29 -201.65)"/>
      <path class="cls-41" d="M483.13,229.84a10.19,10.19,0,0,1-.14,1.83.41.41,0,0,1-.48.16,11.3,11.3,0,0,1,0-1.84C482.65,229.7,482.85,229.62,483.13,229.84Z" transform="translate(-375.29 -201.65)"/>
      <path class="cls-42" d="M461.63,317.69a.52.52,0,0,1-.42.55c-.43.12-.76.45-1.18.58a.77.77,0,0,0-.56.64.25.25,0,0,1-.34.07A1.45,1.45,0,0,1,459,319c.14-.27.53-.21.66-.5C460.35,318.41,460.92,317.88,461.63,317.69Z" transform="translate(-375.29 -201.65)"/>
      <path class="cls-43" d="M468,255.84c.12,0,.14-.45.38-.06a.92.92,0,0,0,.91.57,2.55,2.55,0,0,1,.38.82.42.42,0,0,1-.37.36Z" transform="translate(-375.29 -201.65)"/>
      <path class="cls-44" d="M483.13,237.84h.33c0,.32.25.55.34.84-.24.29-.06.57,0,.84a.81.81,0,0,1-.18.89.22.22,0,0,1-.22,0A14.3,14.3,0,0,1,483.13,237.84Z" transform="translate(-375.29 -201.65)"/>
      <path class="cls-45" d="M451,320.73l1.88-.16c0,.36-.38.19-.44.43l.4.05c-.53.34-1.12.11-1.68.14C450.91,321.09,450.79,321,451,320.73Z" transform="translate(-375.29 -201.65)"/>
      <path class="cls-46" d="M442.79,321.55v.64a1.81,1.81,0,0,1-1.64-.12A3,3,0,0,1,442.79,321.55Z" transform="translate(-375.29 -201.65)"/>
      <path class="cls-6" d="M476.65,268.68c.69-.14.77-.13.72.5s.49.92.07,1.41A10,10,0,0,1,476.65,268.68Z" transform="translate(-375.29 -201.65)"/>
      <path class="cls-47" d="M443.46,271.86c-.61-.11-1-.74-1.7-.67-.1,0-.15,0-.14-.14s0-.61.38-.43.83.52,1.29.71C443.48,271.41,443.45,271.67,443.46,271.86Z" transform="translate(-375.29 -201.65)"/>
      <path class="cls-48" d="M457.79,319.73c.21-.29.69-.14.84-.52a.41.41,0,0,1,.35.34l-1.85,1.5c-.21-.31,0-.5.2-.71A2.09,2.09,0,0,0,457.79,319.73Z" transform="translate(-375.29 -201.65)"/>
      <path class="cls-49" d="M471.81,260.85c.2,0,.34-.12.51-.18.48.27.6.84,1,1.17a.45.45,0,0,1-.39.24c-.25,0-.32-.34-.56-.39A1.35,1.35,0,0,1,471.81,260.85Z" transform="translate(-375.29 -201.65)"/>
      <path class="cls-50" d="M475.66,265.68a1.33,1.33,0,0,1,.47,1.85,5.47,5.47,0,0,1-.64-1.19c.1-.23-.28-.45,0-.7A.17.17,0,0,1,475.66,265.68Z" transform="translate(-375.29 -201.65)"/>
      <path class="cls-51" d="M422.28,223c.43-.29.58.17.76.35a1.92,1.92,0,0,0,1.3.7c-.16.23-.42.05-.53.25a7,7,0,0,1-1.37-.82C422.37,223.32,422.16,223.21,422.28,223Z" transform="translate(-375.29 -201.65)"/>
      <path class="cls-52" d="M444.31,285.84c.32-.32.89,0,1.16-.48a2.25,2.25,0,0,1,1.85,0A15.45,15.45,0,0,1,444.31,285.84Z" transform="translate(-375.29 -201.65)"/>
      <path class="cls-53" d="M471,259c-.08.16-.44.06-.36.38l-1-1.37a.42.42,0,0,1,.52,0C470.64,258.17,470.76,258.62,471,259Z" transform="translate(-375.29 -201.65)"/>
      <path class="cls-54" d="M441.63,211.31c.11,0,.15-.06.18-.14a.22.22,0,0,1,.32,0,1.94,1.94,0,0,1,.69,1.35c-.32.24-.32.24-.72-.37C442.08,211.78,441.66,211.66,441.63,211.31Z" transform="translate(-375.29 -201.65)"/>
      <path class="cls-55" d="M454.31,229.13a.31.31,0,0,1-.34.2c-.2-.41-.74-.54-.84-1s0-.51.37-.27A2.84,2.84,0,0,1,454.31,229.13Z" transform="translate(-375.29 -201.65)"/>
      <path class="cls-56" d="M442.1,212.12c.29,0,.32.56.72.37.23.19.11.45.14.67s0,.44-.32.48C442.5,213.12,442.1,212.69,442.1,212.12Z" transform="translate(-375.29 -201.65)"/>
      <path class="cls-57" d="M435.46,261.51l-.38,0a10.54,10.54,0,0,1-.77-1.54c.6,0,.68.54.84.89S435.39,261.29,435.46,261.51Z" transform="translate(-375.29 -201.65)"/>
      <path class="cls-58" d="M408.32,210.49c-.6-.18-.77-.81-1.22-1.15-.18-.17-.4-.33-.17-.61A4.35,4.35,0,0,1,408.32,210.49Z" transform="translate(-375.29 -201.65)"/>
      <path class="cls-59" d="M433.63,274.68a8.66,8.66,0,0,1,1.6.15c.3.11.42.22.24.51A7,7,0,0,1,433.63,274.68Z" transform="translate(-375.29 -201.65)"/>
      <path class="cls-60" d="M449.13,320.89l.17-.18,1,0c.23.27.13.47-.15.61l-.83.07C449.42,321.18,449,321.11,449.13,320.89Z" transform="translate(-375.29 -201.65)"/>
      <path class="cls-61" d="M424.11,268.82c.3.13.51.4.81.53s.3.35,0,.5a3.52,3.52,0,0,1-1-.61C423.83,269,423.82,268.86,424.11,268.82Z" transform="translate(-375.29 -201.65)"/>
      <path class="cls-30" d="M479.43,245.84c-.3,0-.64.06-.76-.31a.52.52,0,0,1,.36-.71A4.24,4.24,0,0,1,479.43,245.84Z" transform="translate(-375.29 -201.65)"/>
      <path class="cls-62" d="M483.41,240.36h.23c.33.34.3.82.44,1.23a1,1,0,0,1,0,.24.68.68,0,0,1-.29.52c0,.18,0,.37,0,.56A15.74,15.74,0,0,1,483.41,240.36Z" transform="translate(-375.29 -201.65)"/>
      <path class="cls-63" d="M451.78,311.18c0-.13-.17-.22-.11-.38.34,0,.65.18,1,.13s.23.27.28.45A2.09,2.09,0,0,1,451.78,311.18Z" transform="translate(-375.29 -201.65)"/>
      <path class="cls-64" d="M457.47,320.38c-.11.23-.39.37-.34.67-.15.31-.44.11-.66.18.13-.46.28-.9.81-1A.2.2,0,0,1,457.47,320.38Z" transform="translate(-375.29 -201.65)"/>
      <path class="cls-65" d="M444.29,216.32c.2.59.82,1,.66,1.74a5.71,5.71,0,0,1-.84-1.53C444,216.33,444.13,216.29,444.29,216.32Z" transform="translate(-375.29 -201.65)"/>
      <path class="cls-66" d="M484.83,255.83l.12,0c0,.28,0,.55,0,.83v1.65c-.41-.24-.36-.54-.34-.83C485,257,484.64,256.37,484.83,255.83Z" transform="translate(-375.29 -201.65)"/>
      <path class="cls-67" d="M465.29,231.51c.3.32.19.75.31,1.13.06.16-.16.17-.28.2a4.49,4.49,0,0,1-.32-1.18.36.36,0,0,1,.21-.15Z" transform="translate(-375.29 -201.65)"/>
      <path class="cls-68" d="M414.45,217l.16-.17c.42.06.5.53.83.69.09.17.2.41-.15.29A1.62,1.62,0,0,1,414.45,217Z" transform="translate(-375.29 -201.65)"/>
      <path class="cls-69" d="M450.13,321.35a.83.83,0,0,0,.15-.61H451a.85.85,0,0,0,.16.46A1.19,1.19,0,0,1,450.13,321.35Z" transform="translate(-375.29 -201.65)"/>
      <path class="cls-46" d="M444.63,321.89a1.14,1.14,0,0,1,1.51-.33c.05,0,.06.07,0,.1s0,0-.05,0A7.52,7.52,0,0,1,444.63,321.89Z" transform="translate(-375.29 -201.65)"/>
      <path class="cls-70" d="M470.16,258h-.52a1.13,1.13,0,0,1-.35-.48.6.6,0,0,1,.37-.36Z" transform="translate(-375.29 -201.65)"/>
      <path class="cls-71" d="M427.28,286.18c0-.12,0-.28.14-.24.36.1.77.09,1,.44,0,0,.06.06.05.09l-.05,0A2.28,2.28,0,0,1,427.28,286.18Z" transform="translate(-375.29 -201.65)"/>
      <path class="cls-72" d="M482.51,231.83a.81.81,0,0,1,.48-.16c.15.34.29.68,0,1a1.89,1.89,0,0,1-.47-.68Z" transform="translate(-375.29 -201.65)"/>
      <path class="cls-73" d="M463.32,248.12c-.06.14-.13.27-.2.4a5.81,5.81,0,0,1-.79-1C462.92,247.29,463,247.92,463.32,248.12Z" transform="translate(-375.29 -201.65)"/>
      <path class="cls-74" d="M428.45,286.52v-.14c.39-.41.77,0,1.16,0l-.16.3A1.59,1.59,0,0,1,428.45,286.52Z" transform="translate(-375.29 -201.65)"/>
      <path class="cls-75" d="M469.63,313.87c.28-.56.56,0,.84,0-.09.19-.28.21-.43.3s-.2.09-.07.21a.36.36,0,0,1-.34.13v-.3C469.52,314.1,469.63,314,469.63,313.87Z" transform="translate(-375.29 -201.65)"/>
      <path class="cls-76" d="M464.77,230.2c.23-.18.51-.19.52.14s.2.78,0,1.17h0c-.5-.08-.18-.62-.46-.82Z" transform="translate(-375.29 -201.65)"/>
      <path class="cls-77" d="M466,241.84l.21.11c.35.19.68.37,0,.64-.06,0-.07.18-.11.28A1.83,1.83,0,0,1,466,241.84Z" transform="translate(-375.29 -201.65)"/>
      <path class="cls-78" d="M436.13,287.35l-.06-.13.72-.23a1.72,1.72,0,0,1,.86.22Z" transform="translate(-375.29 -201.65)"/>
      <path class="cls-79" d="M465.49,234.16c.51.28.54.53.13,1A1.39,1.39,0,0,1,465.49,234.16Z" transform="translate(-375.29 -201.65)"/>
      <path class="cls-80" d="M422.75,268.23a.74.74,0,0,1,.92.44c0,.15-.06.23-.23.18C423,268.85,422.92,268.51,422.75,268.23Z" transform="translate(-375.29 -201.65)"/>
      <path class="cls-81" d="M428.78,226.66c0-.23-.34-.27-.31-.53.62,0,.72.06.65.53Z" transform="translate(-375.29 -201.65)"/>
      <path class="cls-82" d="M422.28,223c.05.16.19.29.16.48a1.57,1.57,0,0,1-.83-.47v-.18c.06-.06.08-.17.18-.18C422.07,222.61,422.08,222.92,422.28,223Z" transform="translate(-375.29 -201.65)"/>
      <path class="cls-83" d="M472.37,261.69c.3-.08.42.18.59.34s.44.18.32.49l-.16.2A3.64,3.64,0,0,1,472.37,261.69Z" transform="translate(-375.29 -201.65)"/>
      <path class="cls-84" d="M444.29,216.32l-.18.21a2,2,0,0,1-.47-1C444.05,215.62,444.18,216,444.29,216.32Z" transform="translate(-375.29 -201.65)"/>
      <path class="cls-85" d="M483.13,229.84a.89.89,0,0,0-.63.15,1,1,0,0,1,0-.49c.28,0,.41-.24.62-.34C483.12,229.39,483.12,229.61,483.13,229.84Z" transform="translate(-375.29 -201.65)"/>
      <path class="cls-5" d="M406.93,208.73a1.43,1.43,0,0,0,.17.61h-.19a1.42,1.42,0,0,1-.38-.5c-.06-.11-.16-.26,0-.34S406.89,208.49,406.93,208.73Z" transform="translate(-375.29 -201.65)"/>
      <path class="cls-46" d="M443.79,322c.14-.62.14-.62.85-.14C444.38,322.12,444.08,322,443.79,322Z" transform="translate(-375.29 -201.65)"/>
      <path class="cls-86" d="M449.13,320.89c.15.14.34.28.17.53a.12.12,0,0,1-.19.09l-.27-.12c-.13-.08-.33-.12-.22-.36S448.94,320.89,449.13,320.89Z" transform="translate(-375.29 -201.65)"/>
      <path class="cls-18" d="M488.63,257l0-.7a5.35,5.35,0,0,1,.15,1.87C488.48,257.83,488.72,257.4,488.63,257Z" transform="translate(-375.29 -201.65)"/>
      <path class="cls-87" d="M460.79,239a1,1,0,0,1-.18.71,2.46,2.46,0,0,1-.44-.85C460.44,238.62,460.6,238.87,460.79,239Z" transform="translate(-375.29 -201.65)"/>
      <path class="cls-88" d="M460.79,239l-.62-.14c-.07-.11-.2-.19-.18-.34a.3.3,0,0,0,.32-.19C460.41,238.59,460.94,238.55,460.79,239Z" transform="translate(-375.29 -201.65)"/>
      <path class="cls-89" d="M427.12,270.68a.47.47,0,0,0-.51.38,1.08,1.08,0,0,1-.5-.37A.77.77,0,0,1,427.12,270.68Z" transform="translate(-375.29 -201.65)"/>
      <path class="cls-90" d="M459,319.55a.54.54,0,0,1-.35-.34A.3.3,0,0,1,459,319c.45,0,.3.26.18.49Z" transform="translate(-375.29 -201.65)"/>
      <path class="cls-91" d="M417.79,219.18c-.36.64-.49-.08-.79-.05.16-.2.4-.1.45-.31C417.7,218.82,417.56,219.17,417.79,219.18Z" transform="translate(-375.29 -201.65)"/>
      <path class="cls-92" d="M442.75,213.83c.66.07.53.57.54,1C443,214.58,443,214.15,442.75,213.83Z" transform="translate(-375.29 -201.65)"/>
      <path class="cls-93" d="M449,321.38l.15.13-1.46.05c-.11.07-.18,0-.22-.08A1.5,1.5,0,0,1,449,321.38Z" transform="translate(-375.29 -201.65)"/>
      <path class="cls-94" d="M487.25,307.17c.3.23.06.42-.1.49s-.33-.08-.35-.31A.5.5,0,0,1,487.25,307.17Z" transform="translate(-375.29 -201.65)"/>
      <path class="cls-95" d="M464.84,230.68c.25,0,.29.19.3.39s0,.33.16.43c0,.16-.17.16-.3.16C465,231.32,464.73,231,464.84,230.68Z" transform="translate(-375.29 -201.65)"/>
      <path class="cls-96" d="M445,218.17c.47,0,.59.31.64.7C445.16,218.87,445.16,218.44,445,218.17Z" transform="translate(-375.29 -201.65)"/>
      <path class="cls-78" d="M439.82,286.88l-.05.12a4.13,4.13,0,0,0-1.31.15C438.82,286.61,439.36,286.93,439.82,286.88Z" transform="translate(-375.29 -201.65)"/>
      <path class="cls-97" d="M409.12,211.15c-.48,0-.54-.05-.68-.66C408.76,210.61,408.91,210.9,409.12,211.15Z" transform="translate(-375.29 -201.65)"/>
      <path class="cls-98" d="M456.28,232l-.16.17-.64-.84C455.91,231.37,456.1,231.68,456.28,232Z" transform="translate(-375.29 -201.65)"/>
      <path class="cls-99" d="M475.48,265.68c-.09.22.31.44,0,.66a2.9,2.9,0,0,1-.51-.82h.18C475.33,265.45,475.42,265.54,475.48,265.68Z" transform="translate(-375.29 -201.65)"/>
      <path class="cls-100" d="M447.5,321.53l.15,0c-.49.3-1,.11-1.53.13a.51.51,0,0,1,0-.13l.29,0a1.18,1.18,0,0,1,.82-.14A.85.85,0,0,1,447.5,321.53Z" transform="translate(-375.29 -201.65)"/>
      <path class="cls-15" d="M450.46,319.91c-.25.2-.44.7-.83.16C449.91,320,450.15,319.81,450.46,319.91Z" transform="translate(-375.29 -201.65)"/>
      <path class="cls-101" d="M423.44,268.85a.29.29,0,0,0,.23-.18c.16,0,.33,0,.44.15-.16.09-.14.27-.17.42C423.74,269.15,423.52,269.09,423.44,268.85Z" transform="translate(-375.29 -201.65)"/>
      <path class="cls-18" d="M488.64,256.18c-.34-.42-.09-.91-.15-1.37A3,3,0,0,1,488.64,256.18Z" transform="translate(-375.29 -201.65)"/>
      <path class="cls-102" d="M433,228.64l.15-.28a.85.85,0,0,1,.57,0l3.63,1.9c.1.06.13.17.11.34a3,3,0,0,1-1.76-.69A11.54,11.54,0,0,0,433,228.64Z" transform="translate(-375.29 -201.65)"/>
      <path class="cls-103" d="M459.14,235.84c-.69-.26-.67-1-1-1.48l.19-.18A3.12,3.12,0,0,1,459.14,235.84Z" transform="translate(-375.29 -201.65)"/>
      <path class="cls-104" d="M461.16,239.75c.25.21.51.37.59.68a.24.24,0,0,1-.1.28c-.13.07-.19,0-.25-.11A1,1,0,0,1,461.16,239.75Z" transform="translate(-375.29 -201.65)"/>
      <path class="cls-105" d="M439.37,231.59a.34.34,0,0,1,.4-.13c.21,0,.43.09.35.33s-.3,0-.45,0A1.2,1.2,0,0,1,439.37,231.59Z" transform="translate(-375.29 -201.65)"/>
      <path class="cls-106" d="M421.8,222.64a.24.24,0,0,1-.18.18c0-.38-.54-.36-.56-.81C421.37,222.18,421.73,222.22,421.8,222.64Z" transform="translate(-375.29 -201.65)"/>
      <path class="cls-107" d="M442.13,211.14l-.32,0c0-.26-.3-.47-.11-.76C442.08,210.52,441.9,211,442.13,211.14Z" transform="translate(-375.29 -201.65)"/>
      <path class="cls-108" d="M443.63,233.5c.31,0,.42.21.69.4C443.78,233.84,443.78,233.84,443.63,233.5Z" transform="translate(-375.29 -201.65)"/>
      <path class="cls-109" d="M418.5,264.52a.38.38,0,0,1,.37.26c0,.12-.05.23-.17.19s-.33-.08-.38-.24S418.38,264.54,418.5,264.52Z" transform="translate(-375.29 -201.65)"/>
      <path class="cls-94" d="M489.3,308.29s-.06.17-.11.17c-.26,0-.27-.22-.33-.39s.05-.15.14-.14S489.27,308.09,489.3,308.29Z" transform="translate(-375.29 -201.65)"/>
      <path class="cls-110" d="M484.8,244.17c0,1,.27,2,.34,3a.34.34,0,0,1-.49,0c.1-1.08-.44-2.09-.34-3.16C484.55,243.82,484.68,244,484.8,244.17Z" transform="translate(-375.29 -201.65)"/>
      <path class="cls-111" d="M484,241.69a2.71,2.71,0,0,1-.32-1.34,2.6,2.6,0,0,0-.06-1.3c-.11-.25-.05-.36.22-.38,0,.64.38,1.17.43,1.79,0,.29.07.58.08.88A.6.6,0,0,1,484,241.69Z" transform="translate(-375.29 -201.65)"/>
      <path class="cls-112" d="M484.8,244.17a1,1,0,0,0-.49-.16c0-.43-.23-.82-.18-1.26a.41.41,0,0,0-.32-.41,1,1,0,0,1,.17-.5c.31-.1.33.23.5.33C484.59,242.84,484.69,243.51,484.8,244.17Z" transform="translate(-375.29 -201.65)"/>
      <path class="cls-113" d="M484.65,247.17h.49c.28.51-.07.92-.23,1.43C484.57,248.14,485,247.57,484.65,247.17Z" transform="translate(-375.29 -201.65)"/>
      <path class="cls-114" d="M484.48,242.17c-.27.05-.32-.24-.5-.33,0-.05,0-.1,0-.15,0-.22.11-.36.35-.35C484.58,241.57,484.43,241.89,484.48,242.17Z" transform="translate(-375.29 -201.65)"/>
      <path class="cls-94" d="M484.4,293.67a1,1,0,0,1,.57.95c0,.13,0,.3-.15.34s-.25-.08-.34-.18C484.22,294.47,484.29,294.12,484.4,293.67Z" transform="translate(-375.29 -201.65)"/>
      <path class="cls-115" d="M466.47,315.22a4.33,4.33,0,0,1-1.51.65c-.22-.29.08-.46.17-.67.24-.53.7-.52,1.17-.5A.53.53,0,0,1,466.47,315.22Z" transform="translate(-375.29 -201.65)"/>
      <path class="cls-116" d="M469.63,313.87c.22.11,0,.23,0,.34a6.72,6.72,0,0,1-1.67.17.11.11,0,0,1,0-.11s0-.06,0-.06C468.44,313.67,469.07,313.94,469.63,313.87Z" transform="translate(-375.29 -201.65)"/>
      <path class="cls-111" d="M465.13,315.2l-.17.67c-.45,0-.71.46-1.15.51-.17.05-.22,0-.18-.17A7.59,7.59,0,0,1,465.13,315.2Z" transform="translate(-375.29 -201.65)"/>
      <path class="cls-64" d="M466.47,315.22c-.22-.12-.16-.33-.17-.52a2.2,2.2,0,0,1,.82-.34c.29,0,.29.16.19.36C467,314.9,466.83,315.17,466.47,315.22Z" transform="translate(-375.29 -201.65)"/>
      <path class="cls-116" d="M463.63,316.21l.18.17a1.2,1.2,0,0,1-1,.63.14.14,0,0,1-.12-.18C462.88,316.45,463.32,316.42,463.63,316.21Z" transform="translate(-375.29 -201.65)"/>
      <path class="cls-117" d="M467.31,314.72c0-.15,0-.29-.19-.36.22-.39.54-.25.85-.15v.17C467.85,314.69,467.59,314.72,467.31,314.72Z" transform="translate(-375.29 -201.65)"/>
      <path class="cls-118" d="M475.13,265.19l-.67-1a.47.47,0,0,1,0-.54,1.8,1.8,0,0,1,.83,1.19C475.41,265,475.43,265.19,475.13,265.19Z" transform="translate(-375.29 -201.65)"/>
      <path class="cls-119" d="M474.48,263.65l0,.54a2.82,2.82,0,0,0-.83-1.34.29.29,0,0,1,.39,0h.12C474.25,263.1,474.55,263.3,474.48,263.65Z" transform="translate(-375.29 -201.65)"/>
      <path class="cls-120" d="M475.13,265.19c.16-.07.17-.21.18-.35.37.17.33.52.35.84h-.18l-.32-.16Z" transform="translate(-375.29 -201.65)"/>
      <path class="cls-121" d="M457.47,320.38l-.19-.18a.88.88,0,0,1,.51-.47A.57.57,0,0,1,457.47,320.38Z" transform="translate(-375.29 -201.65)"/>
      <path class="cls-122" d="M474,262.84h-.39a.92.92,0,0,1-.35-.33L473,262c.07-.17.21-.18.36-.19C473.56,262.17,473.79,262.51,474,262.84Z" transform="translate(-375.29 -201.65)"/>
      <path class="cls-123" d="M444.25,272.2c0,.16,0,.44-.19.23s-.52-.28-.61-.58C443.88,271.6,444,272.08,444.25,272.2Z" transform="translate(-375.29 -201.65)"/>
      <path class="cls-85" d="M483.86,223.37c.08-.51.41-.94.5-1.51C484.6,222.28,484.49,222.62,483.86,223.37Z" transform="translate(-375.29 -201.65)"/>
      <path class="cls-119" d="M455,311.27h2.86v.17H455Z" transform="translate(-375.29 -201.65)"/>
      <path class="cls-124" d="M447.5,321.53h-.21c-.09-.09-.26-.14-.17-.32a15,15,0,0,0,1.5-.19l.34.35C448.47,321.46,448,321.2,447.5,321.53Z" transform="translate(-375.29 -201.65)"/>
      <path class="cls-125" d="M447.12,321.22l.17.32h-.86A.6.6,0,0,1,447.12,321.22Z" transform="translate(-375.29 -201.65)"/>
    </g>
  </g>
  <g>
    <polygon class="cls-126" points="37.66 132.75 47.03 138.3 34.44 145.71 37.66 132.75"/>
    <polygon class="cls-126" points="36.24 132.12 32.89 146.34 21.32 138.74 36.24 132.12"/>
    <polygon class="cls-126" points="20.81 123.32 20.81 134.67 20.81 137.44 34.96 131.1 20.81 123.32"/>
    <polygon class="cls-126" points="20.81 140.92 20.81 153.07 24.83 151.14 20.81 140.92"/>
    <polygon class="cls-126" points="26.14 150.69 32.06 147.28 22.16 140.63 26.14 150.69"/>
  </g>
</svg>
