<svg xmlns="http://www.w3.org/2000/svg" viewBox="0 0 288.22 161.74">
  <defs>
    <style>
      .cls-1 {
        fill: #4e372b;
      }
    </style>
  </defs>
  <g id="Layer_2" data-name="Layer 2">
    <g>
      <path class="cls-1" d="M640.43,281.24c-1.85-2.59,1.11,3-3,4.45s-8.9-1.85-7.79-4.08a6.11,6.11,0,0,1,3.13-2.63c-1.57.36-4.93.32-8.69-4.78-5.18-7-5.55-13.34-1.85-13.71s9.64,1.11,9.64,1.11-3.34-2.22-4.45-4.82c-.56-1.3-.08-1.58.66-1.48-13.24-5.85-35.27-17-49.23-31.39-21-21.73-82.16-31.23-105.24-29.88s-5.43,23.09-30.55,29.88-27.16-2.72-31.23-10.87,16.29,4.75,17,6.79,25.12,4.75,24.44-14.93-38.7-41.42-54.31-25.13-12.22-6.78,2-10.86c0,0-12.9,0-17.65-2s17.65-10.18,31.91-5.43,20.37,8.83,20.37,8.83S428.16,156,413.9,149.9s-4.07-10.86,13.58-1.36,12.22,17,14.94,21.05,14.66-16.05,3.8-25.11,10.13-8.88,11.49,11.49-12.61,17.79-12.61,17.79,14.29,16.88,20.4,18.24,94.38,0,113.39,6.11,14.25,17.65,16.29,19c1.66,1.1,31.39,13.53,45.57,19.53-1.83-2.69-4.34-7.77-1.8-12.86,3.12-6.24,7.55-.66,8.87,1.26-.85-1.4-2.52-5,.4-7.93,3.7-3.7,13.71,0,11.12,4.82s-4.82,6.3-4.82,6.3,5.19,7.42,8.15,1.12,7.42,10.37,5.19,10.37-3.34-4.82-3.34-2.22-1.48,7-1.48,8.52,4.82-5.93,5.93-2.22,5.19,22.24-3.34,23-9.26-2.6-9.26-2.6-2.23,5.93-6.67,3.71-5.19-.74-4.82.74,6.3,3.34,6.3,6.3S642.28,283.84,640.43,281.24Z" transform="translate(-382.7 -138.75)"/>
      <path class="cls-1" d="M641.43,285.88s7.62-9.34,9.34-.24S639.47,288.34,641.43,285.88Z" transform="translate(-382.7 -138.75)"/>
      <path class="cls-1" d="M628.9,291.29s12-7.62,11.55,3.93S621.28,296.45,628.9,291.29Z" transform="translate(-382.7 -138.75)"/>
      <path class="cls-1" d="M652.49,187.09s12.78,3.44,3.2,8.84S645.86,185.12,652.49,187.09Z" transform="translate(-382.7 -138.75)"/>
    </g>
  </g>
</svg>
