<svg id="Layer_2" data-name="Layer 2" xmlns="http://www.w3.org/2000/svg" viewBox="0 0 628.26 951.67">
  <defs>
    <style>
      .cls-1, .cls-2 {
        fill: #70b544;
      }

      .cls-1 {
        fill-rule: evenodd;
      }

      .cls-3 {
        fill: #7f3f98;
      }

      .cls-4 {
        fill: #9727e0;
      }
    </style>
  </defs>
  <path class="cls-1" d="M787.33,343.85c-1.6-7.12-7.4-9.1-13.08-11.05-27.93-9.61-56.06-18.64-83.76-28.95-38.17-14.21-76-29.28-114-44.18-45.3-17.79-90.62-35.48-135.74-53.77-45.9-18.6-89.81-41.19-128-74.75-22.24-19.51-42.22-41.13-57.94-67-1.14-1.87-3.61-2.82-6.81-5.19-1.73,10.37,2.35,16.79,6.71,22.28,13,16.38,25.38,33.73,40.28,48,25.22,24.15,53.15,44.66,84,60.36,8.7,4.42,17.82,8.3,25,14.34,1.69,21.28-2,32.88-14.73,46.16-3.25-1.15-6.92-2.38-10.55-3.73C350.81,236,325,221.13,298.89,206.85c-13.89-7.61-28-15.16-40.8-24.53a817.33,817.33,0,0,0-81.88-52.77c-3.57-2-7.22-3.86-10.83-5.79,29.13,31.69,63.84,55.09,97.39,80.11a67,67,0,0,0,8.63,4.88c26.78,14.35,53.45,28.92,80.41,42.9C362,256.9,371,263.39,378.49,272.23c6.62,7.84,8.76,16.9,5.18,27-2.27,6.4-4.06,13.24-11,17.21a380.42,380.42,0,0,1-80.36-14.27c-11.32-3.33-22.61-6.77-34-9.79-3.51-.93-7.31-.58-14.86-1.07,5.12,4,6.84,5.7,8.85,6.88C272.43,310,294,317.69,316.48,322.76c11.46,2.57,22.89,5.28,34.27,8.26,5,1.31,9.76,4.55,14.79,5,25,2.24,48.47,10.05,71,21.39,13.56,6.81,27.48,12.85,40.93,19.91,35.35,18.57,63.2,46,84.23,81.38,14,23.47,25.09,48.44,36.43,73.44,10.68,23.54,16.66,48.08,20.05,73.4,3.76,28,5.51,56.35,8.77,84.44a67.11,67.11,0,0,1-2.4,28.54c-3.06,9.83-5.89,20-6.8,30.24-1.12,12.67-4.73,24.38-8.74,36.06-11.17,32.53-22.88,64.87-33.77,97.5-8.72,26.12-16.58,52.56-24.78,78.86-1.64,5.26-3.62,10.49-4.54,15.9s-.57,11,6.22,14.31c6.35-10.32,13.3-20.34,19-31.13,7.26-13.86,17.69-23.59,30.45-31.33,18.61-11.29,38.87-11.78,58.9-8.91,12.61,1.81,25.85,5.42,35.62,15.71,19.45,20.5,39.43,40.74,42.12,72.29,0,.6.72,1.13,1.74,2.64,6.95-1.71,7-7,7.32-11.67,1.49-20.57,2.75-41.15,4.09-61.73.58-9,1.24-17.95,1.72-26.92,2.12-39.39,5.45-78.76,5.9-118.16s1.12-78.77,3.93-118.11c6.62-93.19,12.78-186.43,19.33-279.63.91-13.05,1.28-26.24,6.14-38.77C789.66,352.43,788.18,347.73,787.33,343.85ZM766.56,356.4c-.42,13.84-7.17,30.66-19.73,49.05-9.49-19.86-24.79-33.26-44.39-46.61C726,356.88,746.06,351.24,766.56,356.4Zm-109.72,1.12c21.16,3.43,41.81,10.87,59.07,25.41,22.48,18.91,27.93,44,16.27,72-5.25,12.63-10.4,25.31-15.9,37.83-1.52,3.48-4.13,6.42-7.44,11.41-2-5-3.55-7.83-4.33-10.92-10.28-40.67-30-74.51-62.48-99.56-13.13-10.14-25.87-20.87-38.71-31.44-1.94-1.59-3.45-3.75-6.81-7.49C618.07,355.59,637.76,354.42,656.84,357.52Zm-75-18.83c-1.05-.08-2-1.47-3.73-2.81,1.07-3.4,2.22-7.06,3.67-11.74,27.68,3.91,54.47,11.27,81.69,16.08l.07-.07.31.16,5.78,1.46c-.15.4-.28.8-.43,1.2l-5.35-2.66-.12,0-.26-.06c-1.49,1.12-2.92,3.42-4.23,3.35C633.43,342.14,607.62,340.45,581.84,338.69Zm56.09-31.81a63.42,63.42,0,0,1,3-6.85c23.94,3,84.39,24.47,107,37.82-17.77.81-89.11-11.6-112.7-20C636.33,313.33,636.94,310,637.93,306.88Zm-61.52-34.64c13.45,5.12,26.92,10.23,40.14,16,11.07,4.79,12.2,8.55,7.56,20.91-.68,1.8-2.31,3.21-4.17,5.74-16.37-1.41-32.29-6.82-49.37-10.7.21-7.72.93-13.26.33-18.63-.5-4.55-2.54-8.91-3.81-13C570.74,268.44,573.74,271.23,576.41,272.24Zm-5.88,51.53c-1,8.58-6.61,11.57-13.65,11.58-11.66,0-23.33-.7-35.19-1.12-3.55-8.94-6.76-17-10-25.09C528.59,308.71,556.29,315.58,570.53,323.77Zm-65-79.81c11,4.33,21.75,9.25,32.76,13.5,9.24,3.56,15,10,18.5,19.77,4.7,13.26,2.57,20-14.2,20.22a7.47,7.47,0,0,1-1.92-.27c-3.18-.75-6.36-1.47-9.52-2.28-18.9-4.91-37.79-9.85-58.33-15.21,8.33-13.82,15.25-25.32,22.9-38C498.34,242.24,502.12,242.61,505.55,244Zm-88-33.27c.5-.16,1.92-1.19,2.83-.83,17.09,6.8,34.16,13.63,51.15,20.72,8.12,3.4,9.53,7.74,5.95,16.21-3.27,7.75-8,14.2-14.79,18.87s-14,6.7-22.18,3.32c-11.42-4.73-23.55-7.6-34.5-13.17C410.07,240.05,413.77,225.56,417.58,210.69Zm8.85,98.4c-10.28,5.84-20.89,10.75-34,9,1.79-8.82,4.32-16.75,4.75-24.82.38-7.22-1.56-14.59-2.62-23.06l36.56,12.89c.6,4.66,1.45,9.33,1.72,14A12.46,12.46,0,0,1,426.43,309.09Zm4.77,15.8c4.59-6.87,9.14-11.74,11.41-17.6,2.1-5.42,1.76-11.9,2.59-18.72,3.11.59,5.56.86,7.92,1.52,11.9,3.35,24,6.19,35.61,10.4,10.1,3.66,13.43,14.11,16.9,23.63.52,1.4-2,4.68-3.73,6.19-1.28,1.1-3.72,1.09-5.59.92C475.15,329.24,454,327.13,431.2,324.89Zm22,19.6c7.07-.4,10.23-.95,13.33-.69,29.2,2.5,58.38,5.29,87.58,7.65,8.62.7,16.59,2.47,23.83,7.82,10.67,7.88,21.79,15.07,32.33,23.13,9.5,7.26,18.32,15.54,27.73,23,16.56,13,28.2,30.06,38.42,48.92,12,22.12,16.15,46.58,21.82,70.64,1.16,4.91,0,11.11-1.84,16-4.95,13.48-10.81,26.58-16.25,39.68-4.81.89-5.86-2.68-6.43-6-4-23.41-14.88-43.84-24.28-65.05-16.71-37.7-43.08-67.27-70-96.29-15.65-16.86-35.38-28.16-55.63-37.74C501.86,365.15,479.39,355.93,453.23,344.49ZM615.15,545.18C600.91,509.41,584.61,474.67,564,442.5c-9.58-14.95-21.83-27.48-34.85-39.19-5.19-4.66-11.58-8.5-15.81-17.71,6.93,2.44,12,3.39,16.34,5.89,27.74,16.18,52.21,36.54,71,64,3.45,5,7.36,9.71,11.28,14.36,17.2,20.4,27.16,45.11,38.52,69.28C658.8,556.85,661.19,576,667.79,594a26.15,26.15,0,0,1,.22,18.22c-7.67,22.11-15.33,44.23-23.18,66.27-.59,1.66-2.58,2.76-4.74,4.94-5-11.72-4.08-23.5-5.33-34.93C630.94,613.49,628.26,578.11,615.15,545.18ZM740.44,941.23c-.42,6-2.08,10.76-8.38,12-39.88-57.25-103.15-58.91-152.25-25.51,0-3.26-.69-5.78,0-7.8,10.74-31.89,21.71-63.69,32.49-95.57,3.93-11.61,11.36-19.62,20.92-26.33,13.06-9.17,25.72-18.71,41.75-21.53,17.31-3,31.9,4,45.77,13.27,2.89,1.95,5,6.48,5.94,10.26,6.16,24,11.65,47.92,13,73.06C740.93,895.83,742.08,918.47,740.44,941.23Zm7.13-128.42c.16,1.8-.9,3.73-2.3,9-2.72-9.48-5.18-15.76-6.26-22.3-2.29-13.81-10.68-21.54-21.84-27.1-27.85-13.9-54.24-11.25-79.33,7.54-2.36,1.76-5.24,2.75-7.43,3.87-3.5-3.65-1.81-6.38-1-8.74,9.05-26.69,18.34-53.29,27.35-80a32.47,32.47,0,0,1,11.56-16.18,188.41,188.41,0,0,0,16.76-14.21c9.12-8.77,19.54-9.75,31-7.26,17.4,3.76,27.19,15.32,30.45,33.34a89.69,89.69,0,0,1,1.67,20.52C746.29,745.11,744.59,778.93,747.57,812.81Zm4.31-155.22c-.09,1.18-1.19,2.28-2.85,5.22-10.6-13.82-25.17-17-39-18.07-14.13-1.06-28.2,3.31-38.93,21.52-.42-7.36-1.06-9.31-.53-10.77,8-21.85,16-43.68,24.41-65.36a23.32,23.32,0,0,1,7-9.52A177.34,177.34,0,0,1,724.92,565a28.66,28.66,0,0,1,14.83-3.16c7.63.45,13.7,4.36,14.81,13.52.75,6.1,2.24,12.26,1.91,18.29C755.31,615,753.53,636.29,751.88,657.59Zm6.7-105c-8-1.27-16.2-3.92-24.21-3.44-7.41.44-14.63,4.25-22.26,6.68-2.86-1.79-1.24-4.73-.42-7,4.23-11.56,8.32-23.21,13.24-34.45,7.1-16.23,10.69-18,30.67-16.33C760.53,516.53,764.5,533.73,758.58,552.57Zm4.55-67.08c-4.18.24-8.6.75-13,.69-3.82-.05-7.63-.73-11.38-1.12,0-2-.41-3.56,0-4.74,9.06-24.75,18.21-49.47,27.45-74.44,1.21,1.36,2.64,2.21,2.72,3.18C769.92,421.5,766.44,466.8,763.13,485.49Z" transform="translate(-160.63 -59)"/>
  <g>
    <path class="cls-2" d="M219.86,160.09A11.8,11.8,0,0,1,217.6,162V925.37h5.12V156.13C221.76,157.41,220.83,158.9,219.86,160.09Z" transform="translate(-160.63 -59)"/>
    <g>
      <path class="cls-3" d="M233.48,916.26s0-24.3-15.39-18.63S212,919.9,212,919.9s-17.41,36.44,22.67,44.54C234.69,964.44,259,945,233.48,916.26Z" transform="translate(-160.63 -59)"/>
      <path class="cls-4" d="M210.53,921.81c-6.56-5.12-24.91-18.88-30.93-21.1-5.48-2-13.85,1.55-16.62,3.09l-2.35-4.23c.49-.28,12-6.57,20.64-3.4,8,2.93,31.25,21.05,32.24,21.83Z" transform="translate(-160.63 -59)"/>
      <path class="cls-4" d="M165.75,942.43l-4.65-1.32c.27-1,6.71-23.17,20.06-23.62,12-.44,29.57,8,30.3,8.33l-2.13,4.35c-.17-.08-16.79-8.2-28-7.85C173.14,922.6,167.31,936.93,165.75,942.43Z" transform="translate(-160.63 -59)"/>
      <path class="cls-4" d="M170.58,972.91,166,971.36c1.34-4,13.32-39,29.09-38.49,13.42.39,16.61,3.35,16.91,5.76l-4.8.6a1.38,1.38,0,0,0,.26.74s-1.88-2-12.51-2.27C185.76,937.37,175.21,959.17,170.58,972.91Z" transform="translate(-160.63 -59)"/>
      <path class="cls-4" d="M184.11,985.36c-.13-1.13-2.86-27.62,15.12-32.56l16.2-4.45,1.28,4.66-16.2,4.45c-14,3.86-11.62,27.13-11.6,27.37Z" transform="translate(-160.63 -59)"/>
      <path class="cls-4" d="M236.69,919.37l-4.81-.55c4.58-40.34,28.94-49.05,30-49.39l1.56,4.57C262.5,874.33,240.9,882.26,236.69,919.37Z" transform="translate(-160.63 -59)"/>
      <path class="cls-4" d="M236.84,929.52l-4.3-2.23c.46-.88,11.2-21.48,19.07-29.35,8.76-8.75,30.87,8.1,35.21,11.57l-3,3.78c-9.39-7.51-24.55-16.15-28.77-11.92C247.69,908.7,237,929.31,236.84,929.52Z" transform="translate(-160.63 -59)"/>
      <path class="cls-4" d="M286.17,937.54c-8.17-7-23.6-16.91-30.22-13.82-10,4.63-19,13.6-19.14,13.68L233.39,934c.39-.4,9.73-9.68,20.53-14.67,11.57-5.37,33,12.48,35.39,14.53Z" transform="translate(-160.63 -59)"/>
      <path class="cls-4" d="M282.45,952.85c-.86-.79-21.22-19.24-41.66-7l-2.48-4.16c23.53-14.12,47.19,7.38,47.43,7.59Z" transform="translate(-160.63 -59)"/>
    </g>
  </g>
</svg>
