<svg id="Layer_1" data-name="Layer 1" xmlns="http://www.w3.org/2000/svg" viewBox="0 0 848.11 885">
  <defs>
    <style>
      .cls-1 {
        fill: #f1f2f2;
      }

      .cls-2 {
        fill: #7f3f98;
      }

      .cls-3 {
        fill: #939;
      }
    </style>
  </defs>
  <g>
    <path class="cls-1" d="M882.21,489.07l71-21.64-3.85-12.66L869.84,479c-57.17-13.77-99-51.42-123.93-112.51-14.33-35-18.95-68.39-20.41-84.09l93.56-158.08-11.4-6.74L722.11,262.14l-7.8,5.7c-108.92,79.57-252.62,15.63-277.09,3.73L412.88,199.7,400.34,204,424,273.72c-2.25,6.42-59.11,165.6-163.48,226.87l-3.73,2.19L108.66,461.85l-3.52,12.76,61.74,17.06-6,4c1.26,1.89,124.26,188.12,101.9,291.69l-55.19,41.9,8,10.54,120.62-91.56.46.07c1.86.28,185.66,28.86,199,113.42l1.8,11.39c4.21,124.06,7.78,126.79,10.24,128.53l6.12.91-2.17-6.48.55-1.07,5.17-1.68c-2.25-6.91-4.69-61.34-6.93-133.17,12.17-18.27,68.93-95.95,149-92.77l147.15,155,9.61-9.12L778,830.84l3.26-1.63c-64-127.9,97.55-335.77,99.19-337.85ZM846.89,486l-78.24,23.83c-7.34-4.25-120-70.76-98.91-129.75l3.12-8.72,41.73-70.53C722.27,350,749.87,451.1,846.89,486ZM347.52,723c8.22-75.77-38.46-160.09-63.49-199l92.75,25.63-.09.14c.72.5,71.79,50.39,52.16,111.46l0,0ZM616.76,466.13c2.47,31.69,24.87,63.71,36.87,78.73l-101.82,31ZM538.87,571.74,495.23,442.89c34.26,30.34,82.81,23.25,110.83,15.33ZM616.3,440.91c-20.53,7.5-86.3,26.91-121.25-17.22l-6.27-7.92-1.67,3.13-12.43-36.71c47.13,14.7,137.62,7.65,174,3.95ZM527.15,577.46l-117-32.32c27.36-18.68,57.77-66.05,74.12-93.94ZM406.31,557.82,522.77,590,445,649C449.72,609.77,425.6,577.14,406.31,557.82Zm124.74,42.51c.67,37.81,1.33,72,2,103-21.07-28.87-57.53-40-79.45-44.22Zm13.31,3.74,68.79,72.45c-26.16,1.61-51.62,18.93-66.7,31.42C545.66,672.1,545,636.65,544.36,604.07Zm5.25-13.69,95-28.93c-22.54,31.6-23.92,78.93-22.6,105.14Zm86.92,91.53c-1.52-13-9.45-96.94,33.2-127.41l1.72-1.23L735,533.9c-55.77,62.31-47.69,165.21-41.14,208.42Zm30.82-141.24c-11.24-13.45-46.58-59.41-35.59-94.23l3.83-12.13,18.94-32c5.89,50.07,70.84,96,97.16,112.68ZM706.21,289l-49.08,82.93c-26.93,3-145.57,14.65-187.92-5.88L443,288.77C485.5,307.12,605.93,349.19,706.21,289Zm-275.48,4.48,47.87,141c-19.14,33.82-59.82,97.71-86,104.93a14.55,14.55,0,0,1-1.95.36L274.33,507.62C361.69,451.89,414,335.8,430.73,293.47ZM175.61,494.09l88.88,24.55c20.27,29.67,85.09,132.94,67.94,215.84l-54.5,41.38C288,675.41,195.8,525.49,175.61,494.09Zm175,243.23,88.27-67c16.07,1.88,75.38,11.82,92.37,57.15l2.46,6.54c.81,36,1.59,67.3,2.36,94.22C497.52,769.4,387.29,744.2,350.59,737.32Zm199.17,101c-1-35.52-2-74.25-2.92-113,12.6-11.67,48.76-41.65,79.83-34.48L687,754.23C620.54,757.94,571.89,809.44,549.76,838.29Zm210.46-26.13L710.5,759.8l-.1-.45C710,757.64,673.56,591,764.37,525l96.42-29.36c-14.23,19.71-42.55,61.3-66.48,111.3C755,689.09,743.57,758,760.22,812.16Z" transform="translate(-105.14 -117.58)"/>
    <g>
      <path class="cls-2" d="M665.65,583.24c-17.16-13.38-65.11-49.37-80.58-55.08-13.27-4.88-34.8,4.32-41.31,7.93l-9-16.15c3.35-1.84,33.11-17.81,56.69-9.12,21,7.73,79,52.73,85.57,57.83Z" transform="translate(-105.14 -117.58)"/>
      <path class="cls-2" d="M552.42,636l-17.79-5c1.82-6.45,18.87-63,55.44-64.24,32.85-1.29,79.1,21.28,81.06,22.24L663,605.56c-.44-.21-44.21-21.25-72.31-20.37C571,585.87,556.08,623,552.42,636Z" transform="translate(-105.14 -117.58)"/>
      <path class="cls-2" d="M565.06,716.3l-17.51-5.9C553.42,693,584.13,606,626.87,607.19c30,.84,45.9,6.79,47.26,17.67l-18.36,2.3a6.28,6.28,0,0,0,1.55,3.66c-.2-.18-5.44-4.43-31-5.15H626C605.07,625.67,577.81,678.52,565.06,716.3Z" transform="translate(-105.14 -117.58)"/>
      <path class="cls-2" d="M595.05,748.45c-.34-3.06-7.76-75.1,41.89-88.76L679.54,648l4.91,17.83-42.61,11.71c-34.46,9.48-28.47,68.31-28.41,68.9Z" transform="translate(-105.14 -117.58)"/>
      <path class="cls-2" d="M739.11,574.86l-18.37-2.08c12.23-107.91,78-131.39,80.78-132.34l6,17.49C805.16,458.76,749.94,479.29,739.11,574.86Z" transform="translate(-105.14 -117.58)"/>
      <path class="cls-2" d="M739.19,602.58l-16.41-8.53c1.19-2.31,29.66-56.9,50.66-77.89,24.84-24.84,84.72,20.79,96.46,30.2L858.35,560.8c-27.19-21.72-63.4-40-71.83-31.57C767.52,548.22,739.47,602,739.19,602.58Z" transform="translate(-105.14 -117.58)"/>
      <path class="cls-2" d="M864.51,624.51c-22.48-19.17-61-42.94-76.39-35.91-25.8,11.91-49.3,35.19-49.53,35.43L725.51,611c1-1.05,26-25.82,54.86-39.13,31.38-14.56,85.61,29.63,96.15,38.63Z" transform="translate(-105.14 -117.58)"/>
      <path class="cls-2" d="M854.65,664.75c-2.19-2-54.32-49.12-106.13-18L739,630.86c63.8-38.24,127.58,19.73,128.2,20.33Z" transform="translate(-105.14 -117.58)"/>
      <path class="cls-3" d="M727.79,566.36s0-63.91-40.47-49-16,58.58-16,58.58S625.54,671.81,731,693.11C731,693.11,794.89,642,727.79,566.36Z" transform="translate(-105.14 -117.58)"/>
    </g>
  </g>
</svg>
