<svg id="Layer_1" data-name="Layer 1" xmlns="http://www.w3.org/2000/svg" viewBox="0 0 624.46 871.67">
  <defs>
    <style>
      .cls-1 {
        fill: #70b544;
      }
    </style>
  </defs>
  <path class="cls-1" d="M843.69,974.14c-2.76-23-133.23-191.75-133.23-191.75S754.35,665.63,759.25,631c-11.32-108.81-38.49-172.35-60.54-209.92-3.11-5.29-6.08-10-8.93-14.27a45.41,45.41,0,0,0,.92-27.45c-8.49-30-46.51-46.47-72.8-31.16,9.91-10.15,17.19-22.81,19.71-36.38,2.54-13.73-3.28-30.22-16.8-36.27a32.7,32.7,0,0,0-17.36-2.5c1.22-9.68,2-18.86,2.33-26.6,1.73-39.61-10.44-80.51-37-105.74-21.62-20.55-62.86-34.18-103.29-28.89a123,123,0,0,0-27.23,6.7c-47.87,17.83-86.16,59.61-96.17,102.25a179.81,179.81,0,0,0-4.87,46.47c-3.37-5.33-10.56-13.91-20.11-9.63-10.26,4.6-3.22,37.49,7.07,53.23-2.49,6.85-3.1,14.09-.35,21.24,5.62,14.6,19.28,17.29,32.3,14.41.16,4.58.53,12.2,1.18,13.08.46.62,2.83.56,6.37.1,2,5.07,6.51,13.1,15,12.95,12-.22,13.7-14.36,13.7-14.36s4.79,10.66,14.8,10.66,14.79-13.05,14.79-13.05a22.69,22.69,0,0,0,1.51,2.12c-.19,7.23-1.24,15-4,21.79-.78,1.93-1.5,3.62-2.2,5.27a21.6,21.6,0,0,0-4.7,6.51l-.6-.27c.87-6.06.45-16.11-11.12-18.32-9.26-1.77-14.38,3.74-17.13,9.06a52.84,52.84,0,0,0-20.63.67c-.8.2-.61,1.14,0,1.45-1.89,3.63-4.79,9.16-7.5,15.33-.2,0-.43,0-.55.18-7.23,11.82-12.85,27.69-3.63,40.21s25.05,8.52,36.38,1.59a70.7,70.7,0,0,0,20.33,11.93c24,9.25,49.61,15.57,75.49,14.33.64,0,1.25-.13,1.89-.17,2.47,6.41,5.68,13.72,9.36,21.56-56.29-5.79-110.44-16.35-126.48-19.62-.34-.06-.67-.12-1-.2-.54-.11-1.05-.21-1.47-.31-1-.22-1.74-.36-2.08-.42l-.18,0-.06,0,0,.3c-19.18-3.8-93.88,5.56-112.14,5.23a3.8,3.8,0,0,0-3.54,2.24c-9.65,21.07-28.6,48-28.71,49.76-.17,2.68,16.5,41.22,20.86,42.05,2.84.54,8.31-1,12.39-2.44,2.91-1,5.11-1.92,5.11-1.92a49.36,49.36,0,0,0,8.12,8.52,8,8,0,0,0,7.13,1.77,19.37,19.37,0,0,0,5.46-2.46,41.09,41.09,0,0,0,9.3-8.4l0,0a24.45,24.45,0,0,0,12.86-.26c.33-.08.63-.18.93-.28,6.26-1.92,8.6-5.07,8.88-5.47a.06.06,0,0,0,0,0s5.37,7.85,9.86,10.09c3.53,1.76,20.85-5.18,19.52-8.5-7.39-18.39-9.22-31.56-9.64-35.59,0,0,.05,0,.09,0a49.81,49.81,0,0,0,21.6,1.91c.25,0,.47,0,.72,0s.35-.12.54-.16a54.3,54.3,0,0,0,26.2-11.64c23.75,19.26,52.52,34.08,79.9,47l.45.21-72.77,51.87s-69.4-14.74-77.72-13.12c-6.48,1.27-28.92,30.92-40.85,48.44l-5.76,8.83c-1.29,2.18-2,3.53-1.84,3.79a6.12,6.12,0,0,0,3.13,2.06l.22.07c-.11.13-.13.3.14.44,10.95,5.27,20.13,2.61,27.65-3.81,1.57,7.07,3.89,17.1,6.21,24.78a65.12,65.12,0,0,0,2.93,8.19c.87,1.86,1.67,2.91,2.36,2.83,0,0,.08,0,.12,0,0,.4.19.79.67.64,21.05-6.62,17.14-32.94,10.15-48.58-.1-.21-.27-.23-.39-.38a59.5,59.5,0,0,0,8-6.11,78.66,78.66,0,0,0,8.89-8.23c11,4.51,22.33,8.54,33.54,12.06.15,0,.25,0,.39,0l-5.9,21.92S330.05,677.92,327.5,681s-1.25,18.67,1.78,19.68a43.77,43.77,0,0,0,5.53-1c2.85-.6,6.42-1.47,10.36-2.5,12.41-3.29,28.36-8.21,36.11-12a25.35,25.35,0,0,0,3-1.69c12.11-8.32,19.44-33.82,19.44-33.82h0a1.11,1.11,0,0,0,1,1.06c13,.79,25.92-1.73,38.2-4.36a400.51,400.51,0,0,0,43.17-11.84c23.05-7.69,46.15-17.31,67.52-29.3l-3.31,27.28-1.94,9.37-3.45,16.71S439.3,764.89,436.61,789.8s31.61,96.89,49.78,135.25c-5,1.8-67.92,47.12-67.92,54.18,16.08,7,140.94,0,140.94,0L575.56,954l4,23.21h34.57a3.69,3.69,0,0,0,3.79,2.87c100.69-1,120.11-2.87,120.11-2.87L747.14,959l9.09,18.17s89.15,5,87.47-3ZM606.26,358.33l-.33,0,.63-.44A3,3,0,0,0,606.26,358.33Zm32.43,599.39c-6.6-13.41-61-103.15-93.76-170.63,3.37-10.76,84.12-110.34,84.12-110.34l3.61.33,13.69,1.21,5.57.48c0,4-45.08,115.07-48.45,125.16s16.15,42.39,65.29,128.51l1.17.15-.51.19S660.35,942.42,638.69,957.72Z" transform="translate(-219.26 -110.67)"/>
</svg>
