<svg id="Layer_2" data-name="Layer 2" xmlns="http://www.w3.org/2000/svg" viewBox="0 0 831.87 915">
  <defs>
    <style>
      .cls-1 {
        fill: #939;
        fill-rule: evenodd;
      }
    </style>
  </defs>
  <path class="cls-1" d="M889.43,287.93c-34.11-8.17-64.8,32.84-71.07,55.48s-17.31,64-49.28,63.25-25.62-46.53-25.62-46.53C789.82,176.5,698,55.9,542.23,70.14S370,268.33,370,268.33c-32,44.25-65.1-32.95-88.67-43.64-39.83-18.07-48.93-10.16-94.18,16.25-20.48,12-36.79,35.38-39.78,48.56-3.62,15.95,11.92,16.28,17.13,8.06,12.48-19.73,35.29-26.67,35.29-26.67C176,287,165.09,304.41,165.68,315.5c.55,10.18,11.33,15.26,18.36,3.8,14.69-24,30.27-30.22,30.27-30.22-39.46,34.63-18.33,63.12-6.64,46.68,16.68-23.47,34.93-32.16,40.78-26.22,5,5.11,6,16.56-17.83,26.46-15.38,6.41-8.66,16.62-3.22,17.87,20.83,4.79,36.45-13.64,36.45-13.64,7.32,45,11.1,28.62,25.93,78.11s-74,110.8-125,164.69-59.83,142.6-39.26,160.67,31.78-31.64,46.4-58.05,39-14.89,36.23-3-15.47,37.8-15.47,37.8c-14.06,36.29-40.48,138.18,14.53,178.75s57.14-63.27,79.38-91.53,52.37-9.32,48.19,19.7-6.86,64.7,16.1,117.41,60,58,79.79-19,50.39-75,120-127.16S688.09,621.61,701.6,610.59s79.14-76.1,79.14-76.1C860.43,445,873.88,379.86,869.81,370s.18-19.34,7.49-19.22c8,.14,5.22,23.49,9.45,34.17s12.33,4.61,16.1-6.32-1.92-33.92-1.92-33.92c5.4,7.3,10.4,24.22,16.77,31.64,2.68,3.13,12,1.8,11.37-7.39-.81-12.59-12.28-34.94-12.28-34.94a40.72,40.72,0,0,1,15.26,15.57C937.56,360,943.54,356,943.54,356,958.31,342.86,923.54,296.09,889.43,287.93ZM312.29,438a74.14,74.14,0,0,1-6.14,17.87l-5.09,7.4s-5.89,6.33-1-9.21c0,0,6-18.76,7.24-26.39,1.25-7.38.47-18.5.47-18.5s-.4-2.76,2.83-.5A85.28,85.28,0,0,1,312.29,438Zm22.59-5.75s-1.54,4-4.14-1.4c2.45-9.74,3.67-8.75,3.67-8.75s.83-2.57,2.68.76C337.56,427.31,340.12,420.42,334.88,432.28Zm363.7-83.19s-14.44,29.64-44.11,21.7c-15.2-4.07-15-12-15-12L650,362.67c15.71,7.28,36.35,1.91,46.48-13.08Zm-73.4-59.63c3-20.78,10-44.54,31.6-46,.57,0,1.15,0,1.73,0,33.84,1.18,42.29,64.13,33.7,88.38-7.12,20.09-33,36.82-53.86,18.7C622.14,336.41,622.5,308.16,625.18,289.46ZM524,350.38c-15.58,6.27-33.86,6.75-48.86-2.17-8.74-5.2-17.55-14.19-17.67-23.57,0,0-.94-4.53,2.75-2.82l2.9,2.73c2.51,4.78-2.54.64,8.44,11.35,15.26,14.88,40.64,17.93,60.15,7.75l1.76.49A37.71,37.71,0,0,1,524,350.38ZM534.54,332c-30.35,22.47-70.87,7.45-66.21-31.94,4.13-34.93,28.3-72,62-73.78.75,0,1.49,0,2.23,0a35.65,35.65,0,0,1,30.88,20.85C576.59,276.61,558.82,314.07,534.54,332Zm36.63,63.26c-8.77-5.6,2-28.88,15-28.7C599.19,367.52,586.77,405.23,571.17,395.29Zm143,170.18c-25,19.69-42.53,47.7-59,75.59l-3.31,5.42q-2.64,4.14-5.34,8.24c-8.56,13-17.09,26-26.39,38.31l-2.35,1.28s7.05-11.9,12-20.55c23.06-39.92,38.32-85.94,83.32-116.48a20.6,20.6,0,0,1,6.57-.09C717.76,566.72,718.17,562.39,714.17,565.47Z" transform="translate(-115.17 -69)"/>
</svg>
