<svg id="OBJECTS" xmlns="http://www.w3.org/2000/svg" viewBox="0 0 103.2 122.48">
  <defs>
    <style>
      .cls-1 {
        fill: #939;
      }

      .cls-2 {
        fill: #140920;
      }

      .cls-3 {
        fill: #11081b;
      }

      .cls-4 {
        fill: #0e0617;
      }

      .cls-5 {
        fill: #12081d;
      }

      .cls-6 {
        fill: #0b0514;
      }

      .cls-7 {
        fill: #0f0719;
      }

      .cls-8 {
        fill: #0f071a;
      }

      .cls-9 {
        fill: #0c0615;
      }

      .cls-10 {
        fill: #050209;
      }

      .cls-11 {
        fill: #0c0514;
      }

      .cls-12 {
        fill: #09050f;
      }

      .cls-13 {
        fill: #8d7588;
      }

      .cls-14 {
        fill: #7d687b;
      }

      .cls-15 {
        fill: #90788b;
      }

      .cls-16 {
        fill: #957c8e;
      }

      .cls-17 {
        fill: #947d8e;
      }

      .cls-18 {
        fill: #8d7688;
      }

      .cls-19 {
        fill: #92798c;
      }

      .cls-20 {
        fill: #90788a;
      }

      .cls-21 {
        fill: #11081d;
      }

      .cls-22 {
        fill: #7f697c;
      }

      .cls-23 {
        fill: #190e25;
      }

      .cls-24 {
        fill: #957c8f;
      }

      .cls-25 {
        fill: #8f788a;
      }

      .cls-26 {
        fill: #80697d;
      }

      .cls-27 {
        fill: #7b6679;
      }

      .cls-28 {
        fill: #867183;
      }

      .cls-29 {
        fill: #3f3145;
      }

      .cls-30 {
        fill: #857081;
      }

      .cls-31 {
        fill: #91788b;
      }

      .cls-32 {
        fill: #90798b;
      }

      .cls-33 {
        fill: #241a2e;
      }

      .cls-34 {
        fill: #836d80;
      }

      .cls-35 {
        fill: #2d2136;
      }

      .cls-36 {
        fill: #947e8f;
      }

      .cls-37 {
        fill: #2b2035;
      }

      .cls-38 {
        fill: #06020c;
      }

      .cls-39 {
        fill: #2f2237;
      }

      .cls-40 {
        fill: #816c7e;
      }

      .cls-41 {
        fill: #826e80;
      }

      .cls-42 {
        fill: #463a4d;
      }

      .cls-43 {
        fill: #806a7d;
      }

      .cls-44 {
        fill: #836c7f;
      }

      .cls-45 {
        fill: #8d7587;
      }

      .cls-46 {
        fill: #695569;
      }

      .cls-47 {
        fill: #32253a;
      }

      .cls-48 {
        fill: #826b7e;
      }

      .cls-49 {
        fill: #7d677a;
      }

      .cls-50 {
        fill: #655266;
      }

      .cls-51 {
        fill: #261d31;
      }

      .cls-52 {
        fill: #090410;
      }

      .cls-53 {
        fill: #856f81;
      }

      .cls-54 {
        fill: #14091f;
      }

      .cls-55 {
        fill: #796276;
      }

      .cls-56 {
        fill: #4f3e53;
      }

      .cls-57 {
        fill: #876f83;
      }

      .cls-58 {
        fill: #8b7386;
      }

      .cls-59 {
        fill: #947a8c;
      }

      .cls-60 {
        fill: #56485c;
      }

      .cls-61 {
        fill: #25192f;
      }

      .cls-62 {
        fill: #2a1f32;
      }

      .cls-63 {
        fill: #45384a;
      }

      .cls-64 {
        fill: #08030e;
      }

      .cls-65 {
        fill: #241b2f;
      }

      .cls-66 {
        fill: #8e7889;
      }

      .cls-67 {
        fill: #6d586c;
      }

      .cls-68 {
        fill: #755f73;
      }

      .cls-69 {
        fill: #675367;
      }

      .cls-70 {
        fill: #8e7689;
      }

      .cls-71 {
        fill: #413146;
      }

      .cls-72 {
        fill: #735d71;
      }

      .cls-73 {
        fill: #897184;
      }

      .cls-74 {
        fill: #5f4c60;
      }

      .cls-75 {
        fill: #7b6478;
      }

      .cls-76 {
        fill: #735d70;
      }

      .cls-77 {
        fill: #7a6477;
      }

      .cls-78 {
        fill: #846d80;
      }

      .cls-79 {
        fill: #8b7285;
      }

      .cls-80 {
        fill: #90778a;
      }
    </style>
  </defs>
  <g id="branch2">
    <path class="cls-1" d="M87.38,219.43a.14.14,0,0,1,0,.11,8.52,8.52,0,0,0-.61.87,14.72,14.72,0,0,1-1.87,3.74c-.33.61-1,1.09-.71,1.94a18.3,18.3,0,0,1-2,3.68.55.55,0,0,1-.46.21c-.42,1-1.24,1.76-1.63,2.78l-5.1,8.3c-.76.39-1,1.18-1.45,1.84a10.26,10.26,0,0,0-1.26,1.92c-.45.41-.67,1-1.12,1.41,0,.05.27.12.15.3-1,1.49-2,3-3.14,4.44a36.76,36.76,0,0,1-10.46,9.17c-3.11,1.82-6.16,3.73-9.24,5.61A40.53,40.53,0,0,0,34,280.67c-.67,1.2-1.36,2.39-2,3.63,0,.1-.24.22,0,.35a1.48,1.48,0,0,1,.3.72c0,.38-.21.65-.6.54s-1.07-.39-1.14-.72-.61-.78-.29-1.29c.06-.09.14-.22,0-.29a.28.28,0,0,0-.39.1c-.36,1-.83.48-1.29.11-.24-.19-.41-.3-.62.06s-.57.33-.85,0a5.51,5.51,0,0,0-.86-.74.67.67,0,0,1-.32-.68c.08-.35.41-.25.65-.31.61-.14,1.08.37,1.53.35-.75-.2-1.48-1-2.5-.56,3.89-6.29,8.56-11.82,14.84-15.89a19.07,19.07,0,0,0,6-6c1.66-2.69,3.43-5.31,4.84-8.15a26.15,26.15,0,0,0,2.26-8,51.14,51.14,0,0,0,.17-6.78,34.56,34.56,0,0,1,2.15-12.21,53.56,53.56,0,0,0,2.43-9,7,7,0,0,1,.79-2.35,3.68,3.68,0,0,1,.08,1.41A44,44,0,0,1,57,225.79a19.14,19.14,0,0,1-1.15,3.26,7.12,7.12,0,0,0-.39,2.2,15.47,15.47,0,0,0-.18,4.89c.13,1.05,0,2.1.24,3.13.13.36-.19.65-.13,1s0,.83.61.62a12.52,12.52,0,0,1,3.74-4.38,6.22,6.22,0,0,0,1.73-2.3c1.27-2.23,2.12-4.65,3.18-7a19.74,19.74,0,0,1,1.14-2.12,2.83,2.83,0,0,1-.08,1.58A57,57,0,0,1,62.31,236a4.74,4.74,0,0,1-1,1.61,8,8,0,0,0-3.17,3.21c-.3.46-.45,1-.73,1.48-.09.29-.38.53-.18.88,0,.42-.4.67-.54,1A2.76,2.76,0,0,0,55.34,246a41.48,41.48,0,0,1-1,4.35c-.06.15.05.28.09.42a3.45,3.45,0,0,1-.28,1.27,29.24,29.24,0,0,1-2.09,4.89,2,2,0,0,1-.41.1c-.33.18-.24.43-.11.69,0,0,0,.07,0,.11a10.34,10.34,0,0,1-.72,2c.2.15.35.05.51,0a54.58,54.58,0,0,0,10.46-6.44,31.82,31.82,0,0,0,5.56-5.74c3.69-4.94,7-10.12,10.49-15.21,3-4.35,6.1-8.61,8.81-13.14A2.15,2.15,0,0,1,87,219a.58.58,0,0,1,.44.23A.25.25,0,0,1,87.38,219.43Z" transform="translate(0.11 -213.61)"/>
    <path class="cls-1" d="M80.12,275a10.68,10.68,0,0,1,3.44,2.23,8,8,0,0,0,5.18,2.42c.12.27-.21.24-.25.41a.7.7,0,0,0,.4,0c.12-.08-.15-.29.06-.42,1.46-.1,2.92.22,4.38.18a.36.36,0,0,1-.2.43c-.54.17-1.1-.1-1.58.09a36,36,0,0,0,4.14-.09c1.1,0,2.2,0,3.29,0,.85,0,1.7,0,2.54-.05a.44.44,0,0,1,.29.3,4.42,4.42,0,0,1-2.07.47,37.55,37.55,0,0,1-4.62.39c-2.37,0-4.74.24-7.12.18a7.69,7.69,0,0,1-5.43-2.1,12.75,12.75,0,0,0-5.67-3c-2.63-.76-5.3-1.38-7.92-2.18a4.49,4.49,0,0,0-1.31-.1,26.22,26.22,0,0,0-5.23.62,6,6,0,0,0-3,1.63,7.27,7.27,0,0,0-.68.68,12.69,12.69,0,0,1-7.39,4.27,50.65,50.65,0,0,0-12.7,4.74c-1.68.88-3.41,1.67-5.13,2.5-.54-.17-1-.54-1.68-.36a.65.65,0,0,1-.74-.69c0-.54.42-.39.78-.4.82,0,1.59-.35,2.43-.3.24,0,.36-.26.43-.5-.21-.12-.4,0-.59.05-.79.23-.71.23-.77-.57,0-.19-.43-.61-.72-.86s-.35-.22-.43-.43a31.09,31.09,0,0,1,5.15-2.1c.59.33,1.07,0,1.57-.27a11.13,11.13,0,0,0,1.86-.58,13.46,13.46,0,0,0,3.38-1.19c1.41-.36,2.8-.74,4.2-1.12a31,31,0,0,0,4.34-1,1.24,1.24,0,0,0,.74-.57,11.45,11.45,0,0,0,3.27-2.68,9.31,9.31,0,0,1,4.68-2.62,31.07,31.07,0,0,1,4.19-.48c2-.15,3.92-.23,5.87-.44a63.33,63.33,0,0,0,8.3-1.39,34.46,34.46,0,0,1,5.36-.89,5.43,5.43,0,0,0,3.74-1.89,42,42,0,0,0,3-3.83c2-2.83,4.17-5.51,6.42-8.15.37-.44.69-.92,1-1.41.2.94-.46,2.13-2.3,4.2a15.05,15.05,0,0,0-1.64,2.25,2.55,2.55,0,0,0-.32,1.08h0c-.32.14-.4.44-.48.74s-.17.43-.4.54,0-.32-.22-.23-.22.14-.22.25.2,0,.27.11a.67.67,0,0,1-.11.41,53.3,53.3,0,0,1-3.87,5.54,7,7,0,0,1-5.13,2.52,43.69,43.69,0,0,0-6.29,1.14c-1.2.26-2.41.45-3.62.68-.47.27-.94.06-1.47,0,.51.16,1,.1,1.46.28a5.84,5.84,0,0,1,1,.34c.24.11,0-.19.17-.21a28.29,28.29,0,0,1,3.69,1.29c.09.12,0,.26,0,.39C80.06,275.24,80,275.1,80.12,275Z" transform="translate(0.11 -213.61)"/>
    <path class="cls-1" d="M29.88,263.8a.25.25,0,0,1-.05.15,5.44,5.44,0,0,0-1.15,2,7,7,0,0,0-1.13,3.79,13.29,13.29,0,0,1-.86,4.11,78.76,78.76,0,0,1-3.33,7.8c-.28-.25-.38-.71-.93-.58a.36.36,0,0,1-.39-.52c.23-.43.11-.51-.32-.55-.62-.06-.72-.8-1.24-1,.82-1.78,1.62-3.57,2.45-5.35a20.32,20.32,0,0,0,1.67-7.76,39.81,39.81,0,0,0-1-8.71,34,34,0,0,1-.21-10.85c.52-3.79,1.22-7.55,1.89-11.32.6-3.35,1.12-6.71,1.69-10.07.2-1.11.33-2.24.59-3.35,0-.11,0-.23.28-.25a3.73,3.73,0,0,1,0,.59c-.17,3.1-.27,6.2-.55,9.29-.38,4.13-.9,8.24-1.35,12.36-.08.67-.16,1.34-.19,2-.07,1.44-.45,2.85-.51,4.27a11.89,11.89,0,0,0,.14,2.73c.09.47.07.93.12,1.38.2,1.88,1,3.61,1.27,5.46-.4.77,0,1.45.27,2.14,0,.46.57.65.38,1.18,1.64-2.25,2.76-4.78,4.87-6.56s4.31-3.25,6.47-4.78c.27.19.24.33.16.4-1.41,1.35-2.54,3-4.16,4.14-.12.09-.25.15-.37.23s-.08-.21-.16-.29c-.12.13,0,.26,0,.39-.6.76-1.42,1.31-2,2.11-.27.24-.63.42-.51.88a8.15,8.15,0,0,1-1.14,2.8,2,2,0,0,0-.31.71A1.22,1.22,0,0,0,29.88,263.8Z" transform="translate(0.11 -213.61)"/>
    <path class="cls-1" d="M18.78,302.75c.52.17,1.06-.09,1.58,0,.43.29.32.56-.1.66s-.46.29-.27.7.12,1,.86,1.1c.42.06.31.49,0,.73s-.47,0-.67.14c-1.11.28-2.26.24-3.37.53-1.7.43-3.41.83-5.11,1.26a3,3,0,0,0-1.11.7L5,313.2a.68.68,0,0,1-.55-.38,1.64,1.64,0,0,0-1-.78c-.3-.09-.66-.15-.67-.57a.7.7,0,0,1,.52-.73.46.46,0,0,0,.34-.25.61.61,0,0,0,0-.51c-.12-.25-.3-.11-.44,0-.73.41-1.22-.14-1.76-.44a.44.44,0,0,1-.2-.61c.5-.72.1-1.23-.34-1.75a1.06,1.06,0,0,1,.56-.39c.6.38.81.18.7-.48,2.12-1.59,4.23-3.21,6.38-4.77a12.78,12.78,0,0,0,4.15-4.79c.23-.47.51-.91.77-1.36.46-.23.51.15.56.41a7.2,7.2,0,0,0,.59,1.46c0-.11,0,0,0,0-.18-.74,0-1.2.86-1.06s1.41-.5,2.15-.08c.18.1.52-.05.6.25s-.12.55-.32.78-.42.2-.55.42c.17.07.26-.06.35-.15.28-.26.57-.63,1-.21s.67.75.3,1.32a3.09,3.09,0,0,1-3.87,1.06c-.52-.22-1-.45-1.45,0-.08.08,0,0-.07.05-.66.26-.83.43-.82,1.16,0,.52-.56.41-.76.8.48.08.61-.26.81-.46a1.08,1.08,0,0,1,1.26-.33,2.89,2.89,0,0,0,2-.22,1,1,0,0,1,1.27.37A23.25,23.25,0,0,1,18.78,302.75Z" transform="translate(0.11 -213.61)"/>
    <path class="cls-1" d="M25.47,329.23a19.43,19.43,0,0,1-3.12.47,44.14,44.14,0,0,1-7.27.41,21,21,0,0,1-5.79-1,4.57,4.57,0,0,0-3,0c-2.07.72-4.16,1.39-6.37,2.11V327c0-.26.18-.34.38-.4a48.9,48.9,0,0,1,7.07-2.08A2,2,0,0,0,8,324.3a43.49,43.49,0,0,1,4.56-1.78,4.15,4.15,0,0,1,1.61,1.06,9.83,9.83,0,0,1-2.6,1.8,14.87,14.87,0,0,0,4.22,1,58.64,58.64,0,0,0,8.38-.61,14.7,14.7,0,0,1,1.75-.12,8.51,8.51,0,0,1,2.52,0h0a.92.92,0,0,1-1.17.94c-.49-.08-.83-.11-.69.56a.72.72,0,0,1-.32.67c-.17.16-.38.34-.27.59C26.27,329,25.85,329.11,25.47,329.23Z" transform="translate(0.11 -213.61)"/>
    <path class="cls-1" d="M18.78,302.75c-.36.38-.49,0-.51-.21a1.07,1.07,0,0,0-.76-1c-.38-.12-.33-.45-.47-.68s-.26-.44-.53-.25c-.5.37-1.14.24-1.68.48-.22.09-.52.15-.67,0-.58-.6-.92-.13-1.3.24a1.51,1.51,0,0,0-.22.28c-.14.28-.28.5-.67.29s-.1-.56-.07-.84.1-.18.24-.1c.63.36.43-.13.41-.42a3.17,3.17,0,0,0-.12-.41c-.15-.91-.14-.93.72-.64a.43.43,0,0,0,.52-.21c.41-.57.83-.31,1.29-.09.29.14.47.42.89.41,1.22,0,2.34-.16,3-1.31a1.55,1.55,0,0,0-.4-1.11c-.31-.19-.4.07-.52.27s-.15.32-.36.35-.52.32-.69,0,.17-.48.4-.54a1.08,1.08,0,0,0,.81-1c-.35.15-.69.27-1-.07,0,0-.12-.09-.15-.08a3,3,0,0,1-2,.24c-.16,0-.33.37-.27.66a4,4,0,0,0,.2.58c0,.12.05.25-.07.31s-.27-.06-.31-.2c-.18-.73-.81-1.29-.76-2.11,0-.17-.19-.2-.34-.22a4,4,0,0,1,.55-1.23,1.3,1.3,0,0,0,1.06-.53,10,10,0,0,0,1.78-2.82l.13-.23c.24-.41,1.09-.25,1-.74s.26-.86.41-1.27a1,1,0,0,1,.16-.19c.46-.25.68-.14.59.4,0,.2-.17.38-.2.58a.69.69,0,0,0,.38.73c.26.14.41,0,.61-.17a1.75,1.75,0,0,0,.72-1.05c.13-.26.2-.57.54-.64s.21-.53.54-.59c.52.05.68.52.94.85s.24.61-.2.74-.46.28-.29.64A1,1,0,0,1,22,291c-.12.14-.36.28-.16.51a.46.46,0,0,0,.49.09c.26-.08.12-.27.12-.44,0-1,.48-1.3,1.39-.93.69.28,1.34.52,1.47,1.43.07.49.55.8,1,1.08.22.16.68.21.45.69a42.1,42.1,0,0,1-5.14,7,3,3,0,0,1-.85.73c-.14,0-.31-.07-.21.18A20.63,20.63,0,0,1,18.78,302.75Z" transform="translate(0.11 -213.61)"/>
    <path class="cls-2" d="M64.19,296.59a6.94,6.94,0,0,1,2.09-.95c.13.33-.12.45-.27.6a11.74,11.74,0,0,1-2.37,1.63c-2.77,1.56-5.7,2.78-8.52,4.22-.23.44.15.43.39.54a1.49,1.49,0,0,0,.91.11,2.27,2.27,0,0,1,.52,0,18,18,0,0,0,5.38.36l.34,0a1.66,1.66,0,0,0,1.42-.19A14.45,14.45,0,0,1,69,303a1.32,1.32,0,0,0,1,.45,8.38,8.38,0,0,0,2,.08c.12,0,.23-.08.34,0a12.86,12.86,0,0,0,2.48.14,14.7,14.7,0,0,1,3.2.24,3.7,3.7,0,0,1-1.88.63,35.46,35.46,0,0,1-7,.53c-.53,0-1.05-.12-1.57-.17-1.37-.14-2.74,0-4.11,0-3.61,0-7.21-.21-10.81-.37a2.07,2.07,0,0,1-.78-.14A3.38,3.38,0,0,0,50.72,303c-.38-.3-.94-.49-.92-1.13a10,10,0,0,0,3.54-.85c1.13-.38,2.23-.84,3.35-1.27a37.21,37.21,0,0,0,6.58-2.6,2.93,2.93,0,0,0,.89-.34C64.33,296.75,64.59,296.73,64.19,296.59Z" transform="translate(0.11 -213.61)"/>
    <path class="cls-1" d="M25.47,329.23c.26-.21.69-.32.25-.8-.21-.24,0-.46.27-.63s.67-.32.34-.87c-.23-.37.23-.77.68-.64.82.23,1,.17,1.46-.61A6.44,6.44,0,0,1,32,327.05a11.43,11.43,0,0,1,2.7,2.72c.38.52.76,1,1.16,1.54a7.81,7.81,0,0,0,5.59,3,6,6,0,0,1,.94.19c.49.17.65.73,1.13,1,.22.11.22.51-.22.49a5.26,5.26,0,0,1-1.63-.07,10.49,10.49,0,0,1-8.07-3.37,17.24,17.24,0,0,0-2.83-2.5,5.35,5.35,0,0,0-4.09-.9A9.74,9.74,0,0,1,25.47,329.23Z" transform="translate(0.11 -213.61)"/>
    <path class="cls-1" d="M62,313.71l.35,0c.37.17.79-.05,1.16.15a4.22,4.22,0,0,0,2.2.17,6.66,6.66,0,0,1,1.88.36,13.71,13.71,0,0,0,2.85.58.68.68,0,0,1-.82.44c-2.51-.28-5,0-7.54-.33H61.6A23.64,23.64,0,0,1,46.29,310a33.78,33.78,0,0,0-3.21-1.94c.11-.31.38-.33.64-.39,1-.23,1.08-.44.37-1.22.15.39.07.6-.37.56a1.14,1.14,0,0,0-.52,0c-.32.1-.48.79-.8.48-.58-.52-1.27-.83-1.87-1.3-.25-.2,0-.42.22-.54a1.33,1.33,0,0,1,1.27,0,.86.86,0,0,0,1.25-.39,9.2,9.2,0,0,1,4.11,2.85c1.43,2,3.56,3,5.74,3.85.65.26,1.31.49,2,.73.18.47.71.38,1,.61.34.06.68.15,1,.23s.77,0,1.15.11l.33.12A9.61,9.61,0,0,0,62,313.71Z" transform="translate(0.11 -213.61)"/>
    <path class="cls-3" d="M32.28,284.58c.3-.05.43.35.78.24s.38.1.14.34a.23.23,0,0,0,0,.37c.13.12.26.08.37,0s.32-.12.42.06-.1.25-.25.33a.56.56,0,0,0-.27.63,3.89,3.89,0,0,1,1.7-.48c.09.36-.33.44-.31.78a.46.46,0,0,1-.64.41c-.6-.27-1.13.09-1.69.13-.29,0-.57.31-.86,0a.23.23,0,0,0-.32,0c-.11.12-.13.34,0,.41.25.19.52.56.9.28s.76-.3,1,.28c0,.13.26.21.39.32a3.73,3.73,0,0,1-1,.54c-.37-.27-.7-.66-1.18-.1-.27.32-.6.12-.81-.16a1.22,1.22,0,0,0-1.41-.44c-.53.15-.81-.09-1-.56-.42-1-.75-1.15-1.81-.85-.38.11-.38.11-.92-.48a.3.3,0,0,0-.12.38c.28.69-.06.85-.66.81A.58.58,0,0,0,24,288a.61.61,0,0,1-1,.1c-.41-.47,0-.71.38-.95a1,1,0,0,0,.31-.3,2,2,0,0,1-.67-1A33.08,33.08,0,0,1,25.61,282c.27,0,.4-.36.7-.34s.71-.19,1,.28a1.1,1.1,0,0,0,1,.42c.24,0,.63-.05.55.32s-.42.18-.66.08a.32.32,0,0,0-.09,0c-.66-.13-1.28-.52-2.05-.17a.69.69,0,0,0,.41.56,2.55,2.55,0,0,1,.59.37c.2.19.22.68.59.54s.32-.52.31-1c.46.38.85.67,1.19,1a.26.26,0,0,0,.38,0,.17.17,0,0,0,.05-.29c-.32-.34,0-.45.2-.37s.7-.4.95,0-.43.49-.44.85.55-.08.63.31-.23.34-.39.48a2.5,2.5,0,0,1,1,.56c.14.16.31.29.52.08s.21-.38,0-.53-.12-.34,0-.52Z" transform="translate(0.11 -213.61)"/>
    <path class="cls-4" d="M23,285.83c.52,0,.34.89,1,.79a1.2,1.2,0,0,1-.06.33.89.89,0,0,1-.59.48c-.21.05-.42.11-.32.4a.44.44,0,0,0,.48.31c.23,0,.35,0,.33-.33s.29-.44.57-.32a1.46,1.46,0,0,0,1,.05.87.87,0,0,1,.12-1.42c.37.15.44.5.44,1a1.37,1.37,0,0,1,2-.09,1,1,0,0,1,.45.78c0,.37.12.69.72.46a1.17,1.17,0,0,1,1.63.53c.14.29.36.45.67.1.56-.64.78-.57,1.19.29-1.21.69-2.41,1.42-3.65,2.05a3.92,3.92,0,0,0-1.81,1.7,4,4,0,0,1-.36.48c0-.12,0-.26-.15-.3-.75-.19-1.11-.86-1.65-1.32,0,0-.06-.05,0-.06.48-1.37-1-.91-1.39-1.45a.41.41,0,0,0-.67.11c-.15.26-.41.47-.14.85s.27.57-.33.6a3.09,3.09,0,0,1-.53,0c-.54-.12-.6-.32-.23-.75.75-.84.76-.86.09-1.71.1-.23.35-.17.52-.27a3.62,3.62,0,0,1,.55-.14c-.15-.58-.68-.87-.95-1.34A12.54,12.54,0,0,1,23,285.83Z" transform="translate(0.11 -213.61)"/>
    <path class="cls-1" d="M27.05,305.21h-.87a1.24,1.24,0,0,1-.13-.5c-.15-.85,0-1,.85-1.1a6.92,6.92,0,0,0,.86-.16c-.54.11-1.13,0-.9-.31.42-.54-.27-.71-.15-1.07a23.25,23.25,0,0,1,2.36-.59,29.92,29.92,0,0,0,4-1.41,2.62,2.62,0,0,1,1-.32c1.25-.26,2.15.64,3.37.76-.34.54-.68.28-.87.48-1.74.39-3.14,1.47-4.75,2.21.43.38,1,.15,1.4.42a3.64,3.64,0,0,0,1.93.66c.38,0,.75.31,1.08.54.18.12.32.48.18.5-.55.1-.67.84-1.27.8h0c-.61-.46-1.35-.22-2-.35l-5.61-.53c.42-.46,1-.05,1.67-.45a3.57,3.57,0,0,1-1.76-.13C26.85,304.61,27,304.93,27.05,305.21Z" transform="translate(0.11 -213.61)"/>
    <path class="cls-1" d="M.91,307.15l.16.08c.85.56.87.56.43,1.5-.19.41-.12.56.31.78.68.35,1.28.67,1.81-.23A1.93,1.93,0,0,1,4,310.43c0,.34,0,.67-.54.53s-.42.26-.48.47.17.32.39.34c.92.05,1.25.81,1.7,1.43l-5.06,5a2.07,2.07,0,0,1-.06-.85c0-2.84,0-5.69,0-8.52A1.44,1.44,0,0,1,.91,307.15Z" transform="translate(0.11 -213.61)"/>
    <path class="cls-5" d="M36.58,301c.12-.24.36-.12.54-.21-.51-.49-.51-.49-.85-.16a3.85,3.85,0,0,0-2.19-.87,10,10,0,0,1,5.93-.22c1.8.38,3.49,1.15,5.29,1.53l3.27.67c.47.4,0,.58-.21.8s-.62.14-.86.49a4.09,4.09,0,0,1,3,.52c-.52-.31-1.16-.39-1.52-.94-.13-.2-.28-.41-.15-.65s.4-.15.63-.09l.3,0c.41.64,1.13.92,1.65,1.43.27.27.78.48.46,1A27.48,27.48,0,0,1,43,302.48a27.57,27.57,0,0,0-3.86-1.35A15.38,15.38,0,0,0,36.58,301Z" transform="translate(0.11 -213.61)"/>
    <path class="cls-6" d="M26.71,302.08a.55.55,0,0,0,.56.34c.16,0,.29.08.29.25s-.11.25-.28.21-.41.09-.32.34a.3.3,0,0,0,.43.18,2.25,2.25,0,0,1,.82-.15c-.52.73-1.49.32-2.11.84.06.37.44.73.08,1.13a14.63,14.63,0,0,1-3.58.69,10.33,10.33,0,0,1-2.42.21c.1-.19.29-.16.46-.19a.36.36,0,0,0,.31-.45c-.06-.26-.27-.1-.43-.08-.45,0-.73,0-.58-.64,0-.21.1-.59-.25-.74s-.4-.2-.32-.45.28-.27.5-.27a2,2,0,0,0,.35,0c.44-.05.22-.3.14-.5,1.64-.31,3.31-.3,5-.53A4.36,4.36,0,0,1,26.71,302.08Z" transform="translate(0.11 -213.61)"/>
    <path class="cls-7" d="M35.15,306.13c.13,0,.34,0,.31-.21-.06-.5,0-.75.6-.53a.21.21,0,0,0,.28-.14.25.25,0,0,0-.16-.28c-.57-.1-.93-.71-1.68-.49-.54.16-.85-.53-1.27-.85,1.45.21,2.89.44,4.34.61a22,22,0,0,0,3,.3,5.26,5.26,0,0,1,2.66.7c-.19.92-.25.95-1.12.67s-.92-.3-1.6.09c.66.46,1.57.57,2,1.41.15,0,.21-.14.24-.29.12-.51.45-.55.86-.37.15.06.29.3.43.06s-.13-.27-.26-.37-.05-.09-.08-.15c.61-.18.8.41,1.16.66.15.09-.41.91-.66.93a2,2,0,0,0-1.11.19c-1.78-1-3.82-.92-5.73-1.41A13.57,13.57,0,0,1,35.15,306.13Z" transform="translate(0.11 -213.61)"/>
    <path class="cls-1" d="M20.48,279c.36-.17.61-.11.72.31a.63.63,0,0,0,.91.5.34.34,0,0,1,.49.21.27.27,0,0,1-.19.4c-.21.05-.33.18-.24.38s.34.16.54.11.28-.32.6-.2a1.44,1.44,0,0,0,.05,1l-1.56,4.06a1.63,1.63,0,0,1-.49.14c-1.31.23-1.37.2-1.59-1.16a1,1,0,0,0-.46-.69c-.25-.18-.58-.27-.7-.61a17.19,17.19,0,0,1,1-2.48c.52-.27.81,0,1.11.39a.67.67,0,0,0,1.09,0,13.62,13.62,0,0,0-1.32-.58A.54.54,0,0,1,20,280C20,279.58,20.44,279.36,20.48,279Z" transform="translate(0.11 -213.61)"/>
    <path class="cls-8" d="M18.56,283.36c.16.07.32.12.48.2A1.31,1.31,0,0,1,20,285c-.06.37.19.53.31.75s.46,0,.69-.09.56.11.84.05a15.8,15.8,0,0,1-.72,2.24c0,.11,0,.22.15.28l-.34.64a1.48,1.48,0,0,1-1.6-.41c-.25-.3-.49-.26-.7.06-.64,0-1.31.13-1.75-.53a25,25,0,0,1,1-2.66c.56-.34.76.72,1.32.29-.51-.17-1.19-.3-.56-1.11.13-.17-.35-.33-.19-.6S18.33,283.48,18.56,283.36Z" transform="translate(0.11 -213.61)"/>
    <path class="cls-9" d="M41.68,335.92H43.5c0-.28,0-.55-.31-.46-.7.22-.67-.1-.54-.6,0-.16-.19-.19-.25-.32,1.58-.1,3.14.2,4.72.16,2.51-.07,5-.22,7.52-.39a1,1,0,0,1,.54,0c0,.27-.18.28-.37.34a24,24,0,0,1-5.56,1c-2.24.19-4.48.4-6.73.38C42.24,336.07,41.93,336.16,41.68,335.92Z" transform="translate(0.11 -213.61)"/>
    <path class="cls-10" d="M14.21,323.58c-.54-.34-1.26-.42-1.61-1.06a27,27,0,0,1,7.47-3.85,1.53,1.53,0,0,1,.43,0c.68-.16.51.23.34.56-.25.5-.86.65-1.16,1.11-.5.23-1,.47-1.49.68A10.91,10.91,0,0,0,14.21,323.58Z" transform="translate(0.11 -213.61)"/>
    <path class="cls-11" d="M16.84,288c.51.44,1.23.17,1.75.53a.83.83,0,0,1-.2.57c-.22.31-.4.53.05.83.27.18.08.45-.2.48-.94.08-.93.08-1.25.88-.12.29-.53.43-.3.93.09.18-.48.14-.79.21a3.7,3.7,0,0,1,.18,1.15c-.5-.35-.77-.18-1,.34-.28.68-.4.68-1.08.25a13.85,13.85,0,0,1,1.09-2.46C15.73,290.45,16.28,289.2,16.84,288Z" transform="translate(0.11 -213.61)"/>
    <path class="cls-12" d="M19.68,320.3c0-.18-.19-.42.21-.52s.64-.48.88-.8-.07-.32-.27-.35a10.43,10.43,0,0,1,3-.48c.78-.12,1.57-.16,2.33-.35.19-.05.45-.14.52.13s-.2.3-.38.4a10,10,0,0,1-3,.94A15.14,15.14,0,0,0,19.68,320.3Z" transform="translate(0.11 -213.61)"/>
    <path class="cls-13" d="M54.42,250.76c-.28,0-.46-.09-.34-.43a25.22,25.22,0,0,0,1-4.57c.12-.62.78-1,1-1.62.06-.18.37,0,.55.07A11.72,11.72,0,0,0,55.38,248,7.19,7.19,0,0,1,54.42,250.76Z" transform="translate(0.11 -213.61)"/>
    <path class="cls-14" d="M57.21,242.3a9.4,9.4,0,0,1,3.12-4.42c.2-.18.46-.8.94-.27,0,.32-.24.48-.44.6a7.13,7.13,0,0,0-2.46,3c-.21.41-.44.82-.66,1.23A.39.39,0,0,1,57.21,242.3Z" transform="translate(0.11 -213.61)"/>
    <path class="cls-13" d="M63.36,297.28a10.2,10.2,0,0,1-3.09,1.51,23.73,23.73,0,0,1-2.92,1c-.22,0-.43.22-.66,0a8.38,8.38,0,0,1,2.22-.94c1.49-.62,2.92-1.4,4.47-1.89C63.47,297.08,63.48,297.18,63.36,297.28Z" transform="translate(0.11 -213.61)"/>
    <path class="cls-1" d="M49.5,301.87c-.46,0-.73.13-.36.59a1.29,1.29,0,0,0,.77.55,1.36,1.36,0,0,1,1.16,1c-.49-.45-1.23-.14-1.71-.66a.64.64,0,0,0-1-.05c-.31.33-.6,0-.89,0s-.3-.36-.4-.62c.38-.15.83,0,1.17-.26s.56-.28.33-.67A1.66,1.66,0,0,1,49.5,301.87Z" transform="translate(0.11 -213.61)"/>
    <path class="cls-15" d="M62.32,303.13a5.64,5.64,0,0,1-2.86.27,25.14,25.14,0,0,1-2.62-.45c-.15-.13-.36-.24-.18-.5.43-.06.8.28,1.16.26,1.24-.09,2.42.45,3.65.25A1.28,1.28,0,0,1,62.32,303.13Z" transform="translate(0.11 -213.61)"/>
    <path class="cls-16" d="M53.52,277.76a.64.64,0,0,1-.61.79c-1.27.17-2.42.81-3.7.88l-.78.05c-.17-.14-.43,0-.59-.18,1.1-.26,2.18-.56,3.28-.78A15.56,15.56,0,0,0,53.52,277.76Z" transform="translate(0.11 -213.61)"/>
    <path class="cls-17" d="M84.7,224.13c.22-.83,1-1.37,1.22-2.17a3.15,3.15,0,0,0,.38-1.24.49.49,0,0,1,.34-.46.39.39,0,0,1,.55,0c-.41.89-.81,1.78-1.21,2.67-.44.29-.53.79-.75,1.22a.85.85,0,0,1-.33.74C84.62,224.7,84.72,224.4,84.7,224.13Z" transform="translate(0.11 -213.61)"/>
    <path class="cls-18" d="M95.1,261.51c-.06-.16-.23-.37-.17-.47.55-1.07,1-2.25,2.13-2.86,0,.22.06.47-.1.67C96.29,259.7,95.82,260.69,95.1,261.51Z" transform="translate(0.11 -213.61)"/>
    <path class="cls-6" d="M27.05,305.21a4,4,0,0,1-.4-.32.31.31,0,0,1-.06-.4c.06-.11.22-.18.3-.12.46.37,1.14-.22,1.56.37.11.15.26,0,.37-.1a.64.64,0,0,1,.5-.09.35.35,0,0,1,.31.28c0,.19-.15.19-.28.26a6.15,6.15,0,0,1-1.82.17A.8.8,0,0,1,27.05,305.21Z" transform="translate(0.11 -213.61)"/>
    <path class="cls-2" d="M20,280a.89.89,0,0,0,.67.58,3.35,3.35,0,0,1,1.61.84c-.5.32-1,.2-1.51.4-.15.07-.18,0-.19-.14,0-.66-.49-.76-1-.81A2.37,2.37,0,0,1,20,280Z" transform="translate(0.11 -213.61)"/>
    <path class="cls-19" d="M99.14,280.51c-1.23.07-2.45.05-3.68,0a.37.37,0,0,1-.11-.35c.15-.39.55-.13.79-.28A14.21,14.21,0,0,0,99,280C99.12,280.17,99.24,280.3,99.14,280.51Z" transform="translate(0.11 -213.61)"/>
    <path class="cls-20" d="M44.31,280.56c-.08.37-.44.4-.68.46a10.61,10.61,0,0,1-2.82.76c-.16-.06-.26-.15-.19-.33l2.31-.88c.43.2.77-.23,1.18-.15A.48.48,0,0,1,44.31,280.56Z" transform="translate(0.11 -213.61)"/>
    <path class="cls-21" d="M18.41,283.88a1.31,1.31,0,0,0,.25.22c.4.22.71.43,0,.7-.4.15-.19.37,0,.45a4.61,4.61,0,0,0,.84.15.25.25,0,0,1,.22.23c0,.14-.1.19-.23.21-.52.06-1.09.29-1.39-.43,0-.07-.2-.08-.31-.11A6.49,6.49,0,0,1,18.41,283.88Z" transform="translate(0.11 -213.61)"/>
    <path class="cls-22" d="M62,313.71c-.17.57-.67.2-1,.25a3.76,3.76,0,0,1-2.54-.09c-.16-.2,0-.25.14-.33a2.8,2.8,0,0,1,2,.15.8.8,0,0,0,.68-.08A.51.51,0,0,1,62,313.71Z" transform="translate(0.11 -213.61)"/>
    <path class="cls-23" d="M44.31,280.56a.3.3,0,0,1-.15-.05.17.17,0,0,1,0-.28c1.2-.41,2.49-.48,3.68-.93.18.11.45-.06.59.18-1,.29-2,.55-3,.87C45.09,280.48,44.69,280.44,44.31,280.56Z" transform="translate(0.11 -213.61)"/>
    <path class="cls-24" d="M84.7,224.13c.29.2.13.51.2.76a2.46,2.46,0,0,1-.75,1.2c-.57-.34-.35-.78-.11-1.18A8,8,0,0,1,84.7,224.13Z" transform="translate(0.11 -213.61)"/>
    <path class="cls-25" d="M73.43,242.85c0-.59.51-.95.75-1.44a.83.83,0,0,1,.82-.35,14.85,14.85,0,0,1-1.37,2.13C73.31,243.23,73.31,243.08,73.43,242.85Z" transform="translate(0.11 -213.61)"/>
    <path class="cls-26" d="M99.14,280.51A.86.86,0,0,1,99,280a14,14,0,0,0,2-.05c.29,0,.61,0,.59.41A8.24,8.24,0,0,1,99.14,280.51Z" transform="translate(0.11 -213.61)"/>
    <path class="cls-27" d="M27.12,261.52c-.81-.41-.57-1.24-.73-1.89-.07-.29.3-.18.46-.25.11.42.24.84.32,1.27S27.4,261.24,27.12,261.52Z" transform="translate(0.11 -213.61)"/>
    <path class="cls-28" d="M80.1,232.76a2.08,2.08,0,0,1,.83-1.66.64.64,0,0,0,.26-.53.67.67,0,0,1,.54-.59c.1.63-.36,1-.65,1.47A4.83,4.83,0,0,1,80.1,232.76Z" transform="translate(0.11 -213.61)"/>
    <path class="cls-29" d="M40.62,281.45l.19.33c-.57.27-1.07.73-1.78.55a.47.47,0,0,1-.19-.38A3.22,3.22,0,0,1,40.62,281.45Z" transform="translate(0.11 -213.61)"/>
    <path class="cls-30" d="M73.43,242.85a.31.31,0,0,0,.2.34A8.67,8.67,0,0,1,72.39,245a.28.28,0,0,1-.22-.24A4,4,0,0,1,73.43,242.85Z" transform="translate(0.11 -213.61)"/>
    <path class="cls-31" d="M75,273.66c-.69-.17-1.48,0-2.25-.51.87-.4,1.57.11,2.28.06h0C75.06,273.37,75.13,273.52,75,273.66Z" transform="translate(0.11 -213.61)"/>
    <path class="cls-32" d="M72.17,244.76a.38.38,0,0,1,.22.24,5.09,5.09,0,0,1-1.07,1.53c0-.15-.41-.15-.25-.36C71.44,245.7,71.58,245.05,72.17,244.76Z" transform="translate(0.11 -213.61)"/>
    <path class="cls-33" d="M38.84,282a.32.32,0,0,1,.19.38l-.35.25c-.69.54-.69.54-1.25-.1A4.55,4.55,0,0,1,38.84,282Z" transform="translate(0.11 -213.61)"/>
    <path class="cls-34" d="M65.67,314.07c-.34.59-.9.14-1.34.25-.29.07-.65-.16-1-.26-.08-.32.25-.22.36-.34C64.32,314.11,65.07,313.69,65.67,314.07Z" transform="translate(0.11 -213.61)"/>
    <path class="cls-35" d="M87.35,219.19c-.17,0-.33,0-.38-.23a7,7,0,0,1,1.11-1.83c.23.16.15.33.12.49A4.29,4.29,0,0,1,87.35,219.19Z" transform="translate(0.11 -213.61)"/>
    <path class="cls-36" d="M56,240.88c-.06.3-.23.35-.51.26s-.21-.21-.27-.41a1.82,1.82,0,0,1,.3-1.46c.28.24.07.55.12.81S55.56,240.74,56,240.88Z" transform="translate(0.11 -213.61)"/>
    <path class="cls-37" d="M96.14,279.89c-.16.26-.55,0-.69.29a3.37,3.37,0,0,1-2.3,0l.18-.28A24,24,0,0,1,96.14,279.89Z" transform="translate(0.11 -213.61)"/>
    <path class="cls-38" d="M2.17,306.28s.06,0,.07.05c.13.31.4.7.07.92s-.65-.16-.84-.49A1.63,1.63,0,0,1,2.17,306.28Z" transform="translate(0.11 -213.61)"/>
    <path class="cls-39" d="M56,313.49a4.88,4.88,0,0,0-1-.36c-.45-.17,0-.31,0-.46a3.49,3.49,0,0,1,1.27.31.65.65,0,0,1-.09.3A.81.81,0,0,1,56,313.49Z" transform="translate(0.11 -213.61)"/>
    <path class="cls-40" d="M28.68,265.92a2.3,2.3,0,0,1,1.15-2A8.61,8.61,0,0,1,28.68,265.92Z" transform="translate(0.11 -213.61)"/>
    <path class="cls-41" d="M56.31,302.93c-.63.19-1.08-.35-1.67-.37a.6.6,0,0,1,.48-.47c.06.28.31.27.51.35C55.8,302.68,56.48,302.2,56.31,302.93Z" transform="translate(0.11 -213.61)"/>
    <path class="cls-42" d="M74.84,303.64c-.83.11-1.68.41-2.48-.14A6.9,6.9,0,0,1,74.84,303.64Z" transform="translate(0.11 -213.61)"/>
    <path class="cls-43" d="M75,273.66l0-.44c.39.21.89.07,1.22.42,0,.15.31.38-.12.4S75.4,273.71,75,273.66Z" transform="translate(0.11 -213.61)"/>
    <path class="cls-44" d="M57.21,242.3a.84.84,0,0,1,.5.17c-.13.26-.19.59-.52.71a.41.41,0,0,1-.44.07A4.9,4.9,0,0,1,57.21,242.3Z" transform="translate(0.11 -213.61)"/>
    <path class="cls-45" d="M101.62,280.4c-.12-.25-.38-.29-.59-.41.3-.21.64-.07,1-.12.28.11.59.2.35.61-.16.17-.35.06-.53.08A.23.23,0,0,1,101.62,280.4Z" transform="translate(0.11 -213.61)"/>
    <path class="cls-46" d="M89,279.7c-.07.34.26.3.58.44a2.43,2.43,0,0,1-1.6.1c.14-.44.64-.25.81-.55Z" transform="translate(0.11 -213.61)"/>
    <path class="cls-47" d="M87.35,219.19a5.2,5.2,0,0,1,.85-1.57,6.45,6.45,0,0,1-.53,1.7c0,.13-.19.1-.29.11Z" transform="translate(0.11 -213.61)"/>
    <path class="cls-48" d="M94.05,262.92a1.22,1.22,0,0,1-.66.23c0-.64.55-.74.9-1,.16.27-.12.46-.07.69S94.15,262.93,94.05,262.92Z" transform="translate(0.11 -213.61)"/>
    <path class="cls-7" d="M33.14,305.79c.53,0,1-.31,1.59,0,.19.09.36.17.43.38A7,7,0,0,1,33.14,305.79Z" transform="translate(0.11 -213.61)"/>
    <path class="cls-49" d="M72,303.51c-.68.45-1.42,0-2.12.12-.06-.21,0-.32.22-.39.26.13.56.11.82.24C71.31,303.19,71.67,303.38,72,303.51Z" transform="translate(0.11 -213.61)"/>
    <path class="cls-50" d="M63.36,297.28c0-.1,0-.21,0-.32.36.07.44-.47.81-.37.12,0,.44,0,.22.25A1.12,1.12,0,0,1,63.36,297.28Z" transform="translate(0.11 -213.61)"/>
    <path class="cls-51" d="M102.34,280.48c0-.29-.23-.41-.35-.61a3.13,3.13,0,0,1,1.1,0C103,280.34,102.62,280.33,102.34,280.48Z" transform="translate(0.11 -213.61)"/>
    <path class="cls-52" d="M28.48,325.68H26A4.41,4.41,0,0,1,28.48,325.68Z" transform="translate(0.11 -213.61)"/>
    <path class="cls-53" d="M70.07,303.3l-.17.33A.74.74,0,0,1,69,303c.29-.1.49.17.75.17C69.83,303.25,70,303.17,70.07,303.3Z" transform="translate(0.11 -213.61)"/>
    <path class="cls-54" d="M85.23,224.15a2.51,2.51,0,0,1,.53-1.33c.08-.14.17,0,.22.11A3.45,3.45,0,0,1,85.23,224.15Z" transform="translate(0.11 -213.61)"/>
    <path class="cls-55" d="M34.32,256.23c-.15,0-.4,0-.33-.25a.74.74,0,0,1,.74-.61c0,.28-.36.46-.26.76C34.47,256.23,34.41,256.25,34.32,256.23Z" transform="translate(0.11 -213.61)"/>
    <path class="cls-56" d="M31.83,259.22c-.21,0-.46,0-.26-.31s.36-.59.77-.57C32.15,258.62,32.13,259,31.83,259.22Z" transform="translate(0.11 -213.61)"/>
    <path class="cls-57" d="M80.12,275c-.11.33.35.37.33.67-.33.19-.48,0-.69-.25s.17-.34.17-.53C80,274.9,80.1,274.93,80.12,275Z" transform="translate(0.11 -213.61)"/>
    <path class="cls-58" d="M87.19,220.26h-.55c.21-.26.19-.74.7-.72C87.33,219.79,87.39,220.06,87.19,220.26Z" transform="translate(0.11 -213.61)"/>
    <path class="cls-39" d="M58.6,313.54l-.14.33a.28.28,0,0,1-.22-.21c-.3-.1-.67.11-.9-.22,0-.24.27-.14.38-.24C58.11,313.07,58.35,313.33,58.6,313.54Z" transform="translate(0.11 -213.61)"/>
    <path class="cls-59" d="M29.88,263.8c-.33-.59,0-.88.5-1.07A3.74,3.74,0,0,1,29.88,263.8Z" transform="translate(0.11 -213.61)"/>
    <path class="cls-60" d="M56.31,302.93c0-.52-.55-.2-.68-.49h1l.18.5Z" transform="translate(0.11 -213.61)"/>
    <path class="cls-61" d="M44.16,280.23v.28c-.41-.08-.79.55-1.23.06Z" transform="translate(0.11 -213.61)"/>
    <path class="cls-62" d="M63.71,313.72c-.05.2-.33.13-.36.34a.69.69,0,0,0-.72-.08c-.22.11-.3,0-.32-.23Z" transform="translate(0.11 -213.61)"/>
    <path class="cls-5" d="M57.72,313.2c-.08.15-.23.15-.37.17a.65.65,0,0,1-.23.13,1.47,1.47,0,0,1-1-.28.33.33,0,0,1,.2-.24C56.77,313.28,57.27,313.1,57.72,313.2Z" transform="translate(0.11 -213.61)"/>
    <path class="cls-63" d="M64.08,303c-.4.62-.92.33-1.42.19A11.26,11.26,0,0,0,64.08,303Z" transform="translate(0.11 -213.61)"/>
    <path class="cls-64" d="M20.5,301.35c-.39,0-.33-.3-.28-.57.29,0,.37.21.49.39A.23.23,0,0,1,20.5,301.35Z" transform="translate(0.11 -213.61)"/>
    <path class="cls-65" d="M51.75,256.75l.3.17c-.13.31-.17.68-.48.9h0C51.24,257.39,51.43,257.06,51.75,256.75Z" transform="translate(0.11 -213.61)"/>
    <path class="cls-2" d="M70.07,303.3c-.12,0-.27,0-.33-.15a1.36,1.36,0,0,1,1.2.33A1.27,1.27,0,0,1,70.07,303.3Z" transform="translate(0.11 -213.61)"/>
    <path class="cls-66" d="M94.62,262.25c0-.36-.12-.78.48-.74A1.2,1.2,0,0,1,94.62,262.25Z" transform="translate(0.11 -213.61)"/>
    <path class="cls-67" d="M65.66,253a3.61,3.61,0,0,1,1.85-2.16A5.92,5.92,0,0,1,65.66,253Z" transform="translate(0.11 -213.61)"/>
    <path class="cls-68" d="M51.75,256.75c0,.36-.31.68-.19,1.07a.41.41,0,0,1-.42-.51C51.19,257,51.35,256.73,51.75,256.75Z" transform="translate(0.11 -213.61)"/>
    <path class="cls-69" d="M68.54,249.59a1,1,0,0,1,.64-.71C69.24,249.43,69,249.48,68.54,249.59Z" transform="translate(0.11 -213.61)"/>
    <path class="cls-70" d="M52.93,253.56c-.17-.08-.14-.24-.11-.36s.1-.3.26-.26a.26.26,0,0,1,.21.32A.39.39,0,0,1,52.93,253.56Z" transform="translate(0.11 -213.61)"/>
    <path class="cls-71" d="M65.09,253.62a1,1,0,0,1-.9.56C64.52,253.92,64.68,253.63,65.09,253.62Z" transform="translate(0.11 -213.61)"/>
    <path class="cls-72" d="M53.26,252.38c-.06-.36,0-.56.23-.68,0,0,.13,0,.13.08C53.67,252,53.55,252.2,53.26,252.38Z" transform="translate(0.11 -213.61)"/>
    <path class="cls-73" d="M93.15,280.16a22.06,22.06,0,0,1,2.3,0v.34c-1.06.06-2.12.15-3.19.17a2.52,2.52,0,0,1-1.33-.38A6.35,6.35,0,0,1,93.15,280.16Z" transform="translate(0.11 -213.61)"/>
    <path class="cls-74" d="M90.69,266.44a2.51,2.51,0,0,1,1.06-1.1c-.18.65-.63.9-.87,1.29A.21.21,0,0,1,90.69,266.44Z" transform="translate(0.11 -213.61)"/>
    <path class="cls-75" d="M90.69,266.44l.19.19c-.2.23-.32.54-.67.6,0,0-.11-.08-.11-.11A1,1,0,0,1,90.69,266.44Z" transform="translate(0.11 -213.61)"/>
    <path class="cls-44" d="M89.57,267.94a.46.46,0,0,1,0,.55c-.1.1-.25.27-.43.14s0-.29.08-.39S89.38,268,89.57,267.94Z" transform="translate(0.11 -213.61)"/>
    <path class="cls-76" d="M87.43,279.93a.7.7,0,0,1-.93-.41A1.49,1.49,0,0,1,87.43,279.93Z" transform="translate(0.11 -213.61)"/>
    <path class="cls-77" d="M92.54,264.4a1.45,1.45,0,0,1-.49.58c-.19-.14,0-.27,0-.4C92.05,264.13,92.32,264.4,92.54,264.4Z" transform="translate(0.11 -213.61)"/>
    <path class="cls-78" d="M26.07,257.76a.73.73,0,0,1,.28.63c0,.15-.05.33-.22.28-.35-.09-.06-.48-.26-.68S25.89,257.78,26.07,257.76Z" transform="translate(0.11 -213.61)"/>
    <path class="cls-38" d="M5.69,310.62c.26.11.64.21.52.57s-.14.95-.6,1.05-.62-.31-.71-.66S5.43,310.62,5.69,310.62Z" transform="translate(0.11 -213.61)"/>
    <path class="cls-11" d="M18.59,288.49a.39.39,0,0,1,.62-.32c.45.58,1.14.4,1.68.67.06.82-.79,1-1.07,1.63-.07.13-1-.36-1-.59a1.11,1.11,0,0,1,.19-1.13c.09-.1.18-.27,0-.37S18.73,288.46,18.59,288.49Z" transform="translate(0.11 -213.61)"/>
    <path class="cls-11" d="M18,292.42c0-.26-.17-.33-.33-.42s-.31-.17-.24-.4c1,.31,1.1.62.54,2.07-.22,0-.32-.24-.48-.37a.68.68,0,0,1-.26-.85C17.46,292,17.73,292.65,18,292.42Z" transform="translate(0.11 -213.61)"/>
    <path class="cls-64" d="M20.28,296.6c-.59.12.35.68-.25.83-.14,0-.73-1-.73-1.2a.42.42,0,0,1,.29-.38c.16-.08.27,0,.38.1A1,1,0,0,1,20.28,296.6Z" transform="translate(0.11 -213.61)"/>
    <path class="cls-64" d="M18.91,301.45c-.2,0-.93-.49-.9-.62s.13-.46.43-.48a3.52,3.52,0,0,1,.84.92C19.26,301.54,19.09,301.51,18.91,301.45Z" transform="translate(0.11 -213.61)"/>
    <path class="cls-79" d="M68.89,303.34a1.15,1.15,0,0,1-.73.15.26.26,0,0,1-.31-.15C68.14,303,68.44,303.11,68.89,303.34Z" transform="translate(0.11 -213.61)"/>
    <path class="cls-26" d="M56.15,313.22l1.06.18a.18.18,0,0,1,0,.28c-.42.07-.78-.22-1.19-.19Z" transform="translate(0.11 -213.61)"/>
    <path class="cls-80" d="M57.21,313.68v-.28a.32.32,0,0,1,.14,0c.22.32.67,0,.89.29A1,1,0,0,1,57.21,313.68Z" transform="translate(0.11 -213.61)"/>
    <path class="cls-4" d="M28.06,286.7c.5-.2.89-.37,1-.87a.2.2,0,0,1,.28-.13c.2.06.19.18.09.33s-.22.19-.13.29c.35.42,0,.72-.24.85S28.4,287.07,28.06,286.7Z" transform="translate(0.11 -213.61)"/>
    <path class="cls-4" d="M26.66,286.16c-.39,0-.75,0-.66-.49,0-.14,0-.34.22-.29C26.61,285.48,26.49,285.87,26.66,286.16Z" transform="translate(0.11 -213.61)"/>
  </g>
</svg>
