<svg id="Layer_1" data-name="Layer 1" xmlns="http://www.w3.org/2000/svg" viewBox="0 0 909.77 970">
  <defs>
    <style>
      .cls-1 {
        fill: #cf1382;
        opacity: 0.45;
      }
    </style>
  </defs>
  <polygon class="cls-1" points="508.07 0.56 508.07 306.64 129.97 306.64 508.07 0.56"/>
  <polygon class="cls-1" points="129.97 331.96 465.87 331.96 415.23 397.79 129.97 331.96"/>
  <polygon class="cls-1" points="418.61 424.8 418.61 490.63 129.97 546.33 418.61 424.8"/>
  <polygon class="cls-1" points="430.42 512.57 508.07 568.27 394.98 851.85 430.42 512.57"/>
  <polygon class="cls-1" points="508.07 620.6 508.07 873.79 418.61 851.85 508.07 620.6"/>
  <polygon class="cls-1" points="437.18 9.56 258.25 93.96 150.23 245.88 437.18 9.56"/>
  <polygon class="cls-1" points="129.97 355.59 129.97 517.63 325.77 424.8 129.97 355.59"/>
  <polygon class="cls-1" points="129.97 583.46 212.68 723.56 394.98 536.2 129.97 583.46"/>
  <polygon class="cls-1" points="386.54 608.78 374.72 851.85 238 759.01 386.54 608.78"/>
  <polygon class="cls-1" points="531.67 873.23 531.67 567.15 909.77 567.15 531.67 873.23"/>
  <polygon class="cls-1" points="909.77 541.83 573.87 541.83 624.51 476 909.77 541.83"/>
  <polygon class="cls-1" points="621.13 448.99 621.13 383.16 909.77 327.46 621.13 448.99"/>
  <polygon class="cls-1" points="609.32 361.22 531.67 305.52 644.77 21.94 609.32 361.22"/>
  <polygon class="cls-1" points="531.67 253.19 531.67 0 621.13 21.94 531.67 253.19"/>
  <polygon class="cls-1" points="602.57 864.22 781.49 779.83 889.52 627.91 602.57 864.22"/>
  <polygon class="cls-1" points="909.77 518.2 909.77 356.15 713.97 448.99 909.77 518.2"/>
  <polygon class="cls-1" points="909.77 290.32 827.06 150.23 644.77 337.59 909.77 290.32"/>
  <polygon class="cls-1" points="653.21 265.01 665.02 21.94 801.74 114.78 653.21 265.01"/>
  <polygon class="cls-1" points="15.19 502.44 15.19 689.8 38.82 502.44 15.19 502.44"/>
  <polygon class="cls-1" points="27.01 708.37 221.12 885.6 38.82 672.92 27.01 708.37"/>
  <polygon class="cls-1" points="221.12 910.92 227.87 937.93 325.77 970 221.12 910.92"/>
  <polygon class="cls-1" points="238 885.6 274.29 885.6 339.27 954.81 238 885.6"/>
  <polygon class="cls-1" points="27.01 424.8 0 441.68 27.01 472.06 27.01 424.8"/>
  <polygon class="cls-1" points="50.64 424.8 65.83 436.61 50.64 455.18 50.64 424.8"/>
  <polygon class="cls-1" points="27.01 379.22 27.01 316.77 38.82 389.35 27.01 379.22"/>
  <polygon class="cls-1" points="13.5 316.77 0 217.18 32.91 196.93 13.5 316.77"/>
  <polygon class="cls-1" points="50.64 203.68 65.83 217.18 50.64 306.64 50.64 203.68"/>
</svg>
