<svg xmlns="http://www.w3.org/2000/svg" viewBox="0 0 844.81 617.37">
  <defs>
    <style>
      .cls-1, .cls-12 {
        fill: #824096;
      }

      .cls-14, .cls-2 {
        fill: #d21685;
      }

      .cls-3, .cls-9 {
        fill: #f26826;
      }

      .cls-4 {
        fill: #eb232d;
      }

      .cls-11, .cls-5 {
        fill: #16a34a;
      }

      .cls-13, .cls-6 {
        fill: #1e4897;
      }

      .cls-7 {
        fill: #dfdb23;
      }

      .cls-8 {
        fill: #d01582;
      }

      .cls-10, .cls-11, .cls-12, .cls-13, .cls-9 {
        font-size: 119.87px;
      }

      .cls-10, .cls-11, .cls-12, .cls-13, .cls-14, .cls-15, .cls-9 {
        font-family: CreativeMind, Creative Mind;
      }

      .cls-10 {
        fill: none;
      }

      .cls-14 {
        font-size: 157.26px;
        letter-spacing: 0.2em;
      }

      .cls-15 {
        font-size: 147.92px;
        fill: #0e2030;
        letter-spacing: 0.2em;
      }
    </style>
  </defs>
  <g id="Layer_1" data-name="Layer 1">
    <g>
      <g>
        <path class="cls-1" d="M510.64,427.67l27.15,38.05-29.06,72,.57-110.07S510,426.77,510.64,427.67Z" transform="translate(-90.4 -243.12)"/>
        <path class="cls-2" d="M469.25,411.7s-17.12,20.84-17.5,21.32.38,1.63,1.91,3.54,41.59,50,42.54,50,1.34-1.34,1.06-1.91-26.49-72.95-26.49-72.95S469.74,411.1,469.25,411.7Z" transform="translate(-90.4 -243.12)"/>
        <path class="cls-3" d="M465.23,373.37s1.15-.19,4.3,3,35.28,33,35.28,33l.19,64.15s-1.72,1.72-3.63-3.92l-1.92-5.64-20-52.47S465,375.66,465.23,373.37Z" transform="translate(-90.4 -243.12)"/>
        <path class="cls-4" d="M457.39,354.73s101.72-45.51,102.68-45.51,1.14.38,0,3.06-25.72,47.13-25.72,47.13l-23.71,42.06-43-36.32-10.23-8.7S456.58,355.09,457.39,354.73Z" transform="translate(-90.4 -243.12)"/>
        <path class="cls-5" d="M532,243.12l40.34,50s1.05.09-1,1.24S519,318.68,519,318.68l-69,32.32s-2.58,1.14-1.14-2.39S496.68,287,496.68,287l33.84-43.31A2.47,2.47,0,0,1,532,243.12Z" transform="translate(-90.4 -243.12)"/>
        <path class="cls-6" d="M429.76,258.93h74.95a1.59,1.59,0,0,1,0,2.3c-1.14,1.15-18.64,24.38-19.12,24.57s-55.83-24.95-55.83-24.95S428.42,259.79,429.76,258.93Z" transform="translate(-90.4 -243.12)"/>
        <path class="cls-1" d="M404.52,283.79l72.85,5.64s1.44.48,0,2.29-32.31,44.17-32.31,44.17-1.43,2.49-2.53,0C442.53,335.89,404.33,286.37,404.52,283.79Z" transform="translate(-90.4 -243.12)"/>
        <path class="cls-3" d="M330.43,289.81l37.19-30.59s1.34-1.24,2.11,0,37.18,49.43,37.18,49.43l30.69,40.82s.77,2.2-1.91,1.24-30.11-16.92-30.11-16.92l-74.29-42A1.51,1.51,0,0,1,330.43,289.81Z" transform="translate(-90.4 -243.12)"/>
        <path class="cls-7" d="M324.79,249.85l28.78,9.27s1.53.67,0,1.92-21,18.35-21,18.35-1.52,1.53-2.24-.38-6.94-27.15-6.94-27.15S322.88,249.85,324.79,249.85Z" transform="translate(-90.4 -243.12)"/>
        <path class="cls-4" d="M318.29,297.08l96.94,52.1s3,1.82-.86,2.29-51.43,5-51.43,5L330.3,360l-8.95-44.36-3.63-17.39S317.32,296.55,318.29,297.08Z" transform="translate(-90.4 -243.12)"/>
        <path class="cls-2" d="M390.57,273.5,450.35,280s2.6-.58-.37-2.25-32.69-13-32.69-13L375.7,247.65s-3.25-.71-.67,2.87S390.57,273.5,390.57,273.5Z" transform="translate(-90.4 -243.12)"/>
        <path class="cls-1" d="M645.72,270.5,611.12,321a1.89,1.89,0,0,1-2.39-.86c-1.15-1.53-14.82-17.93-14.82-17.93l-26.44-31L557.15,259s-.33-1,1.1-1S597,262.38,597,262.38l48.75,6.46S646.46,270.12,645.72,270.5Z" transform="translate(-90.4 -243.12)"/>
        <path class="cls-7" d="M671.63,315.53,666.56,352s.58,1.34,1.92,0,53.63-46.46,53.63-46.46,1.34-2.1-1.24-1.82S671.63,315.53,671.63,315.53Z" transform="translate(-90.4 -243.12)"/>
        <path class="cls-6" d="M679,258.55l-5.83,46.18,50.44-8.13s.9-1-.73-2-41.77-36.42-41.77-36.42S679.28,256.28,679,258.55Z" transform="translate(-90.4 -243.12)"/>
        <path class="cls-5" d="M673.16,250.52l-9,61.66-5.73,38.15s-.67,1.24-2.77.48-38.34-22.71-38.34-22.71-1.82-1,0-2.82,53.54-74.76,53.54-74.76S672.11,249,673.16,250.52Z" transform="translate(-90.4 -243.12)"/>
        <path class="cls-3" d="M575,307.79,650,356s1.91,1.62,0,2.1l-72.85,6.6-33.08,3s-2.49.48-.76-2.2,30.21-57.64,30.21-57.64A1.39,1.39,0,0,1,575,307.79Z" transform="translate(-90.4 -243.12)"/>
        <path class="cls-2" d="M546.68,373.37l20.65,6.88-6.47,42.83a1.56,1.56,0,0,1-2.52-1C557.68,419.92,546.49,375.18,546.68,373.37Z" transform="translate(-90.4 -243.12)"/>
        <path class="cls-7" d="M535.59,373.37S513.32,416,514.08,418.3s17.4,21.8,17.4,21.8L566,484.17s1.72,1.34,1.72-1.05-5.92-22.18-5.92-22.18l-16.54-59.47-7.56-27.62S536.38,371.85,535.59,373.37Z" transform="translate(-90.4 -243.12)"/>
        <path class="cls-4" d="M548.21,471.64l19.5,37.67s1.15,1.43,0,1.91S515,548.89,515,548.89s-1.53,1.05-1-1.53S535.11,498,535.11,498l11.09-25.24A1.61,1.61,0,0,1,548.21,471.64Z" transform="translate(-90.4 -243.12)"/>
        <path class="cls-5" d="M466.47,465.62l30.31,34s1.34.86,0,2.29S467,554.43,467,554.43s-1.34,1.53-1.72,0,0-17.49,0-17.49l-.17-71.32A1,1,0,0,1,466.47,465.62Z" transform="translate(-90.4 -243.12)"/>
        <path class="cls-3" d="M501.18,508.93,501.27,627s-1.91.87-3.34-2.29-33-51.53-33-51.53,1.34-4.38,2-5.15S499.55,508.16,501.18,508.93Z" transform="translate(-90.4 -243.12)"/>
        <path class="cls-6" d="M556,535.31l-48.56,31.93v39.2a2.11,2.11,0,0,0,3-1c1.25-2,27.44-40.43,27.44-40.43l19.31-28S557.12,534.55,556,535.31Z" transform="translate(-90.4 -243.12)"/>
        <path class="cls-5" d="M559.68,546.6l-52.29,79.82s-.29,2,2.49.68,57.64-29.36,57.64-29.36L561.4,546.6S560.38,545.53,559.68,546.6Z" transform="translate(-90.4 -243.12)"/>
        <path class="cls-7" d="M546.78,617l-38.72,19.69a1.13,1.13,0,0,0,0,1.63c.76,1,16.16,25,16.16,25s1.24.95,1.91-.67S547.92,618,547.92,618,548.22,616.22,546.78,617Z" transform="translate(-90.4 -243.12)"/>
        <path class="cls-4" d="M458.82,578.43,524,680.53s1.06,3-2.1,1.82-50-20-50-20L393.24,631.2s-1.24-.67.48-2,42.73-33.65,42.73-33.65l20.18-16.25S457.77,578.05,458.82,578.43Z" transform="translate(-90.4 -243.12)"/>
        <path class="cls-6" d="M474.57,672.09l29.82,14.53a2.23,2.23,0,0,1,0,2.8c-1.14,1.4-37.73,42.19-37.73,42.19s-1.65,1-1.65-1S474.57,672.09,474.57,672.09Z" transform="translate(-90.4 -243.12)"/>
        <path class="cls-1" d="M406.37,645.32l60,22.18s1.91,1.4,0,2S397.19,681,397.19,681l-77,12.49s-2.42.13-.76-2l53.41-28Z" transform="translate(-90.4 -243.12)"/>
        <path class="cls-3" d="M304.53,638.94l72.27,11.22s2,1.4,0,2.3-62.08,30.15-62.08,30.15-.51-.45-1.14-3.13S304.4,641,304.53,638.94Z" transform="translate(-90.4 -243.12)"/>
        <path class="cls-2" d="M304.52,631.3s21.29-13.77,22.06-14,17.72,20.39,17.72,20.39,1.27,1.53-.9,1.27-38.88-6-38.88-6S303.22,632.14,304.52,631.3Z" transform="translate(-90.4 -243.12)"/>
        <path class="cls-7" d="M459.27,698.09l-94.83-2.55s-1.92-1.4,1.4-2,100.57-17.72,100.57-17.72a1.51,1.51,0,0,1,.85,1.79C466.92,678.84,459.27,698.09,459.27,698.09Z" transform="translate(-90.4 -243.12)"/>
        <path class="cls-8" d="M345.19,740,458.5,705.36s.9-.13.9,1.27v18.23L345.83,741.81S344,741.68,345.19,740Z" transform="translate(-90.4 -243.12)"/>
        <path class="cls-5" d="M318.86,701.15s10.65,34.92,11.54,35.31,15.68-4.08,15.68-4.08l84.26-24.86s2.8-.89,0-2.8Z" transform="translate(-90.4 -243.12)"/>
        <path class="cls-5" d="M271.77,611.28h49.07s1.15.64,0,1.92-39.39,27.91-39.39,27.91-1.78,1.28-2.42-1.15-7.26-26.64-7.26-26.64S271.13,611.28,271.77,611.28Z" transform="translate(-90.4 -243.12)"/>
        <path class="cls-7" d="M288.72,576l10.45,26.76s.26.9-1.15,1.15-24,0-24,0-.89-.64,0-1.66,13.13-25.49,13.13-25.49S287.32,575.47,288.72,576Z" transform="translate(-90.4 -243.12)"/>
        <path class="cls-6" d="M255.07,560.17h31.36a3.58,3.58,0,0,1,0,2.17c-.39,1.14-18.36,36.71-18.36,36.71a1.34,1.34,0,0,1-1.91-1C265.78,596.37,255.07,560.17,255.07,560.17Z" transform="translate(-90.4 -243.12)"/>
        <path class="cls-3" d="M241.56,546.66l32.1,97.26s.27.89-1.51,2.16-39.52,23.33-39.52,23.33-2,.89-1.91-1.4,4.21-54.56,4.21-54.56l4.84-66.79S241.3,545.89,241.56,546.66Z" transform="translate(-90.4 -243.12)"/>
        <path class="cls-1" d="M208.42,560.17h22.3l-1.78,27.28-5.87,75.84s-2.16,1.15-2.42-1.53-7-57.76-7-57.76Z" transform="translate(-90.4 -243.12)"/>
        <path class="cls-4" d="M199.75,559.15l-37.48-13.77s-1.53.39,0,3.06,18.4,37.22,18.4,37.22l27.75,54.05s1.65,2.29,1.14-1.15S199.75,559.15,199.75,559.15Z" transform="translate(-90.4 -243.12)"/>
        <path class="cls-4" d="M292.8,639l-69.73,46.88s-.89.51,1.79,1.91,61.95,29.32,61.95,29.32l33.39,16.19s1.41,1.15.77-2.17-10.07-34.92-10.07-34.92l-16.32-56.34S294.16,638.06,292.8,639Z" transform="translate(-90.4 -243.12)"/>
      </g>
      <text class="cls-9" transform="matrix(0.12, 0.99, -0.99, 0.12, 486.24, 141.83)"> </text>
      <text class="cls-10" transform="translate(492.27 197.05) rotate(88.37)">A</text>
      <text class="cls-11" transform="translate(493.48 276.89) rotate(95.55)">G</text>
      <text class="cls-12" transform="translate(483.68 359.45) rotate(107.65)">R</text>
      <text class="cls-13" transform="matrix(-0.58, 0.82, -0.82, -0.58, 455.1, 434.52)">I</text>
      <text class="cls-10" transform="matrix(-0.84, 0.54, -0.54, -0.84, 437.02, 466.87)">T</text>
      <text class="cls-13" transform="translate(358.7 509.86) rotate(167.67)">I</text>
      <text class="cls-13" transform="translate(307.84 518.52) rotate(-179.34)"> </text>
      <g>
        <polygon class="cls-4" points="412.71 576.39 478.42 532.31 417.4 549.73 412.71 576.39"/>
        <polygon class="cls-4" points="440.48 543.14 412.78 482.37 390.89 496.39 440.48 543.14"/>
      </g>
      <path class="cls-3" d="M582.76,443.58l2,51.94,77.18-28.43S582.72,442.28,582.76,443.58Zm19,17.65L620.11,469,604,476.84Z" transform="translate(-90.4 -243.12)"/>
    </g>
  </g>
  <g id="Layer_2" data-name="Layer 2">
    <text class="cls-14" transform="translate(628.95 413.08)">23</text>
    <text class="cls-15" transform="translate(636.07 276.36)">20</text>
  </g>
</svg>
