<svg id="Layer_1" data-name="Layer 1" xmlns="http://www.w3.org/2000/svg" viewBox="0 0 1054.16 801.83">
  <defs>
    <style>
      .cls-1, .cls-12 {
        fill: #824296;
      }

      .cls-16, .cls-2 {
        fill: #d11884;
      }

      .cls-3, .cls-9 {
        fill: #f16927;
      }

      .cls-4 {
        fill: #e9262f;
      }

      .cls-11, .cls-5 {
        fill: #1aa44a;
      }

      .cls-13, .cls-6 {
        fill: #1f4997;
      }

      .cls-7 {
        fill: #dfda26;
      }

      .cls-8 {
        fill: #cf1481;
      }

      .cls-10, .cls-11, .cls-12, .cls-13, .cls-9 {
        font-size: 91.78px;
      }

      .cls-10, .cls-11, .cls-12, .cls-13, .cls-15, .cls-16, .cls-9 {
        font-family: CreativeMind, Creative Mind;
      }

      .cls-10 {
        fill: none;
      }

      .cls-14 {
        fill: #fff;
      }

      .cls-15, .cls-16 {
        font-size: 178.76px;
        letter-spacing: 0.2em;
      }

      .cls-15 {
        fill: #f3f3f3;
      }
    </style>
  </defs>
  <g>
    <g>
      <path class="cls-1" d="M674.57,456.78l20.79,29.13-22.25,55.14.44-84.27S674.08,456.09,674.57,456.78Z" transform="translate(-12.22 -115.67)"/>
      <path class="cls-2" d="M642.88,444.55s-13.11,16-13.4,16.33.29,1.24,1.47,2.71,31.84,38.28,32.57,38.28,1-1,.8-1.47-20.27-55.85-20.27-55.85S643.26,444.09,642.88,444.55Z" transform="translate(-12.22 -115.67)"/>
      <path class="cls-3" d="M639.8,415.2s.88-.14,3.3,2.27,27,25.25,27,25.25l.14,49.12s-1.32,1.32-2.78-3L666,484.52l-15.3-40.17S639.66,417,639.8,415.2Z" transform="translate(-12.22 -115.67)"/>
      <path class="cls-4" d="M633.8,400.93s77.88-34.84,78.61-34.84.88.29,0,2.34-19.69,36.09-19.69,36.09l-18.15,32.2-32.94-27.81-7.83-6.66S633.18,401.21,633.8,400.93Z" transform="translate(-12.22 -115.67)"/>
      <path class="cls-5" d="M690.89,315.48l30.89,38.31s.81.08-.8.95-40,18.6-40,18.6l-52.85,24.74s-2,.87-.88-1.83,36.67-47.14,36.67-47.14L689.79,316A1.91,1.91,0,0,1,690.89,315.48Z" transform="translate(-12.22 -115.67)"/>
      <path class="cls-6" d="M612.65,327.59H670a1.22,1.22,0,0,1,0,1.76c-.88.87-14.27,18.66-14.64,18.81s-42.74-19.11-42.74-19.11S611.62,328.25,612.65,327.59Z" transform="translate(-12.22 -115.67)"/>
      <path class="cls-1" d="M593.32,346.62l55.78,4.32s1.1.36,0,1.75-24.74,33.82-24.74,33.82-1.09,1.9-1.94,0C622.42,386.51,593.18,348.6,593.32,346.62Z" transform="translate(-12.22 -115.67)"/>
      <path class="cls-3" d="M536.6,351.23l28.47-23.42s1-.95,1.61,0,28.47,37.84,28.47,37.84l23.5,31.25s.58,1.69-1.46,1-23.06-13-23.06-13l-56.87-32.13A1.16,1.16,0,0,1,536.6,351.23Z" transform="translate(-12.22 -115.67)"/>
      <path class="cls-7" d="M532.28,320.64l22,7.1s1.17.51,0,1.46-16.1,14.05-16.1,14.05-1.16,1.17-1.72-.29-5.31-20.79-5.31-20.79S530.82,320.64,532.28,320.64Z" transform="translate(-12.22 -115.67)"/>
      <path class="cls-4" d="M527.3,356.79l74.22,39.89s2.27,1.4-.66,1.76-39.38,3.81-39.38,3.81l-25,2.71-6.85-34-2.78-13.32S526.55,356.39,527.3,356.79Z" transform="translate(-12.22 -115.67)"/>
      <path class="cls-2" d="M582.64,338.74l45.77,5s2-.45-.28-1.73-25-10-25-10L571.26,319s-2.49-.55-.52,2.2S582.64,338.74,582.64,338.74Z" transform="translate(-12.22 -115.67)"/>
      <path class="cls-1" d="M778,336.45l-26.5,38.64s-1,.51-1.83-.66-11.35-13.72-11.35-13.72L718.08,337l-7.9-9.3s-.26-.77.84-.77,29.65,3.33,29.65,3.33l37.33,5S778.56,336.15,778,336.45Z" transform="translate(-12.22 -115.67)"/>
      <path class="cls-7" d="M797.83,370.92,794,398.81s.44,1,1.47,0,41.06-35.58,41.06-35.58,1-1.61-1-1.39S797.83,370.92,797.83,370.92Z" transform="translate(-12.22 -115.67)"/>
      <path class="cls-6" d="M803.47,327.3,799,362.65l38.62-6.22s.69-.73-.56-1.54-32-27.89-32-27.89S803.69,325.56,803.47,327.3Z" transform="translate(-12.22 -115.67)"/>
      <path class="cls-5" d="M799,321.15l-6.88,47.21-4.39,29.2s-.51.95-2.12.37-29.35-17.39-29.35-17.39-1.39-.76,0-2.15,41-57.24,41-57.24S798.2,320,799,321.15Z" transform="translate(-12.22 -115.67)"/>
      <path class="cls-3" d="M723.83,365l57.46,36.89s1.46,1.25,0,1.61l-55.78,5.05-25.32,2.27s-1.9.37-.59-1.68S722.73,365,722.73,365A1.08,1.08,0,0,1,723.83,365Z" transform="translate(-12.22 -115.67)"/>
      <path class="cls-2" d="M702.16,415.2,718,420.47l-5,32.79a1.19,1.19,0,0,1-1.93-.73C710.58,450.85,702,416.59,702.16,415.2Z" transform="translate(-12.22 -115.67)"/>
      <path class="cls-7" d="M693.67,415.2s-17,32.65-16.46,34.4,13.32,16.69,13.32,16.69L717,500s1.32,1,1.32-.81-4.54-17-4.54-17l-12.66-45.53-5.79-21.15S694.28,414,693.67,415.2Z" transform="translate(-12.22 -115.67)"/>
      <path class="cls-4" d="M703.34,490.45l14.93,28.84s.88,1.09,0,1.46-40.33,28.84-40.33,28.84-1.17.8-.81-1.17,16.18-37.77,16.18-37.77l8.49-19.32A1.22,1.22,0,0,1,703.34,490.45Z" transform="translate(-12.22 -115.67)"/>
      <path class="cls-5" d="M640.75,485.84,664,511.89s1,.66,0,1.76-22.84,40.18-22.84,40.18-1,1.18-1.32,0,0-13.39,0-13.39l-.13-54.6S640.27,485.29,640.75,485.84Z" transform="translate(-12.22 -115.67)"/>
      <path class="cls-3" d="M667.32,519l.08,90.4s-1.47.66-2.56-1.76-25.26-39.45-25.26-39.45a22.63,22.63,0,0,1,1.54-3.95C641.63,563.64,666.08,518.41,667.32,519Z" transform="translate(-12.22 -115.67)"/>
      <path class="cls-6" d="M709.26,539.2l-37.18,24.44v30a1.62,1.62,0,0,0,2.27-.73c.95-1.54,21-31,21-31l14.78-21.45S710.16,538.61,709.26,539.2Z" transform="translate(-12.22 -115.67)"/>
      <path class="cls-5" d="M712.12,547.83l-40,61.12s-.22,1.56,1.9.52S718.12,587,718.12,587l-4.68-39.16S712.65,547,712.12,547.83Z" transform="translate(-12.22 -115.67)"/>
      <path class="cls-7" d="M702.24,601.7l-29.65,15.08a.88.88,0,0,0,0,1.25c.59.73,12.37,19.1,12.37,19.1a.91.91,0,0,0,1.47-.51c.51-1.25,16.69-34.11,16.69-34.11S703.35,601.14,702.24,601.7Z" transform="translate(-12.22 -115.67)"/>
      <path class="cls-4" d="M634.9,572.21l49.92,78.17s.8,2.27-1.61,1.39-38.28-15.3-38.28-15.3l-60.24-23.86s-1-.51.36-1.54,32.72-25.76,32.72-25.76l15.45-12.44S634.09,571.91,634.9,572.21Z" transform="translate(-12.22 -115.67)"/>
      <path class="cls-6" d="M647,643.91,669.79,655a1.72,1.72,0,0,1,0,2.15c-.88,1.07-28.89,32.3-28.89,32.3s-1.27.78-1.27-.78S647,643.91,647,643.91Z" transform="translate(-12.22 -115.67)"/>
      <path class="cls-1" d="M594.74,623.42l46,17s1.46,1.07,0,1.56-53,8.79-53,8.79l-58.94,9.56s-1.86.1-.59-1.56l40.89-21.47Z" transform="translate(-12.22 -115.67)"/>
      <path class="cls-3" d="M516.76,618.54l55.34,8.59s1.56,1.07,0,1.75S524.57,652,524.57,652s-.39-.35-.88-2.4S516.66,620.1,516.76,618.54Z" transform="translate(-12.22 -115.67)"/>
      <path class="cls-2" d="M516.76,612.68s16.3-10.54,16.89-10.73,13.56,15.61,13.56,15.61,1,1.17-.68,1S516.76,614,516.76,614A.69.69,0,0,1,516.76,612.68Z" transform="translate(-12.22 -115.67)"/>
      <path class="cls-7" d="M635.24,663.82l-72.61-2s-1.46-1.07,1.07-1.56,77-13.57,77-13.57a1.16,1.16,0,0,1,.65,1.37C641.1,649.09,635.24,663.82,635.24,663.82Z" transform="translate(-12.22 -115.67)"/>
      <path class="cls-8" d="M547.89,695.93l86.76-26.54s.69-.1.69,1v14l-87,13S547,697.2,547.89,695.93Z" transform="translate(-12.22 -115.67)"/>
      <path class="cls-5" d="M527.74,666.17s8.15,26.74,8.83,27,12-3.12,12-3.12l64.51-19s2.14-.68,0-2.14Z" transform="translate(-12.22 -115.67)"/>
      <path class="cls-5" d="M491.68,597.36h37.57s.88.49,0,1.47S499.1,620.2,499.1,620.2s-1.37,1-1.86-.88-5.56-20.4-5.56-20.4S491.19,597.36,491.68,597.36Z" transform="translate(-12.22 -115.67)"/>
      <path class="cls-7" d="M504.66,570.33l8,20.49s.2.69-.88.88-18.34,0-18.34,0-.69-.49,0-1.27,10.05-19.52,10.05-19.52S503.59,569.94,504.66,570.33Z" transform="translate(-12.22 -115.67)"/>
      <path class="cls-6" d="M478.9,558.23h24a2.65,2.65,0,0,1,0,1.66c-.29.87-14,28.1-14,28.1a1,1,0,0,1-1.46-.78C487.09,585.94,478.9,558.23,478.9,558.23Z" transform="translate(-12.22 -115.67)"/>
      <path class="cls-3" d="M468.55,547.88l24.58,74.47s.21.68-1.16,1.65-30.25,17.86-30.25,17.86-1.56.69-1.47-1.07S463.48,599,463.48,599l3.7-51.14S468.36,547.3,468.55,547.88Z" transform="translate(-12.22 -115.67)"/>
      <path class="cls-1" d="M443.18,558.23h17.07l-1.36,20.88-4.49,58.07s-1.66.88-1.86-1.17-5.36-44.22-5.36-44.22Z" transform="translate(-12.22 -115.67)"/>
      <path class="cls-4" d="M436.54,557.45l-28.69-10.54s-1.17.29,0,2.34,14.08,28.5,14.08,28.5l21.25,41.37s1.26,1.76.87-.87S436.54,557.45,436.54,557.45Z" transform="translate(-12.22 -115.67)"/>
      <path class="cls-4" d="M507.78,618.56,454.4,654.45s-.68.39,1.37,1.47,47.43,22.44,47.43,22.44l25.57,12.4s1.07.88.58-1.66-7.71-26.74-7.71-26.74l-12.49-43.14S508.83,617.86,507.78,618.56Z" transform="translate(-12.22 -115.67)"/>
    </g>
    <text class="cls-9" transform="matrix(0.12, 0.99, -0.99, 0.12, 712.88, 308.4)"> </text>
    <text class="cls-10" transform="matrix(0.03, 1, -1, 0.03, 717.5, 350.69)">A</text>
    <text class="cls-11" transform="translate(718.43 411.79) rotate(95.55)">G</text>
    <text class="cls-12" transform="translate(710.93 474.99) rotate(107.64)">R</text>
    <text class="cls-13" transform="translate(689.07 532.47) rotate(125.32)">I</text>
    <text class="cls-10" transform="translate(675.22 557.24) rotate(147.41)">T</text>
    <text class="cls-13" transform="matrix(-0.98, 0.21, -0.21, -0.98, 615.27, 590.17)">I</text>
    <text class="cls-13" transform="matrix(-1, -0.01, 0.01, -1, 576.37, 596.81)"> </text>
    <g id="T">
      <polygon class="cls-4" points="656.59 641.12 706.9 607.37 660.18 620.71 656.59 641.12"/>
      <polygon class="cls-4" points="677.85 615.67 656.64 569.13 639.88 579.87 677.85 615.67"/>
    </g>
    <path id="A" class="cls-3" d="M729.79,469l1.49,39.77L790.37,487S729.75,468,729.79,469Zm14.53,13.52,14.06,6-12.3,6Z" transform="translate(-12.22 -115.67)"/>
  </g>
  <g>
    <polygon class="cls-14" points="504.41 202.99 444.47 147.85 439.68 240.15 504.41 202.99"/>
    <polygon class="cls-14" points="433.68 147.85 426.49 232.96 330.59 167.03 433.68 147.85"/>
    <polygon class="cls-7" points="419.3 137.06 264.66 72.33 324.6 159.83 419.3 137.06"/>
    <polygon class="cls-14" points="349.5 96.97 258.93 0 264.66 65 349.5 96.97"/>
    <polygon class="cls-14" points="252 9.59 231.76 82.58 256.8 48.48 252 9.59"/>
    <polygon class="cls-14" points="258.93 64.47 273.32 96.97 239.75 159.83 258.93 64.47"/>
    <polygon class="cls-14" points="250.94 66.6 236.02 139.59 233.89 93.77 250.94 66.6"/>
    <polygon class="cls-14" points="242.41 165.16 264.66 213.65 349.5 194 242.41 165.16"/>
    <polygon class="cls-14" points="273.32 221.1 376.14 317.54 429.95 240.15 273.32 221.1"/>
    <polygon class="cls-3" points="285.57 122.54 324.46 175.28 253.07 159.83 285.57 122.54"/>
    <polygon class="cls-5" points="364.95 199.79 407.04 229.63 304.22 217.91 364.95 199.79"/>
    <polygon class="cls-2" points="525.49 592.45 469.55 781.59 494.59 584.99 525.49 592.45"/>
    <polygon class="cls-2" points="464.05 571.67 469.91 729.38 487.49 584.99 464.05 571.67"/>
    <polygon class="cls-3" points="447.54 565.28 298.89 594.58 417.7 540.77 447.54 565.28"/>
    <polygon class="cls-1" points="406.51 523.72 373.21 555.69 341.51 551.96 406.51 523.72"/>
    <polygon class="cls-5" points="228.56 159.83 283.44 259.46 168.89 221.1 228.56 159.83"/>
    <polygon class="cls-6" points="216.84 155.04 75.66 96.97 161.97 214.71 216.84 155.04"/>
    <polygon class="cls-2" points="116.68 182.74 0 64.47 63.93 89.51 116.68 182.74"/>
    <polygon class="cls-4" points="372.95 321.27 365.49 352.7 349.5 342.58 372.95 321.27"/>
    <polygon class="cls-3" points="364.95 317.54 304.22 283.97 317.54 317.54 364.95 317.54"/>
    <polygon class="cls-14" points="364.95 323.93 345.24 339.91 327.66 326.06 364.95 323.93"/>
    <polygon class="cls-14" points="301.55 295.16 314.34 356.43 324.46 343.11 301.55 295.16"/>
    <polygon class="cls-7" points="361.23 403.85 361.23 360.16 330.59 343.11 361.23 403.85"/>
    <polygon class="cls-14" points="341.98 392.66 317 361.23 327.66 350.04 341.98 392.66"/>
    <polygon class="cls-14" points="199.79 350.04 127.87 300.75 283.44 274.92 199.79 350.04"/>
    <polygon class="cls-4" points="231.76 262.66 120.41 291.96 71.39 229.63 231.76 262.66"/>
    <polygon class="cls-1" points="159.3 229.63 86.84 175.28 86.84 221.1 159.3 229.63"/>
    <polygon class="cls-5" points="75.66 165.16 75.66 196.6 23.44 134.79 75.66 165.16"/>
    <polygon class="cls-14" points="0 72.33 46.88 122.54 23.44 116.08 0 72.33"/>
    <path class="cls-14" d="M302.58,443.86h-25S241.85,496.07,244,494.47,302.58,443.86,302.58,443.86Z" transform="translate(-12.22 -115.67)"/>
    <polygon class="cls-14" points="248.81 331.92 199.26 353.52 196.06 373.48 248.81 331.92"/>
    <polygon class="cls-14" points="187.01 360.69 106.56 366.02 131.6 376.68 187.01 360.69"/>
    <polygon class="cls-1" points="304.22 368.68 238.69 387.86 295.16 336.98 304.22 368.68"/>
    <polygon class="cls-14" points="222.44 392.66 175.28 395.32 222.44 366.55 222.44 392.66"/>
    <polygon class="cls-14" points="161.43 392.66 127.87 383.6 181.68 371.35 161.43 392.66"/>
    <polygon class="cls-14" points="361.23 448.6 322.33 470.98 298.89 555.69 361.23 448.6"/>
    <polygon class="cls-14" points="368.15 453.93 395.32 517.33 313.01 550.36 368.15 453.93"/>
    <polygon class="cls-14" points="310.08 480.04 290.37 555.69 222.44 550.36 310.08 480.04"/>
    <polygon class="cls-5" points="261.02 499.21 151.58 504.54 214.18 546.1 261.02 499.21"/>
    <polygon class="cls-6" points="154.77 496.55 131.06 480.04 142.92 499.21 154.77 496.55"/>
    <polygon class="cls-4" points="233.89 453.93 191.8 469.91 290.37 478.44 233.89 453.93"/>
    <polygon class="cls-14" points="175.28 473.11 139.59 480.04 248.81 491.22 175.28 473.11"/>
    <polygon class="cls-14" points="279.71 480.04 263.73 489.63 245.61 480.04 279.71 480.04"/>
    <polygon class="cls-14" points="349.5 443.81 298.89 473.11 245.61 451.26 349.5 443.81"/>
    <polygon class="cls-3" points="109.75 376.68 151.58 424.09 163.03 418.23 109.75 376.68"/>
    <polygon class="cls-14" points="231.76 445.94 159.3 430.49 279.71 392.66 231.76 445.94"/>
    <polygon class="cls-14" points="330.59 419.3 245.61 443.81 304.22 382 330.59 419.3"/>
    <polygon class="cls-14" points="361.23 408.64 338.31 416.1 313.01 380.94 361.23 408.64"/>
    <polygon class="cls-14" points="210.98 403.85 163.03 398.52 169.96 416.1 210.98 403.85"/>
    <polygon class="cls-14" points="453.4 584.99 395.32 725.65 428.36 591.92 453.4 584.99"/>
    <polygon class="cls-14" points="443.27 633.48 440.08 711.79 373.21 801.83 443.27 633.48"/>
    <polygon class="cls-4" points="408.24 622.29 385.2 677.16 376.68 759.21 408.24 622.29"/>
  </g>
  <text class="cls-15" transform="translate(808.79 441.2)">20</text>
  <text class="cls-16" transform="translate(804.33 606.34)">23</text>
</svg>
