<svg xmlns="http://www.w3.org/2000/svg" viewBox="0 0 875.31 549.37">
  <defs>
    <style>
      .cls-1, .cls-2 {
        fill: #70b544;
      }

      .cls-1 {
        fill-rule: evenodd;
      }
    </style>
  </defs>
  <g id="Layer_4" data-name="Layer 4">
    <g>
      <g>
        <path class="cls-1" d="M601.6,545.6c7.45-17.14,21.28-23.17,29.44-11.75,4.9,6.86-2.93,20.17-7.75,25.41-1.83,2,17.19,4.77,5.71,30-5.68,12.46-24.25-.57-29.67-13.78L449,586.73c-11.55,14.88-30.19,28.85-35,8.62a21.2,21.2,0,0,1,5.83-20c.42-.38-11.79-20.32-7.69-29.3,7.41-16.21,22.1.73,27.57,6.32,1.47,1.51,58.32-2.86,59.49-1.1Z" transform="translate(-97.89 -228.63)"/>
        <path class="cls-1" d="M926.28,576c11.3-14.88,26.16-17.47,31.38-4.44,3.14,7.83-7.63,18.9-13.55,22.86-2.24,1.49,15.57,8.7-1.57,30.49-8.46,10.76-23.42-6.3-25.55-20.42L768.3,579.83c-14.76,11.72-36.17,20.87-36,.09a21.17,21.17,0,0,1,10.42-18.09c.49-.27-6.65-22.54-.53-30.29,11-14,21.29,6,25.28,12.68,1.07,1.81,57.34,11,58.06,13Z" transform="translate(-97.89 -228.63)"/>
        <path class="cls-1" d="M369.8,594.41c8.06-16.86,22.09-22.4,29.84-10.7,4.66,7-3.64,20.06-8.64,25.13-1.9,1.91,17,5.37,4.64,30.17-6.11,12.25-24.21-1.42-29.16-14.82l-150.61,5.94c-12.07,14.46-31.19,27.76-35.26,7.38a21.17,21.17,0,0,1,6.53-19.83c.43-.36-11.07-20.72-6.65-29.55,8-15.94,22.06,1.51,27.33,7.29,1.41,1.56,58.38-.8,59.5,1Z" transform="translate(-97.89 -228.63)"/>
        <path class="cls-1" d="M435.87,680.74a13.18,13.18,0,0,0,13.81,12.53l16.37-.8a13.19,13.19,0,1,0-1.27-26.35l-16.37.8A13.21,13.21,0,0,0,435.87,680.74Z" transform="translate(-97.89 -228.63)"/>
        <g>
          <g>
            <path class="cls-1" d="M581.46,277.51c18.49,2.65,30.88-5.95,25.44-18.9-3.27-7.77-18.71-8.08-25.7-6.73-2.65.51,13-19.71-14.5-23.17-13.58-1.7-20.28,23.52-11.87,35.06L466.4,385.83c-18.73,2-40.4,10.57-25.7,25.26a21.2,21.2,0,0,0,20.13,5.55c.54-.16,5.5,18.82,15.3,20,17.68,2.19,16.58-17.32,14.68-24.91-.51-2,33-48.15,32.15-50.07Z" transform="translate(-97.89 -228.63)"/>
            <path class="cls-1" d="M567,298.29,523,361.7c.89,1.92-32.66,48-32.15,50.07,1.5,6,2.51,19.47-5.9,23.75A176.34,176.34,0,0,1,567,298.29Z" transform="translate(-97.89 -228.63)"/>
          </g>
          <path class="cls-1" d="M434.11,492.93c18.49,2.64,30.88-6,25.44-18.91-3.27-7.77-18.7-8.08-25.7-6.73-2.64.52,5-17.14-22.54-20.59-13.58-1.71-12.24,20.94-3.83,32.48L319.05,601.25c-18.73,2-40.4,10.56-25.69,25.25a21.17,21.17,0,0,0,20.12,5.55c.54-.15,11.11,20.71,20.91,21.92,17.69,2.19,11-19.2,9.07-26.79-.5-2,33-48.15,32.15-50.07Z" transform="translate(-97.89 -228.63)"/>
          <path class="cls-1" d="M462.59,452.38a13.18,13.18,0,0,1-18.19,4.06l-13.83-8.8a13.19,13.19,0,1,1,14.13-22.27l13.83,8.79A13.22,13.22,0,0,1,462.59,452.38Z" transform="translate(-97.89 -228.63)"/>
        </g>
        <g>
          <path class="cls-1" d="M281.65,636.28c-33.46-5.68-58.49-16.25-63.08-2.69s2.14,28.12,34.29,39,62,8.72,66.57-4.84S312.9,641.59,281.65,636.28Z" transform="translate(-97.89 -228.63)"/>
          <path class="cls-1" d="M319.43,667.76c2.65-7.84-37.11-6.38-66.57-10.06-21.51-2.68-35.18-12.1-34.5-10.14,3.12,9.05,13.26,17.84,34.5,25C285,683.49,314.83,681.32,319.43,667.76Z" transform="translate(-97.89 -228.63)"/>
        </g>
        <path class="cls-1" d="M198.92,615.7c-9.28-3.14-18.83.27-21.32,7.6s3,15.85,12.31,19,18.83-.26,21.31-7.6S208.19,618.85,198.92,615.7Z" transform="translate(-97.89 -228.63)"/>
        <g>
          <path class="cls-1" d="M807.87,576.6c25.6-8.69-4.37-73.61-54-52.59C721.67,537.61,763.18,591.76,807.87,576.6Zm69.61-1.47c-8.54-37.66,50.19-54.63,67.43-29.55C970.2,582.38,885.36,609.88,877.48,575.13Zm-35.36-41.42s-54.74-50-91.67-32.28c-104.27,50,73.45,122.23,95.58,124.26,32.43,3,178.82-32.88,108.11-101.88C931,501.24,870.76,522,842.12,533.71Z" transform="translate(-97.89 -228.63)"/>
          <path class="cls-1" d="M772.16,595.12c-45.67-26-84-63.81-21.71-93.69,36.93-17.72,91.67,32.28,91.67,32.28,3.62-1.48,7.74-3.11,12.23-4.77-8.66,17.27-21.8,30.22-38.33,39.79,7.39-19.34-20.44-62.39-62.2-44.72-28.53,12.07.95,56.07,39.17,55.23a196.33,196.33,0,0,1-24.24,6.81A76.71,76.71,0,0,1,772.16,595.12Z" transform="translate(-97.89 -228.63)"/>
        </g>
      </g>
      <g>
        <path class="cls-1" d="M675.23,285c-94.35-23.66-190.17,33.75-213.84,128.13C444.73,479.47,475,519.5,527.19,545.65c-9.29,10.55-13.58,24.1-6.34,41.71,11.44,27.84,35.38,13.24,43.47.41C565,586.69,562,615,584.94,621.6c26.9,7.74,39-28.59,40.79-27.38,8.32,5.68,5.83,36.85,31.19,36,22.46-.76,28.65-22.32,24.55-45.58,59,1.93,105-18.92,121.81-85.77C827,404.47,769.58,308.63,675.23,285ZM612.78,432.52c-10.18,40.59-39.64,68.22-65.75,61.67a31.81,31.81,0,0,1-4.26-1.43,47.05,47.05,0,0,1-5.31-1c-31.39-7.87-48.6-47.21-38.42-87.8s43.93-67.14,75.31-59.27a46.86,46.86,0,0,1,5.15,1.66,30.83,30.83,0,0,1,4.43.75C610,353.67,623,391.94,612.78,432.52Zm170.94,42.89c-10.18,40.58-43.92,67.14-75.31,59.27a46.86,46.86,0,0,1-5.15-1.66,31.88,31.88,0,0,1-4.42-.75c-26.11-6.54-39-44.81-28.85-85.39s39.63-68.22,65.74-61.67a31.47,31.47,0,0,1,4.27,1.43,46.48,46.48,0,0,1,5.3,1C776.69,395.48,793.9,434.82,783.72,475.41Z" transform="translate(-97.89 -228.63)"/>
        <path class="cls-1" d="M547.52,601.72a9.37,9.37,0,0,1,.08-2.71c1.78-9.47,8-10,14.31-7.93A36.54,36.54,0,0,1,547.52,601.72Zm17.12-9.58a90.54,90.54,0,0,1,11.24,6.38c1.78,1.11,55.92-16.8,57.49-15.37l98-30.08c3.12-18.43,15.09-27.61,25.76-18.48,6.41,5.48,2,20.28-1.42,26.53-.58,1.06,3,1.27,6.59,3.65-21.62,15.44-49.39,20.88-80.82,19.85a72.45,72.45,0,0,1,1.11,15.67l-47.15,15.49c-4-8.67-5.35-18.59-9.7-21.56C624,593,611.84,629.34,584.94,621.6,568.09,616.75,565.24,600.16,564.64,592.14Z" transform="translate(-97.89 -228.63)"/>
      </g>
      <g>
        <path class="cls-1" d="M751.28,588.77c3.12-18.42,15.09-27.6,25.76-18.48,6.41,5.48,2,20.28-1.42,26.53-1.29,2.37,17.84.5,12.75,27.74-2.5,13.46-23.67,5.28-32.1-6.24l-143.2,47.06c-7.63,17.22-22.36,35.26-31.88,16.78a21.19,21.19,0,0,1,.84-20.85c.32-.47-16.34-16.89-14.51-26.6,3.3-17.51,21.63-4.6,28.28-.48,1.79,1.1,55.92-16.81,57.49-15.38Z" transform="translate(-97.89 -228.63)"/>
        <path class="cls-1" d="M235.92,699.41c-7.73,17-21.64,22.83-29.62,11.28-4.8-6.94,3.24-20.12,8.15-25.29,1.85-1.95-23.62.36-11.73-24.68,5.87-12.37,30.73-4.45,35.93,8.85l150.48-8.88c11.78-14.7,30.63-28.37,35.1-8.07a21.14,21.14,0,0,1-6.14,19.94c-.42.38,12.91,14.77,8.66,23.68-7.67,16.09-23.52,4.66-28.89-1-1.45-1.53-58.36,1.94-59.51.16Z" transform="translate(-97.89 -228.63)"/>
        <path class="cls-1" d="M409.73,720.22a13.18,13.18,0,0,0-16.07-9.45l-15.87,4.11a13.19,13.19,0,0,0,6.6,25.54l15.87-4.11A13.22,13.22,0,0,0,409.73,720.22Z" transform="translate(-97.89 -228.63)"/>
        <g>
          <path class="cls-1" d="M816.56,687.06c9.76-12.35,23.52-14.69,29.13-4.1,3.36,6.35-6.09,15.58-11.43,18.91-2,1.26,18.76,15,3.92,33.12-7.33,8.94-26-12.93-28.74-24.46l-88.25-12.81c-13.16,9.82-32.7,17.64-33.71.62a16.07,16.07,0,0,1,8.75-15c.45-.23-2.17-15.22,3.13-21.66,9.56-11.62,15,1.42,19.06,6.87a27.52,27.52,0,0,1,2.8,4.64Z" transform="translate(-97.89 -228.63)"/>
          <path class="cls-1" d="M809.44,710.53s27.26-5.3,30.16-.84c3.9,6,7.08,14.94-1.42,25.3C830.85,743.93,812.21,722.06,809.44,710.53Z" transform="translate(-97.89 -228.63)"/>
        </g>
        <path class="cls-1" d="M764.32,722.34c-8.88-13-22.44-16.3-28.77-6.13-3.81,6.11,5,16,10.07,19.67,1.92,1.39-19.76,13.67-6.22,32.76,6.68,9.43,26.8-11.08,30.38-22.39l88.93-6.61c12.43,10.72,31.38,19.89,33.58,3a16.05,16.05,0,0,0-7.68-15.54c-.43-.26,3.23-15-1.61-21.83-8.72-12.26-15,.37-19.5,5.52a28.05,28.05,0,0,0-3.11,4.43Z" transform="translate(-97.89 -228.63)"/>
        <g>
          <path class="cls-1" d="M173.3,721.34c-10.32-.32-24.89-11.11-24.57-21.43s11.12-21.45,21.44-21.13,20.47,5.44,20.15,15.76S183.61,721.66,173.3,721.34Z" transform="translate(-97.89 -228.63)"/>
          <path class="cls-1" d="M131.43,730.06A9.34,9.34,0,0,0,135,748.4l22.13-4.29a9.34,9.34,0,1,0-3.56-18.34Z" transform="translate(-97.89 -228.63)"/>
          <path class="cls-1" d="M105.6,704.92a9.34,9.34,0,1,0,3.28,18.39l29.32-5.23a9.35,9.35,0,1,0-3.28-18.4Z" transform="translate(-97.89 -228.63)"/>
          <path class="cls-1" d="M110.36,668.13a9.34,9.34,0,1,0-4,18.26l29.12,6.29a9.34,9.34,0,0,0,3.94-18.26Z" transform="translate(-97.89 -228.63)"/>
          <path class="cls-1" d="M140.4,640.14a9.34,9.34,0,0,0-14.24,12.09l19.28,22.71a9.34,9.34,0,0,0,14.24-12.1Z" transform="translate(-97.89 -228.63)"/>
          <path class="cls-1" d="M183.6,641a8.16,8.16,0,0,0-16.31-.06l-.1,26a8.16,8.16,0,0,0,16.31.06Z" transform="translate(-97.89 -228.63)"/>
        </g>
        <g>
          <path class="cls-2" d="M426.29,738.78c-1.14-25.61.07-52.6,12.27-74.11.82-1.44,1.7-2.86,2.65-4.23.73-1.07,1.51-2.12,2.32-3.13,9.1-11.35,22.2-21,37.67-18.59,12.59,2,22.49,12.73,27.75,25.43,8,19.38,7.39,41.23,7.45,62l-1.13,2.94-1.22.93-1.51.39-1.52-.25-1.3-.81-1.4-2.82c0-.28-.05-.57-.08-.85-1.88-20.75-2.11-42.57-13.82-60.28-.59-.89-1.21-1.77-1.88-2.61-4.27-5.4-10.69-9.72-17.72-7.79-8.37,2.29-14.8,9.9-18.64,17.35-5.43,10.55-6.78,22.85-7.25,34.74-.55,13.87.61,27.63,2.2,41.54l-.47,4.75-2.18,4.07-3.54,3-4.56,1.43-4.74-.47c-4.05-2.16-4.1-2.2-7-5.72l-1.42-4.54c-.28-2.72-.48-5.44-.67-8.17C426.51,742.9,426.38,740.69,426.29,738.78Z" transform="translate(-97.89 -228.63)"/>
          <path class="cls-2" d="M477.06,654.14c-1.47.94-1.93,2.22,0,0,16.44.15,22.95,1.29,30.3,17.64,8.19,18.21,8.51,39,8.47,59.57L515,732l-1.81.48-1.83-.31-1.57-1c-.68-1.36-1.69-3.38-1.69-3.4l-.09-.93c-1.52-16-2.79-32.16-7.92-47.5C496,666.94,489.92,655.7,477.06,654.14Z" transform="translate(-97.89 -228.63)"/>
          <path class="cls-2" d="M472.15,737.47c-.77-18.34.21-36.86,6.94-54.13,7.34-18.87,24.3-35.27,44.34-35.09,13.64.12,25.81,10.08,31.9,23.64,7.48,16.63,7,35.9,7,54.57l-1.13,2.94-1.22.94-1.5.39-1.52-.25-1.3-.82c-.56-1.12-1.4-2.8-1.4-2.82,0-.25,0-.51-.08-.77-1.25-13.26-2.31-26.66-6.57-39.38-3.44-10.27-9.88-21-20.54-22.3-10-1.21-19.66,7.33-24.62,15.61-9.34,15.58-8.24,36.24-6.87,53.23.36,4.44.82,8.88,1.36,13.28l-.43,4.75-2.15,4.09-3.52,3-4.55,1.46-4.74-.43c-4.06-2.14-4.11-2.17-7.08-5.67L473,749.17C472.68,746.06,472.33,741.44,472.15,737.47Z" transform="translate(-97.89 -228.63)"/>
          <path class="cls-2" d="M527.08,664.39c-1.21.78-1.6,1.84,0,0,13.64.12,20.45,2.49,26.54,16,6.79,15.1,7.06,32.37,7,49.4l-.66.51-1.5.39-1.52-.25-1.3-.82c-.56-1.12-1.4-2.8-1.4-2.82,0-.25,0-.51-.08-.77-1.25-13.26-2.31-26.66-6.57-39.38C544.18,676.42,537.74,665.68,527.08,664.39Z" transform="translate(-97.89 -228.63)"/>
          <path class="cls-2" d="M517.73,738.63q-.11-2.43-.15-4.86C517.18,713,520,690.05,534,675.85c11.18-11.35,29.38-18.13,43.3-5.8,9.36,8.29,12.7,21.3,13.88,33.07a221.94,221.94,0,0,1,.6,25.28l-1.16,2.94-1.21.93-1.49.39-1.5-.25-1.3-.82c-.56-1.12-1.42-2.8-1.42-2.82l-.06-.61C582,713.24,582,697.09,571.93,685c-.34-.41-.69-.8-1-1.18-2.77-2.9-6.76-5.13-11-4.33-6.76,1.28-12.1,7.56-14.81,13.07-7.37,15-4.71,33.85-3.3,47.57.16,1.43.32,2.86.5,4.28l-.45,4.75-2.16,4.09-3.52,3-4.56,1.45-4.74-.45c-4.06-2.14-4.1-2.18-7.07-5.68L518.35,747C518.05,744.22,517.86,741.42,517.73,738.63Z" transform="translate(-97.89 -228.63)"/>
          <path class="cls-1" d="M571.61,684.62c6.74,5.75,13.26,15.58,14.78,22.08l5.1.78c.44,6.95.33,13.94.24,20.92l-1.16,2.94-.57.44-5.24-.8c-.52-1-1.11-2.19-1.11-2.21l-.06-.61C582,713.24,582,697.09,571.93,685,571.83,684.87,571.72,684.75,571.61,684.62Z" transform="translate(-97.89 -228.63)"/>
        </g>
        <path class="cls-1" d="M585.94,747.2c-9.84,12.29-23.62,14.53-29.15,3.91-3.33-6.39,6.2-15.55,11.55-18.84,2-1.24-18.65-15.15-3.68-33.15,7.39-8.88,25.88,13.12,28.56,24.67l88.16,13.42c13.23-9.72,32.82-17.4,33.71-.38a16.06,16.06,0,0,1-8.85,14.91c-.45.22,2.07,15.23-3.27,21.63-9.65,11.56-15-1.52-19-7a28.23,28.23,0,0,1-2.76-4.67Z" transform="translate(-97.89 -228.63)"/>
      </g>
    </g>
  </g>
</svg>
