<svg id="Layer_1" data-name="Layer 1" xmlns="http://www.w3.org/2000/svg" viewBox="0 0 356.49 540">
  <defs>
    <style>
      .cls-1, .cls-2 {
        fill: #bcbec0;
      }

      .cls-1 {
        fill-rule: evenodd;
      }

      .cls-3 {
        fill: #6d246f;
      }
    </style>
  </defs>
  <path class="cls-1" d="M385.8,329c2.76,7.11,3,14.6,3.49,22,3.72,52.89,7.21,105.79,11,158.67,1.59,22.32,2,44.64,2.23,67s2.14,44.7,3.34,67c.27,5.09.65,10.18,1,15.28.76,11.67,1.48,23.35,2.32,35,.19,2.65.21,5.65,4.16,6.62.57-.86.95-1.16,1-1.5,1.53-17.9,12.87-29.39,23.9-41,5.54-5.83,13.06-7.89,20.22-8.91,11.36-1.63,22.86-1.35,33.42,5.06,7.24,4.39,13.15,9.91,17.27,17.77,3.21,6.12,7.16,11.81,10.76,17.67,3.85-1.88,4-5,3.53-8.12a70.06,70.06,0,0,0-2.57-9c-4.66-14.93-9.12-29.93-14.07-44.75-6.17-18.52-12.82-36.87-19.16-55.33-2.27-6.63-4.32-13.27-5-20.46a83.47,83.47,0,0,0-3.85-17.16,38.17,38.17,0,0,1-1.37-16.19c1.85-15.94,2.85-32,5-47.91,1.92-14.37,5.32-28.3,11.38-41.66,6.43-14.18,12.75-28.35,20.66-41.66,11.94-20.06,27.74-35.65,47.8-46.18,7.63-4,15.53-7.43,23.23-11.3,12.8-6.43,26.1-10.86,40.3-12.14,2.86-.25,5.55-2.09,8.4-2.84,6.45-1.69,12.94-3.23,19.44-4.69a125.82,125.82,0,0,0,36.44-14c1.14-.67,2.11-1.63,5-3.91-4.29.28-6.44.09-8.43.62-6.47,1.71-12.87,3.66-19.3,5.55a216.12,216.12,0,0,1-45.6,8.1c-4-2.26-5-6.14-6.25-9.77-2-5.72-.82-10.86,2.94-15.31A48.51,48.51,0,0,1,633.54,270c15.29-7.93,30.43-16.2,45.62-24.34a37.91,37.91,0,0,0,4.9-2.77c19-14.2,38.73-27.47,55.26-45.45-2.05,1.09-4.12,2.15-6.14,3.28a465.42,465.42,0,0,0-46.47,29.94c-7.28,5.32-15.26,9.61-23.14,13.92-14.81,8.11-29.47,16.56-45.25,22.45-2.06.77-4.15,1.47-6,2.11C605.11,261.61,603,255,604,243c4.06-3.42,9.24-5.62,14.17-8.13a200.71,200.71,0,0,0,47.66-34.25c8.46-8.1,15.47-17.94,22.86-27.24,2.47-3.11,4.78-6.76,3.81-12.64-1.82,1.35-3.23,1.88-3.87,2.94-8.92,14.66-20.26,26.93-32.88,38-21.69,19-46.61,31.86-72.65,42.42-25.6,10.37-51.32,20.41-77,30.51-21.53,8.45-43,17-64.69,25.06-15.72,5.85-31.68,11-47.53,16.43-3.22,1.11-6.51,2.23-7.42,6.27C385.93,324.52,385.09,327.19,385.8,329Zm48.78,1.79c-11.12,7.58-19.8,15.18-25.19,26.46-7.13-10.44-10.95-20-11.2-27.84C409.83,326.51,421.2,329.72,434.58,330.82Zm60.11-2.29a47.78,47.78,0,0,1-3.87,4.25c-7.28,6-14.51,12.09-22,17.84-18.41,14.21-29.62,33.41-35.45,56.49a60.36,60.36,0,0,1-2.46,6.2c-1.88-2.83-3.36-4.5-4.22-6.48-3.13-7.1-6.05-14.3-9-21.46-6.61-15.92-3.52-30.14,9.24-40.88,9.79-8.24,21.51-12.46,33.52-14.41C471.28,328.32,482.45,329,494.69,328.53Zm-35.6-6.37c-.74,0-1.55-1.26-2.39-1.9l-.15,0-.07,0-3,1.51-.24-.68,3.28-.83.17-.09.05,0c15.44-2.73,30.64-6.91,46.34-9.12.83,2.65,1.48,4.73,2.09,6.66-1,.76-1.52,1.55-2.12,1.59C488.38,320.39,473.74,321.35,459.09,322.16Zm13.63-14.58c-13.39,4.76-53.87,11.8-64,11.34,12.82-7.58,47.12-19.77,60.71-21.46a35,35,0,0,1,1.7,3.88C471.75,303.13,472.09,305,472.72,307.58Zm38.66-25.76c-.72,2.35-1.87,4.83-2.16,7.41-.34,3,.07,6.19.19,10.57-9.7,2.2-18.73,5.27-28,6.07-1.06-1.43-2-2.23-2.36-3.26-2.64-7-2-9.14,4.28-11.86,7.51-3.26,15.15-6.16,22.78-9.06C507.61,281.11,509.31,279.53,511.38,281.82Zm31.42,20.8c-1.82,4.6-3.64,9.17-5.66,14.24-6.73.24-13.35.66-20,.64-4,0-7.19-1.7-7.74-6.57C517.51,306.28,533.23,302.38,542.8,302.62Zm9.07-38.29c4.34,7.22,8.27,13.74,13,21.58-11.66,3-22.37,5.85-33.1,8.63-1.79.46-3.59.88-5.4,1.3a4.09,4.09,0,0,1-1.09.15c-9.51-.12-10.72-3.95-8.06-11.47,2-5.54,5.26-9.2,10.5-11.22,6.25-2.41,12.36-5.2,18.59-7.66A35,35,0,0,1,551.87,264.33Zm50.89,8c-6.21,3.16-13.09,4.8-19.57,7.48-4.66,1.92-8.65.81-12.59-1.89a23.79,23.79,0,0,1-8.39-10.7c-2-4.81-1.23-7.27,3.38-9.2,9.64-4,19.32-7.9,29-11.76.52-.2,1.32.38,1.6.47C598.38,255.2,600.48,263.42,602.76,272.36Zm-15.21,23.45c.16-2.67.64-5.32,1-8l20.75-7.31c-.61,4.81-1.71,9-1.49,13.09.24,4.57,1.67,9.08,2.69,14.08-7.43,1-13.45-1.79-19.28-5.11A7.06,7.06,0,0,1,587.55,295.81Zm-36,19.35c-1.06.09-2.44.1-3.17-.52-1-.86-2.41-2.72-2.11-3.52,2-5.4,3.85-11.33,9.58-13.4,6.6-2.39,13.46-4,20.21-5.9,1.34-.38,2.73-.53,4.49-.86.48,3.86.28,7.54,1.48,10.62,1.28,3.32,3.86,6.09,6.47,10C575.55,312.83,563.55,314,551.54,315.16ZM535.93,340.3c-11.49,5.44-22.69,11.85-31.57,21.42-15.28,16.47-30.24,33.24-39.73,54.63-5.33,12-11.47,23.63-13.77,36.92-.32,1.88-.92,3.9-3.65,3.39-3.09-7.43-6.41-14.86-9.22-22.51-1-2.79-1.7-6.31-1-9.09,3.21-13.65,5.58-27.53,12.38-40.08,5.8-10.71,12.4-20.36,21.8-27.76,5.34-4.21,10.34-8.9,15.73-13,6-4.57,12.29-8.65,18.35-13.12,4.11-3,8.63-4,13.52-4.44,16.57-1.34,33.13-2.92,49.69-4.34,1.76-.15,3.55.17,7.57.4C561.14,329.18,548.39,334.41,535.93,340.3ZM473,495.18c-.7,6.49-.17,13.17-3,19.82-1.23-1.24-2.36-1.86-2.69-2.8-4.45-12.51-8.8-25.06-13.15-37.61a14.76,14.76,0,0,1,.12-10.33c3.75-10.19,5.1-21.08,9.83-31.14,6.44-13.71,12.09-27.73,21.86-39.31,2.22-2.64,4.44-5.29,6.4-8.15,10.66-15.58,24.54-27.13,40.29-36.31,2.44-1.42,5.33-2,9.27-3.34-2.41,5.23-6,7.4-9,10.05-7.39,6.65-14.34,13.75-19.78,22.24-11.7,18.25-20.95,38-29,58.26C476.67,455.25,475.15,475.32,473,495.18ZM413.44,622.6c.78-14.27,3.9-27.86,7.39-41.46.55-2.14,1.73-4.71,3.37-5.82,7.87-5.28,16.15-9.26,26-7.53,9.1,1.6,16.28,7,23.69,12.21,5.43,3.81,9.65,8.36,11.87,15,6.12,18.09,12.35,36.13,18.44,54.23.39,1.14,0,2.57,0,4.42-27.86-19-63.76-18-86.38,14.48-3.58-.69-4.52-3.4-4.76-6.79C412.08,648.37,412.74,635.53,413.44,622.6Zm-4.79-91.8a50.76,50.76,0,0,1,1-11.65c1.84-10.22,7.4-16.78,17.27-18.92,6.48-1.41,12.39-.85,17.57,4.13a108.6,108.6,0,0,0,9.51,8.06,18.44,18.44,0,0,1,6.56,9.18c5.11,15.16,10.38,30.26,15.52,45.4.45,1.34,1.41,2.89-.58,5a27.13,27.13,0,0,1-4.21-2.2c-14.24-10.66-29.21-12.16-45-4.28-6.33,3.16-11.09,7.55-12.39,15.38-.62,3.71-2,7.27-3.55,12.66-.8-3-1.4-4.08-1.31-5.1C410.66,569.2,409.7,550,408.65,530.8Zm-4.73-66.73c-.19-3.43.66-6.92,1.08-10.38.64-5.2,4.08-7.42,8.41-7.68a16.34,16.34,0,0,1,8.41,1.8,99.26,99.26,0,0,1,13,8.86,13.07,13.07,0,0,1,4,5.4c4.76,12.3,9.31,24.69,13.85,37.08.3.83-.06,1.94-.3,6.11-6.09-10.33-14.07-12.81-22.09-12.21s-16.13,2.41-22.15,10.26c-.94-1.67-1.56-2.29-1.61-3C405.59,488.26,404.58,476.17,403.92,464.07Zm.49-54.25c11.35-.92,13.38.06,17.41,9.27,2.79,6.38,5.11,13,7.51,19.55.47,1.27,1.38,2.94-.24,3.95-4.32-1.38-8.42-3.54-12.63-3.79-4.54-.27-9.18,1.23-13.73,1.95C399.36,430.06,401.62,420.31,404.41,409.82Zm-7.56-50.5c0-.55.86-1,1.55-1.8,5.24,14.17,10.43,28.19,15.57,42.24a9.45,9.45,0,0,1,0,2.69c-2.13.22-4.29.61-6.45.63-2.51,0-5-.25-7.39-.39C398.27,392.09,396.29,366.38,396.85,359.32Z" transform="translate(-385.53 -160.69)"/>
  <g>
    <path class="cls-2" d="M708.41,218.05a6.58,6.58,0,0,0,1.28,1.06V652.29h-2.9V215.8C707.33,216.53,707.86,217.37,708.41,218.05Z" transform="translate(-385.53 -160.69)"/>
    <g>
      <path class="cls-3" d="M700.68,647.12s0-13.79,8.73-10.57,3.45,12.64,3.45,12.64,9.88,20.67-12.87,25.27C700,674.46,686.21,663.43,700.68,647.12Z" transform="translate(-385.53 -160.69)"/>
      <path class="cls-3" d="M713.7,650.27c3.73-2.9,14.14-10.72,17.55-12,3.11-1.15,7.86.87,9.43,1.75l1.34-2.4c-.28-.16-6.83-3.73-11.71-1.93-4.52,1.66-17.74,11.95-18.3,12.39Z" transform="translate(-385.53 -160.69)"/>
      <path class="cls-3" d="M739.11,662l2.64-.75c-.15-.54-3.81-13.14-11.38-13.4-6.83-.25-16.78,4.53-17.2,4.73l1.21,2.46c.1,0,9.53-4.65,15.89-4.45C734.92,650.72,738.22,658.85,739.11,662Z" transform="translate(-385.53 -160.69)"/>
      <path class="cls-3" d="M736.37,679.26l2.6-.87c-.76-2.27-7.55-22.13-16.5-21.85-7.62.22-9.42,1.9-9.59,3.27l2.72.35a.87.87,0,0,1-.15.42s1.06-1.12,7.1-1.29C727.76,659.1,733.74,671.47,736.37,679.26Z" transform="translate(-385.53 -160.69)"/>
      <path class="cls-3" d="M728.7,686.33c.07-.64,1.62-15.67-8.59-18.48l-9.19-2.52L710.2,668l9.19,2.53c8,2.19,6.59,15.39,6.58,15.53Z" transform="translate(-385.53 -160.69)"/>
      <path class="cls-3" d="M698.86,648.88l2.73-.3c-2.6-22.9-16.43-27.84-17-28l-.89,2.59C684.21,623.33,696.47,627.83,698.86,648.88Z" transform="translate(-385.53 -160.69)"/>
      <path class="cls-3" d="M698.77,654.64l2.44-1.26c-.26-.5-6.35-12.19-10.82-16.65-5-5-17.52,4.59-20,6.56l1.72,2.14c5.33-4.25,13.93-9.16,16.32-6.76C692.62,642.83,698.71,654.53,698.77,654.64Z" transform="translate(-385.53 -160.69)"/>
      <path class="cls-3" d="M670.78,659.19c4.64-4,13.39-9.59,17.15-7.84a44.86,44.86,0,0,1,10.86,7.77l1.94-1.94a46.7,46.7,0,0,0-11.65-8.32c-6.56-3.05-18.72,7.08-20.08,8.24Z" transform="translate(-385.53 -160.69)"/>
      <path class="cls-3" d="M672.89,667.88c.49-.44,12.05-10.91,23.64-4l1.41-2.36c-13.35-8-26.78,4.19-26.91,4.31Z" transform="translate(-385.53 -160.69)"/>
    </g>
  </g>
</svg>
